SplineFontDB: 3.0
FontName: Bitter-Italic
FullName: Bitter-Italic
FamilyName: Bitter
Weight: Book
Copyright: Copyright (c) 2011, Sol Matas (www.huertatipografica.com.ar), with Reserved Font Name "Bitter"
Version: 1.001
ItalicAngle: -9
UnderlinePosition: -50
UnderlineWidth: 50
Ascent: 800
Descent: 200
sfntRevision: 0x00010042
LayerCount: 2
Layer: 0 1 "Back"  1
Layer: 1 1 "Fore"  0
XUID: [1021 288 713564382 5570235]
FSType: 0
OS2Version: 2
OS2_WeightWidthSlopeOnly: 0
OS2_UseTypoMetrics: 1
CreationTime: 1324045702
ModificationTime: 1324074550
PfmFamily: 17
TTFWeight: 400
TTFWidth: 5
LineGap: 0
VLineGap: 0
Panose: 2 0 0 0 0 0 0 0 0 0
OS2TypoAscent: 290
OS2TypoAOffset: 1
OS2TypoDescent: -70
OS2TypoDOffset: 1
OS2TypoLinegap: 0
OS2WinAscent: 0
OS2WinAOffset: 1
OS2WinDescent: 0
OS2WinDOffset: 1
HheadAscent: 0
HheadAOffset: 1
HheadDescent: 0
HheadDOffset: 1
OS2SubXSize: 700
OS2SubYSize: 650
OS2SubXOff: 0
OS2SubYOff: 140
OS2SupXSize: 700
OS2SupYSize: 650
OS2SupXOff: 0
OS2SupYOff: 477
OS2StrikeYSize: 50
OS2StrikeYPos: 250
OS2FamilyClass: 1280
OS2Vendor: 'PYRS'
OS2CodePages: 20000091.00000000
OS2UnicodeRanges: a00000af.4000204a.00000000.00000000
MarkAttachClasses: 1
DEI: 91125
TtTable: prep
PUSHW_1
 511
SCANCTRL
PUSHB_1
 4
SCANTYPE
EndTTInstrs
ShortTable: maxp 16
  1
  0
  375
  67
  7
  60
  4
  2
  0
  1
  1
  0
  64
  0
  2
  1
EndShort
LangName: 1033 "" "" "" "SolMatas: Bitter Italic: 2011" "" "Version 1.001" "" "Bitter is a trademark of Sol Matas (www.huertatipografica.com.ar)." "Sol Matas" "Sol Matas" "" "www.huertatipografica.com.ar" "www.huertatipografica.com.ar" "This Font Software is licensed under the SIL Open Font License, Version 1.1. This license is available with a FAQ at: http://scripts.sil.org/OFL" "http://scripts.sil.org/OFL" 
GaspTable: 1 65535 15
Encoding: UnicodeBmp
UnicodeInterp: none
NameList: Adobe Glyph List
DisplaySize: -36
AntiAlias: 1
FitToEm: 1
WinInfo: 34 34 13
BeginChars: 65554 375

StartChar: exclam
Encoding: 33 33 4
Width: 330
GlyphClass: 2
Flags: W
LayerCount: 2
Fore
SplineSet
290 750 m 1,0,-1
 194 250 l 1,1,-1
 111 245 l 1,2,-1
 177 750 l 1,3,-1
 290 750 l 1,0,-1
55 45 m 0,4,5
 55 80 55 80 75.5 105 c 128,-1,6
 96 130 96 130 132 130 c 0,7,8
 187 130 187 130 187 75 c 0,9,10
 187 41 187 41 166.5 15.5 c 128,-1,11
 146 -10 146 -10 109 -10 c 0,12,13
 55 -10 55 -10 55 45 c 0,4,5
EndSplineSet
EndChar

StartChar: quotedbl
Encoding: 34 34 5
Width: 401
GlyphClass: 2
Flags: W
LayerCount: 2
Fore
SplineSet
391 770 m 1,0,-1
 332 520 l 1,1,-1
 258 520 l 1,2,-1
 297 770 l 1,3,-1
 391 770 l 1,0,-1
222 770 m 1,4,-1
 163 520 l 1,5,-1
 90 520 l 1,6,-1
 129 770 l 1,7,-1
 222 770 l 1,4,-1
EndSplineSet
EndChar

StartChar: numbersign
Encoding: 35 35 6
Width: 689
GlyphClass: 2
Flags: W
LayerCount: 2
Fore
SplineSet
108 380 m 1,0,-1
 118 445 l 1,1,-1
 234 445 l 1,2,-1
 279 600 l 1,3,-1
 358 600 l 1,4,-1
 313 445 l 1,5,-1
 454 445 l 1,6,-1
 500 600 l 1,7,-1
 578 600 l 1,8,-1
 534 445 l 1,9,-1
 644 445 l 1,10,-1
 634 380 l 1,11,-1
 515 380 l 1,12,-1
 472 235 l 1,13,-1
 584 235 l 1,14,-1
 574 170 l 1,15,-1
 453 170 l 1,16,-1
 405 0 l 1,17,-1
 326 0 l 1,18,-1
 375 170 l 1,19,-1
 233 170 l 1,20,-1
 184 0 l 1,21,-1
 106 0 l 1,22,-1
 154 170 l 1,23,-1
 50 170 l 1,24,-1
 60 235 l 1,25,-1
 173 235 l 1,26,-1
 215 380 l 1,27,-1
 108 380 l 1,0,-1
294 380 m 1,28,-1
 252 235 l 1,29,-1
 394 235 l 1,30,-1
 435 380 l 1,31,-1
 294 380 l 1,28,-1
EndSplineSet
EndChar

StartChar: dollar
Encoding: 36 36 7
Width: 562
GlyphClass: 2
Flags: W
LayerCount: 2
Fore
SplineSet
129 195 m 1,0,-1
 132 93 l 1,1,2
 175 73 175 73 230.5 73 c 128,-1,3
 286 73 286 73 332.5 102.5 c 128,-1,4
 379 132 379 132 379 180 c 0,5,6
 379 237 379 237 285 272 c 0,7,8
 246 286 246 286 207.5 303.5 c 128,-1,9
 169 321 169 321 141.5 354.5 c 128,-1,10
 114 388 114 388 114 438 c 0,11,12
 114 522 114 522 169 572 c 128,-1,13
 224 622 224 622 307 634 c 1,14,-1
 324 745 l 1,15,-1
 398 750 l 1,16,-1
 380 637 l 1,17,18
 450 631 450 631 510 608 c 1,19,-1
 532 600 l 1,20,-1
 502 442 l 1,21,-1
 448 442 l 1,22,-1
 435 543 l 1,23,24
 388 560 388 560 336.5 560 c 128,-1,25
 285 560 285 560 250 532.5 c 128,-1,26
 215 505 215 505 215 469 c 128,-1,27
 215 433 215 433 242.5 410.5 c 128,-1,28
 270 388 270 388 309 373.5 c 128,-1,29
 348 359 348 359 386.5 341.5 c 128,-1,30
 425 324 425 324 452.5 292 c 128,-1,31
 480 260 480 260 480 214 c 0,32,33
 480 125 480 125 423 68.5 c 128,-1,34
 366 12 366 12 279 -4 c 1,35,-1
 257 -140 l 1,36,-1
 184 -140 l 1,37,-1
 205 -10 l 1,38,39
 166 -9 166 -9 124.5 0.5 c 128,-1,40
 83 10 83 10 62 19 c 2,41,-1
 40 28 l 1,42,-1
 67 195 l 1,43,-1
 129 195 l 1,0,-1
EndSplineSet
EndChar

StartChar: percent
Encoding: 37 37 8
Width: 815
GlyphClass: 2
Flags: W
LayerCount: 2
Fore
SplineSet
104 0 m 1,0,-1
 612 700 l 1,1,-1
 700 700 l 1,2,-1
 192 0 l 1,3,-1
 104 0 l 1,0,-1
273 710 m 0,4,5
 333 710 333 710 366 676.5 c 128,-1,6
 399 643 399 643 399 583 c 0,7,8
 399 489 399 489 347 424.5 c 128,-1,9
 295 360 295 360 208 360 c 0,10,11
 76 360 76 360 76 487 c 0,12,13
 76 583 76 583 131.5 646.5 c 128,-1,14
 187 710 187 710 273 710 c 0,4,5
254 646 m 0,15,16
 208 646 208 646 179.5 606 c 128,-1,17
 151 566 151 566 151 499 c 0,18,19
 151 462 151 462 170 443 c 128,-1,20
 189 424 189 424 228 424 c 128,-1,21
 267 424 267 424 295.5 463 c 128,-1,22
 324 502 324 502 324 565 c 0,23,24
 324 646 324 646 254 646 c 0,15,16
601 340 m 0,25,26
 661 340 661 340 694 306.5 c 128,-1,27
 727 273 727 273 727 213 c 0,28,29
 727 119 727 119 675 54.5 c 128,-1,30
 623 -10 623 -10 536 -10 c 0,31,32
 404 -10 404 -10 404 117 c 0,33,34
 404 213 404 213 459.5 276.5 c 128,-1,35
 515 340 515 340 601 340 c 0,25,26
582 276 m 0,36,37
 536 276 536 276 507.5 236 c 128,-1,38
 479 196 479 196 479 129 c 0,39,40
 479 92 479 92 498 73 c 128,-1,41
 517 54 517 54 556 54 c 128,-1,42
 595 54 595 54 623.5 93 c 128,-1,43
 652 132 652 132 652 195 c 0,44,45
 652 276 652 276 582 276 c 0,36,37
EndSplineSet
EndChar

StartChar: ampersand
Encoding: 38 38 9
Width: 670
GlyphClass: 2
Flags: W
LayerCount: 2
Fore
SplineSet
542 330 m 1,0,-1
 522 210 l 2,1,2
 505 106 505 106 432 48 c 128,-1,3
 359 -10 359 -10 252 -10 c 128,-1,4
 145 -10 145 -10 96 34 c 128,-1,5
 47 78 47 78 47 154.5 c 128,-1,6
 47 231 47 231 93 287.5 c 128,-1,7
 139 344 139 344 212 380 c 1,8,9
 202 383 202 383 182.5 394.5 c 128,-1,10
 163 406 163 406 150.5 418 c 128,-1,11
 138 430 138 430 128 452 c 128,-1,12
 118 474 118 474 118 499 c 0,13,14
 118 600 118 600 188 655 c 128,-1,15
 258 710 258 710 375 710 c 0,16,17
 415 710 415 710 460 700 c 128,-1,18
 505 690 505 690 530 680 c 2,19,-1
 555 671 l 1,20,-1
 530 530 l 1,21,-1
 467 530 l 1,22,-1
 460 610 l 1,23,24
 422 625 422 625 357 625 c 128,-1,25
 292 625 292 625 255.5 592.5 c 128,-1,26
 219 560 219 560 219 511.5 c 128,-1,27
 219 463 219 463 251 436.5 c 128,-1,28
 283 410 283 410 335 410 c 2,29,-1
 633 410 l 1,30,-1
 623 350 l 1,31,-1
 542 330 l 1,0,-1
423 205 m 2,32,-1
 443 330 l 1,33,-1
 312 330 l 2,34,35
 246 330 246 330 199 285 c 128,-1,36
 152 240 152 240 152 170 c 0,37,38
 152 124 152 124 182.5 99.5 c 128,-1,39
 213 75 213 75 271.5 75 c 128,-1,40
 330 75 330 75 371.5 108.5 c 128,-1,41
 413 142 413 142 423 205 c 2,32,-1
EndSplineSet
EndChar

StartChar: quotesingle
Encoding: 39 39 10
Width: 212
GlyphClass: 2
Flags: W
LayerCount: 2
Fore
SplineSet
212 770 m 1,0,-1
 153 520 l 1,1,-1
 80 520 l 1,2,-1
 119 770 l 1,3,-1
 212 770 l 1,0,-1
EndSplineSet
EndChar

StartChar: parenleft
Encoding: 40 40 11
Width: 330
GlyphClass: 2
Flags: W
LayerCount: 2
Fore
SplineSet
318 770 m 1,0,-1
 406 770 l 1,1,2
 291 620 291 620 228.5 468 c 128,-1,3
 166 316 166 316 166 134 c 0,4,5
 166 -82 166 -82 246 -230 c 1,6,-1
 159 -230 l 1,7,8
 65 -55 65 -55 65 126 c 128,-1,9
 65 307 65 307 125.5 462 c 128,-1,10
 186 617 186 617 318 770 c 1,0,-1
EndSplineSet
EndChar

StartChar: parenright
Encoding: 41 41 12
Width: 330
GlyphClass: 2
Flags: W
LayerCount: 2
Fore
SplineSet
11 -230 m 1,0,-1
 -77 -230 l 1,1,2
 38 -80 38 -80 100.5 72 c 128,-1,3
 163 224 163 224 163 406 c 0,4,5
 163 622 163 622 83 770 c 1,6,-1
 170 770 l 1,7,8
 264 595 264 595 264 414 c 128,-1,9
 264 233 264 233 203.5 78 c 128,-1,10
 143 -77 143 -77 11 -230 c 1,0,-1
EndSplineSet
EndChar

StartChar: asterisk
Encoding: 42 42 13
Width: 432
GlyphClass: 2
Flags: W
LayerCount: 2
Fore
SplineSet
248 586 m 1,0,-1
 226 609 l 1,1,-1
 234 733 l 1,2,-1
 305 735 l 1,3,-1
 278 608 l 1,4,-1
 398 657 l 1,5,-1
 412 587 l 1,6,-1
 285 558 l 1,7,-1
 351 459 l 1,8,-1
 288 415 l 1,9,-1
 238 528 l 1,10,-1
 252 562 l 1,11,-1
 285 558 l 1,12,-1
 260 577 l 1,13,-1
 278 608 l 1,14,-1
 248 586 l 1,0,-1
226 609 m 1,15,-1
 234 577 l 1,16,-1
 202 560 l 1,17,-1
 236 562 l 1,18,-1
 238 528 l 1,19,-1
 156 415 l 1,20,-1
 104 457 l 1,21,-1
 202 560 l 1,22,-1
 80 585 l 1,23,-1
 115 655 l 1,24,-1
 226 609 l 1,15,-1
EndSplineSet
EndChar

StartChar: plus
Encoding: 43 43 14
Width: 617
GlyphClass: 2
Flags: W
LayerCount: 2
Fore
SplineSet
45 227 m 1,0,-1
 59 303 l 1,1,-1
 269 303 l 1,2,-1
 305 530 l 1,3,-1
 390 530 l 1,4,-1
 353 303 l 1,5,-1
 567 303 l 1,6,-1
 554 227 l 1,7,-1
 340 227 l 1,8,-1
 305 0 l 1,9,-1
 220 0 l 1,10,-1
 256 227 l 1,11,-1
 45 227 l 1,0,-1
EndSplineSet
EndChar

StartChar: comma
Encoding: 44 44 15
Width: 230
GlyphClass: 2
Flags: W
LayerCount: 2
Fore
SplineSet
41 51 m 0,0,1
 41 82 41 82 62 106 c 128,-1,2
 83 130 83 130 116 130 c 0,3,4
 170 130 170 130 170 75 c 0,5,6
 170 22 170 22 118 -47 c 0,7,8
 75 -104 75 -104 38 -140 c 1,9,-1
 23 -154 l 1,10,-1
 -15 -116 l 1,11,12
 55 -36 55 -36 55 -7 c 0,13,14
 55 2 55 2 48 20 c 128,-1,15
 41 38 41 38 41 51 c 0,0,1
EndSplineSet
EndChar

StartChar: hyphen
Encoding: 45 45 16
Width: 384
GlyphClass: 2
Flags: W
LayerCount: 2
Fore
SplineSet
51 230 m 1,0,-1
 65 315 l 1,1,-1
 319 315 l 1,2,-1
 305 230 l 1,3,-1
 51 230 l 1,0,-1
EndSplineSet
EndChar

StartChar: period
Encoding: 46 46 17
Width: 217
GlyphClass: 2
Flags: W
LayerCount: 2
Fore
SplineSet
30 45 m 0,0,1
 30 80 30 80 50.5 105 c 128,-1,2
 71 130 71 130 107 130 c 0,3,4
 162 130 162 130 162 75 c 0,5,6
 162 41 162 41 141.5 15.5 c 128,-1,7
 121 -10 121 -10 84 -10 c 0,8,9
 30 -10 30 -10 30 45 c 0,0,1
EndSplineSet
EndChar

StartChar: slash
Encoding: 47 47 18
Width: 448
GlyphClass: 2
Flags: W
LayerCount: 2
Fore
SplineSet
-25 0 m 1,0,-1
 410 700 l 1,1,-1
 513 700 l 1,2,-1
 77 0 l 1,3,-1
 -25 0 l 1,0,-1
EndSplineSet
EndChar

StartChar: zero
Encoding: 48 48 19
Width: 631
GlyphClass: 2
Flags: W
LayerCount: 2
Fore
SplineSet
384 710 m 0,0,1
 489 710 489 710 540 651 c 128,-1,2
 591 592 591 592 591 490 c 0,3,4
 591 351 591 351 550 228 c 0,5,6
 527 160 527 160 492 108 c 128,-1,7
 457 56 457 56 399 23 c 128,-1,8
 341 -10 341 -10 268 -10 c 0,9,10
 55 -10 55 -10 55 210 c 0,11,12
 55 354 55 354 100 476 c 1,13,14
 124 544 124 544 160 595 c 128,-1,15
 196 646 196 646 254 678 c 128,-1,16
 312 710 312 710 384 710 c 0,0,1
460 590 m 128,-1,18
 434 625 434 625 375 625 c 128,-1,19
 316 625 316 625 273.5 585 c 128,-1,20
 231 545 231 545 208 482 c 0,21,22
 160 355 160 355 160 220 c 0,23,24
 160 143 160 143 187.5 109 c 128,-1,25
 215 75 215 75 284 75 c 0,26,27
 334 75 334 75 374.5 115 c 128,-1,28
 415 155 415 155 438 218 c 0,29,30
 486 349 486 349 486 480 c 0,31,17
 486 555 486 555 460 590 c 128,-1,18
EndSplineSet
EndChar

StartChar: one
Encoding: 49 49 20
Width: 494
GlyphClass: 2
Flags: W
LayerCount: 2
Fore
SplineSet
25 0 m 1,0,-1
 39 85 l 1,1,-1
 188 85 l 1,2,-1
 268 585 l 1,3,-1
 79 472 l 1,4,-1
 50 544 l 1,5,-1
 302 700 l 1,6,-1
 387 700 l 1,7,-1
 288 85 l 1,8,-1
 439 85 l 1,9,-1
 426 0 l 1,10,-1
 25 0 l 1,0,-1
EndSplineSet
EndChar

StartChar: two
Encoding: 50 50 21
Width: 581
GlyphClass: 2
Flags: W
LayerCount: 2
Fore
SplineSet
0 0 m 1,0,-1
 14 85 l 1,1,-1
 141 188 l 2,2,3
 297 314 297 314 358 389.5 c 128,-1,4
 419 465 419 465 419 535 c 0,5,6
 419 575 419 575 390 600 c 128,-1,7
 361 625 361 625 306 625 c 0,8,9
 261 625 261 625 213 613 c 2,10,-1
 197 609 l 1,11,-1
 173 510 l 1,12,-1
 94 510 l 1,13,-1
 114 674 l 1,14,15
 236 710 236 710 329 710 c 128,-1,16
 422 710 422 710 476.5 676 c 128,-1,17
 531 642 531 642 531 554.5 c 128,-1,18
 531 467 531 467 461 371.5 c 128,-1,19
 391 276 391 276 248 163 c 2,20,-1
 150 85 l 1,21,-1
 478 85 l 1,22,-1
 464 0 l 1,23,-1
 0 0 l 1,0,-1
EndSplineSet
EndChar

StartChar: three
Encoding: 51 51 22
Width: 546
GlyphClass: 2
Flags: W
LayerCount: 2
Fore
SplineSet
447.5 672 m 128,-1,1
 501 634 501 634 501 563.5 c 128,-1,2
 501 493 501 493 461.5 441.5 c 128,-1,3
 422 390 422 390 343 368 c 1,4,5
 398 355 398 355 430 316.5 c 128,-1,6
 462 278 462 278 462 231 c 0,7,8
 462 127 462 127 379 58.5 c 128,-1,9
 296 -10 296 -10 175 -10 c 0,10,11
 127 -10 127 -10 81 2.5 c 128,-1,12
 35 15 35 15 12 28 c 2,13,-1
 -10 40 l 1,14,-1
 29 117 l 1,15,16
 115 75 115 75 186.5 75 c 128,-1,17
 258 75 258 75 305.5 115.5 c 128,-1,18
 353 156 353 156 353 219 c 0,19,20
 353 325 353 325 224 325 c 2,21,-1
 148 325 l 1,22,-1
 161 405 l 1,23,-1
 231 405 l 2,24,25
 314 405 314 405 354 445.5 c 128,-1,26
 394 486 394 486 394 542 c 0,27,28
 394 580 394 580 366 602.5 c 128,-1,29
 338 625 338 625 285 625 c 0,30,31
 236 625 236 625 194 613 c 2,32,-1
 180 609 l 1,33,-1
 158 518 l 1,34,-1
 78 518 l 1,35,-1
 97 674 l 1,36,37
 209 710 209 710 301.5 710 c 128,-1,0
 394 710 394 710 447.5 672 c 128,-1,1
EndSplineSet
EndChar

StartChar: four
Encoding: 52 52 23
Width: 592
GlyphClass: 2
Flags: W
LayerCount: 2
Fore
SplineSet
0 170 m 1,0,-1
 5 240 l 1,1,-1
 394 715 l 1,2,-1
 495 700 l 1,3,-1
 423 250 l 1,4,-1
 542 250 l 1,5,-1
 528 170 l 1,6,-1
 411 170 l 1,7,-1
 384 0 l 1,8,-1
 289 0 l 1,9,-1
 316 170 l 1,10,-1
 0 170 l 1,0,-1
381 584 m 1,11,-1
 107 250 l 1,12,-1
 328 250 l 1,13,-1
 381 584 l 1,11,-1
EndSplineSet
EndChar

StartChar: five
Encoding: 53 53 24
Width: 546
GlyphClass: 2
Flags: W
LayerCount: 2
Fore
SplineSet
44 116 m 1,0,1
 136 75 136 75 207 75 c 128,-1,2
 278 75 278 75 327 118.5 c 128,-1,3
 376 162 376 162 376 225 c 0,4,5
 376 345 376 345 195 345 c 2,6,-1
 96 345 l 1,7,-1
 159 700 l 1,8,-1
 526 700 l 1,9,-1
 512 615 l 1,10,-1
 237 615 l 1,11,-1
 204 425 l 1,12,-1
 236 425 l 2,13,14
 356 425 356 425 420.5 375.5 c 128,-1,15
 485 326 485 326 485 245 c 0,16,17
 485 137 485 137 401.5 63.5 c 128,-1,18
 318 -10 318 -10 201 -10 c 0,19,20
 148 -10 148 -10 99 2.5 c 128,-1,21
 50 15 50 15 28 28 c 1,22,-1
 5 40 l 1,23,-1
 44 116 l 1,0,1
EndSplineSet
EndChar

StartChar: six
Encoding: 54 54 25
Width: 603
GlyphClass: 2
Flags: W
LayerCount: 2
Fore
SplineSet
194 380 m 1,0,1
 222 399 222 399 273 414.5 c 128,-1,2
 324 430 324 430 368 430 c 0,3,4
 445 430 445 430 497 385.5 c 128,-1,5
 549 341 549 341 549 261 c 0,6,7
 549 150 549 150 468.5 70 c 128,-1,8
 388 -10 388 -10 274 -10 c 0,9,10
 217 -10 217 -10 175 9 c 128,-1,11
 133 28 133 28 110 60 c 0,12,13
 66 123 66 123 66 211 c 0,14,15
 66 340 66 340 122 462 c 0,16,17
 154 531 154 531 200.5 585 c 128,-1,18
 247 639 247 639 322.5 674.5 c 128,-1,19
 398 710 398 710 490 710 c 0,20,21
 522 710 522 710 556 702 c 1,22,-1
 568 700 l 1,23,-1
 554 620 l 1,24,25
 519 625 519 625 475 625 c 128,-1,26
 431 625 431 625 390 611.5 c 128,-1,27
 349 598 349 598 320.5 576.5 c 128,-1,28
 292 555 292 555 269 528.5 c 128,-1,29
 246 502 246 502 232 476 c 0,30,31
 205 424 205 424 198 394 c 1,32,-1
 194 380 l 1,0,1
177 300 m 1,33,34
 167 240 167 240 167 210 c 0,35,36
 167 149 167 149 199.5 112 c 128,-1,37
 232 75 232 75 295.5 75 c 128,-1,38
 359 75 359 75 401.5 123 c 128,-1,39
 444 171 444 171 444 243 c 0,40,41
 444 345 444 345 326 345 c 0,42,43
 291 345 291 345 254 333.5 c 128,-1,44
 217 322 217 322 197 311 c 2,45,-1
 177 300 l 1,33,34
EndSplineSet
EndChar

StartChar: seven
Encoding: 55 55 26
Width: 514
GlyphClass: 2
Flags: W
LayerCount: 2
Fore
SplineSet
70 700 m 1,0,-1
 539 700 l 1,1,-1
 526 625 l 1,2,-1
 167 0 l 1,3,-1
 54 0 l 1,4,-1
 411 610 l 1,5,-1
 148 610 l 1,6,-1
 113 515 l 1,7,-1
 40 515 l 1,8,-1
 70 700 l 1,0,-1
EndSplineSet
EndChar

StartChar: eight
Encoding: 56 56 27
Width: 630
GlyphClass: 2
Flags: W
LayerCount: 2
Fore
SplineSet
531.5 670.5 m 128,-1,1
 580 631 580 631 580 562 c 128,-1,2
 580 493 580 493 538 444.5 c 128,-1,3
 496 396 496 396 426 371 c 1,4,5
 478 347 478 347 507.5 315 c 128,-1,6
 537 283 537 283 537 229 c 0,7,8
 537 126 537 126 454 58 c 128,-1,9
 371 -10 371 -10 261 -10 c 128,-1,10
 151 -10 151 -10 100.5 34.5 c 128,-1,11
 50 79 50 79 50 146 c 0,12,13
 50 294 50 294 216 367 c 1,14,15
 123 417 123 417 123 497 c 0,16,17
 123 591 123 591 194.5 650.5 c 128,-1,18
 266 710 266 710 391 710 c 0,19,0
 483 710 483 710 531.5 670.5 c 128,-1,1
160 170 m 0,20,21
 160 76 160 76 282 76 c 0,22,23
 345 76 345 76 386 115 c 128,-1,24
 427 154 427 154 427 212 c 0,25,26
 427 258 427 258 385 285 c 0,27,28
 355 304 355 304 295 331 c 1,29,30
 233 302 233 302 196.5 265 c 128,-1,31
 160 228 160 228 160 170 c 0,20,21
447 603 m 128,-1,33
 419 625 419 625 364 625 c 128,-1,34
 309 625 309 625 268 594.5 c 128,-1,35
 227 564 227 564 227 511 c 0,36,37
 227 465 227 465 266 440 c 0,38,39
 295 421 295 421 349 400 c 1,40,41
 400 418 400 418 437.5 456 c 128,-1,42
 475 494 475 494 475 537.5 c 128,-1,32
 475 581 475 581 447 603 c 128,-1,33
EndSplineSet
EndChar

StartChar: nine
Encoding: 57 57 28
Width: 622
GlyphClass: 2
Flags: W
LayerCount: 2
Fore
SplineSet
425 325 m 1,0,1
 397 306 397 306 346 290.5 c 128,-1,2
 295 275 295 275 251 275 c 0,3,4
 171 275 171 275 120 319 c 128,-1,5
 69 363 69 363 69 443 c 0,6,7
 69 553 69 553 149 631.5 c 128,-1,8
 229 710 229 710 344 710 c 0,9,10
 432 710 432 710 492 657 c 128,-1,11
 552 604 552 604 552 487 c 0,12,13
 552 351 552 351 492 226 c 0,14,15
 459 159 459 159 411.5 107 c 128,-1,16
 364 55 364 55 290 22.5 c 128,-1,17
 216 -10 216 -10 126 -10 c 0,18,19
 90 -10 90 -10 60 -2 c 1,20,-1
 50 0 l 1,21,-1
 63 80 l 1,22,23
 99 75 99 75 144 75 c 128,-1,24
 189 75 189 75 231 89 c 128,-1,25
 273 103 273 103 301.5 125 c 128,-1,26
 330 147 330 147 353 173.5 c 128,-1,27
 376 200 376 200 389 226 c 0,28,29
 415 280 415 280 422 311 c 2,30,-1
 425 325 l 1,0,1
442 405 m 1,31,32
 451 451 451 451 451 487 c 0,33,34
 451 557 451 557 417.5 591 c 128,-1,35
 384 625 384 625 322 625 c 128,-1,36
 260 625 260 625 217 577 c 128,-1,37
 174 529 174 529 174 456 c 0,38,39
 174 360 174 360 293 360 c 0,40,41
 328 360 328 360 365 371 c 128,-1,42
 402 382 402 382 422 394 c 2,43,-1
 442 405 l 1,31,32
EndSplineSet
EndChar

StartChar: colon
Encoding: 58 58 29
Width: 288
GlyphClass: 2
Flags: W
LayerCount: 2
Fore
SplineSet
40 45 m 0,0,1
 40 80 40 80 60.5 105 c 128,-1,2
 81 130 81 130 117 130 c 0,3,4
 172 130 172 130 172 75 c 0,5,6
 172 41 172 41 151.5 15.5 c 128,-1,7
 131 -10 131 -10 94 -10 c 0,8,9
 40 -10 40 -10 40 45 c 0,0,1
91 370 m 0,10,11
 91 405 91 405 111.5 430 c 128,-1,12
 132 455 132 455 168 455 c 0,13,14
 223 455 223 455 223 400 c 0,15,16
 223 366 223 366 202.5 340.5 c 128,-1,17
 182 315 182 315 145 315 c 0,18,19
 91 315 91 315 91 370 c 0,10,11
EndSplineSet
EndChar

StartChar: semicolon
Encoding: 59 59 30
Width: 297
GlyphClass: 2
Flags: W
LayerCount: 2
Fore
SplineSet
46 51 m 0,0,1
 46 82 46 82 67 106 c 128,-1,2
 88 130 88 130 121 130 c 0,3,4
 175 130 175 130 175 75 c 0,5,6
 175 48 175 48 159 14 c 128,-1,7
 143 -20 143 -20 123.5 -46.5 c 128,-1,8
 104 -73 104 -73 73 -107.5 c 128,-1,9
 42 -142 42 -142 28 -154 c 1,10,-1
 -10 -116 l 1,11,-1
 8 -95 l 2,12,13
 25 -74 25 -74 42.5 -47 c 128,-1,14
 60 -20 60 -20 60 -9 c 128,-1,15
 60 2 60 2 53 20 c 128,-1,16
 46 38 46 38 46 51 c 0,0,1
95 370 m 0,17,18
 95 405 95 405 115.5 430 c 128,-1,19
 136 455 136 455 172 455 c 0,20,21
 227 455 227 455 227 400 c 0,22,23
 227 366 227 366 206.5 340.5 c 128,-1,24
 186 315 186 315 149 315 c 0,25,26
 95 315 95 315 95 370 c 0,17,18
EndSplineSet
EndChar

StartChar: less
Encoding: 60 60 31
Width: 612
GlyphClass: 2
Flags: W
LayerCount: 2
Fore
SplineSet
165 263 m 1,0,-1
 524 78 l 1,1,-1
 510 -5 l 1,2,-1
 50 230 l 1,3,-1
 62 300 l 1,4,-1
 599 530 l 1,5,-1
 585 443 l 1,6,-1
 165 263 l 1,0,-1
EndSplineSet
EndChar

StartChar: equal
Encoding: 61 61 32
Width: 600
GlyphClass: 2
Flags: W
LayerCount: 2
Fore
SplineSet
37 135 m 1,0,-1
 50 215 l 1,1,-1
 530 215 l 1,2,-1
 517 135 l 1,3,-1
 37 135 l 1,0,-1
69 330 m 1,4,-1
 82 410 l 1,5,-1
 562 410 l 1,6,-1
 549 330 l 1,7,-1
 69 330 l 1,4,-1
EndSplineSet
EndChar

StartChar: greater
Encoding: 62 62 33
Width: 609
GlyphClass: 2
Flags: W
LayerCount: 2
Fore
SplineSet
444 262 m 1,0,-1
 85 447 l 1,1,-1
 99 530 l 1,2,-1
 559 295 l 1,3,-1
 547 225 l 1,4,-1
 10 -5 l 1,5,-1
 24 82 l 1,6,-1
 444 262 l 1,0,-1
EndSplineSet
EndChar

StartChar: question
Encoding: 63 63 34
Width: 458
GlyphClass: 2
Flags: W
LayerCount: 2
Fore
SplineSet
217 75 m 0,0,1
 217 40 217 40 196.5 15 c 128,-1,2
 176 -10 176 -10 140 -10 c 0,3,4
 85 -10 85 -10 85 45 c 0,5,6
 85 79 85 79 105.5 104.5 c 128,-1,7
 126 130 126 130 163 130 c 0,8,9
 217 130 217 130 217 75 c 0,0,1
215 236 m 1,10,-1
 128 230 l 1,11,-1
 128 294 l 2,12,13
 128 331 128 331 150.5 364.5 c 128,-1,14
 173 398 173 398 205.5 423.5 c 128,-1,15
 238 449 238 449 270 474 c 0,16,17
 348 534 348 534 348 598 c 128,-1,18
 348 662 348 662 256 662 c 0,19,20
 211 662 211 662 166 653 c 2,21,-1
 151 650 l 1,22,-1
 146 722 l 1,23,24
 218 745 218 745 283 745 c 0,25,26
 453 745 453 745 453 615 c 0,27,28
 453 568 453 568 428.5 525.5 c 128,-1,29
 404 483 404 483 369 452.5 c 128,-1,30
 334 422 334 422 299 394 c 0,31,32
 215 328 215 328 215 281 c 2,33,-1
 215 236 l 1,10,-1
EndSplineSet
EndChar

StartChar: at
Encoding: 64 64 35
Width: 820
GlyphClass: 2
Flags: W
LayerCount: 2
Fore
SplineSet
486 277 m 1,0,1
 457 204 457 204 396 172 c 0,2,3
 371 159 371 159 343 159 c 0,4,5
 296 159 296 159 269 194 c 128,-1,6
 242 229 242 229 242 280 c 0,7,8
 242 404 242 404 303 474 c 128,-1,9
 364 544 364 544 447 544 c 0,10,11
 488 544 488 544 518 526 c 1,12,-1
 528 521 l 1,13,-1
 546 536 l 1,14,-1
 589 536 l 1,15,-1
 553 309 l 1,16,17
 549 277 549 277 549 270 c 0,18,19
 549 224 549 224 583 224 c 0,20,21
 630 224 630 224 655 286.5 c 128,-1,22
 680 349 680 349 680 418 c 0,23,24
 680 521 680 521 621 578 c 128,-1,25
 562 635 562 635 459.5 635 c 128,-1,26
 357 635 357 635 286.5 585.5 c 128,-1,27
 216 536 216 536 180 454.5 c 128,-1,28
 144 373 144 373 144 272.5 c 128,-1,29
 144 172 144 172 197 118.5 c 128,-1,30
 250 65 250 65 349 65 c 0,31,32
 402 65 402 65 454 84 c 2,33,-1
 471 90 l 1,34,-1
 501 30 l 1,35,36
 431 -10 431 -10 332 -10 c 0,37,38
 200 -10 200 -10 130 59 c 128,-1,39
 60 128 60 128 60 255 c 128,-1,40
 60 382 60 382 105.5 483.5 c 128,-1,41
 151 585 151 585 245 647.5 c 128,-1,42
 339 710 339 710 473.5 710 c 128,-1,43
 608 710 608 710 684 637.5 c 128,-1,44
 760 565 760 565 760 435 c 0,45,46
 760 325 760 325 709.5 242 c 128,-1,47
 659 159 659 159 568 159 c 0,48,49
 515 159 515 159 498 197 c 0,50,51
 485 228 485 228 485 258 c 1,52,-1
 486 277 l 1,0,1
492 403 m 1,53,-1
 507 472 l 1,54,55
 482 483 482 483 446 483 c 0,56,57
 398 483 398 483 359 433.5 c 128,-1,58
 320 384 320 384 320 305 c 128,-1,59
 320 226 320 226 360 226 c 0,60,61
 382 226 382 226 404 244 c 128,-1,62
 426 262 426 262 441 288 c 0,63,64
 471 340 471 340 486 385 c 2,65,-1
 492 403 l 1,53,-1
EndSplineSet
EndChar

StartChar: A
Encoding: 65 65 36
Width: 706
GlyphClass: 2
Flags: W
LayerCount: 2
Fore
SplineSet
481 80 m 1,0,-1
 461 190 l 1,1,-1
 206 190 l 1,2,-1
 151 79 l 1,3,-1
 235 60 l 1,4,-1
 225 0 l 1,5,-1
 -40 0 l 1,6,-1
 -31 60 l 1,7,-1
 54 80 l 1,8,-1
 374 695 l 1,9,-1
 473 700 l 1,10,-1
 593 77 l 1,11,-1
 661 60 l 1,12,-1
 651 0 l 1,13,-1
 386 0 l 1,14,-1
 395 60 l 1,15,-1
 481 80 l 1,0,-1
396 571 m 1,16,-1
 245 270 l 1,17,-1
 447 270 l 1,18,-1
 396 571 l 1,16,-1
EndSplineSet
EndChar

StartChar: B
Encoding: 66 66 37
Width: 636
GlyphClass: 2
Flags: W
LayerCount: 2
Fore
SplineSet
104 80 m 1,0,-1
 189 620 l 1,1,-1
 108 640 l 1,2,-1
 117 695 l 1,3,-1
 302 700 l 1,4,-1
 406 700 l 2,5,6
 490 700 490 700 545.5 661 c 128,-1,7
 601 622 601 622 601 546 c 128,-1,8
 601 470 601 470 554 423.5 c 128,-1,9
 507 377 507 377 445 363 c 1,10,11
 577 333 577 333 577 226.5 c 128,-1,12
 577 120 577 120 501.5 60 c 128,-1,13
 426 0 426 0 307 0 c 2,14,-1
 5 0 l 1,15,-1
 15 60 l 1,16,-1
 104 80 l 1,0,-1
204 80 m 1,17,-1
 297 80 l 2,18,19
 379 80 379 80 424.5 120 c 128,-1,20
 470 160 470 160 470 218.5 c 128,-1,21
 470 277 470 277 432.5 301 c 128,-1,22
 395 325 395 325 317 325 c 2,23,-1
 242 325 l 1,24,-1
 204 80 l 1,17,-1
396 620 m 2,25,-1
 289 620 l 1,26,-1
 254 400 l 1,27,-1
 327 400 l 2,28,29
 381 400 381 400 434 427 c 0,30,31
 462 441 462 441 478.5 469.5 c 128,-1,32
 495 498 495 498 495 537 c 128,-1,33
 495 576 495 576 467.5 598 c 128,-1,34
 440 620 440 620 396 620 c 2,25,-1
EndSplineSet
EndChar

StartChar: C
Encoding: 67 67 38
Width: 638
GlyphClass: 2
Flags: W
LayerCount: 2
Fore
SplineSet
663 660 m 1,0,-1
 636 490 l 1,1,-1
 578 490 l 1,2,-1
 566 600 l 1,3,4
 505 625 505 625 430 625 c 128,-1,5
 355 625 355 625 294 573 c 128,-1,6
 233 521 233 521 201.5 439 c 128,-1,7
 170 357 170 357 170 268.5 c 128,-1,8
 170 180 170 180 213.5 129 c 128,-1,9
 257 78 257 78 328 78 c 0,10,11
 444 78 444 78 550 156 c 1,12,-1
 586 97 l 1,13,14
 453 -10 453 -10 308 -10 c 0,15,16
 192 -10 192 -10 126 58.5 c 128,-1,17
 60 127 60 127 60 244 c 0,18,19
 60 448 60 448 171 579 c 128,-1,20
 282 710 282 710 452 710 c 0,21,22
 501 710 501 710 553.5 697.5 c 128,-1,23
 606 685 606 685 634 672 c 1,24,-1
 663 660 l 1,0,-1
EndSplineSet
EndChar

StartChar: D
Encoding: 68 68 39
Width: 723
GlyphClass: 2
Flags: W
LayerCount: 2
Fore
SplineSet
101 79 m 1,0,-1
 188 620 l 1,1,-1
 107 640 l 1,2,-1
 116 695 l 1,3,-1
 301 700 l 1,4,-1
 430 700 l 2,5,6
 542 700 542 700 610 637 c 128,-1,7
 678 574 678 574 678 465 c 0,8,9
 678 243 678 243 568.5 121.5 c 128,-1,10
 459 0 459 0 270 0 c 2,11,-1
 5 0 l 1,12,-1
 15 60 l 1,13,-1
 101 79 l 1,0,-1
289 620 m 1,14,-1
 203 80 l 1,15,-1
 285 80 l 2,16,17
 421 80 421 80 497 182 c 128,-1,18
 573 284 573 284 573 452 c 0,19,20
 573 532 573 532 533 576 c 128,-1,21
 493 620 493 620 415 620 c 2,22,-1
 289 620 l 1,14,-1
EndSplineSet
EndChar

StartChar: E
Encoding: 69 69 40
Width: 578
GlyphClass: 2
Flags: W
LayerCount: 2
Fore
SplineSet
103 80 m 1,0,-1
 189 620 l 1,1,-1
 107 640 l 1,2,-1
 116 695 l 1,3,-1
 302 700 l 1,4,-1
 603 700 l 1,5,-1
 576 530 l 1,6,-1
 520 530 l 1,7,-1
 510 620 l 1,8,-1
 289 620 l 1,9,-1
 254 405 l 1,10,-1
 482 405 l 1,11,-1
 470 325 l 1,12,-1
 242 325 l 1,13,-1
 203 80 l 1,14,-1
 430 80 l 1,15,-1
 467 182 l 1,16,-1
 533 182 l 1,17,-1
 502 0 l 1,18,-1
 5 0 l 1,19,-1
 15 60 l 1,20,-1
 103 80 l 1,0,-1
EndSplineSet
EndChar

StartChar: F
Encoding: 70 70 41
Width: 548
GlyphClass: 2
Flags: W
LayerCount: 2
Fore
SplineSet
289 620 m 1,0,-1
 252 395 l 1,1,-1
 481 395 l 1,2,-1
 469 315 l 1,3,-1
 241 315 l 1,4,-1
 203 80 l 1,5,-1
 301 60 l 1,6,-1
 291 0 l 1,7,-1
 5 0 l 1,8,-1
 15 60 l 1,9,-1
 103 80 l 1,10,-1
 190 620 l 1,11,-1
 107 640 l 1,12,-1
 116 695 l 1,13,-1
 302 700 l 1,14,-1
 603 700 l 1,15,-1
 576 530 l 1,16,-1
 520 530 l 1,17,-1
 510 620 l 1,18,-1
 289 620 l 1,0,-1
EndSplineSet
EndChar

StartChar: G
Encoding: 71 71 42
Width: 724
GlyphClass: 2
Flags: W
LayerCount: 2
Fore
SplineSet
592 50 m 1,0,1
 463 -10 463 -10 332 -10 c 128,-1,2
 201 -10 201 -10 130.5 59.5 c 128,-1,3
 60 129 60 129 60 244 c 0,4,5
 60 449 60 449 171 579.5 c 128,-1,6
 282 710 282 710 452 710 c 0,7,8
 501 710 501 710 553.5 697.5 c 128,-1,9
 606 685 606 685 634 672 c 1,10,-1
 663 660 l 1,11,-1
 636 499 l 1,12,-1
 578 499 l 1,13,-1
 566 603 l 1,14,15
 511 625 511 625 434.5 625 c 128,-1,16
 358 625 358 625 296 573 c 128,-1,17
 234 521 234 521 202 438.5 c 128,-1,18
 170 356 170 356 170 265.5 c 128,-1,19
 170 175 170 175 214.5 125.5 c 128,-1,20
 259 76 259 76 345 76 c 128,-1,21
 431 76 431 76 503 103 c 1,22,-1
 530 270 l 1,23,-1
 445 285 l 1,24,-1
 454 340 l 1,25,-1
 714 345 l 1,26,-1
 704 285 l 1,27,-1
 627 270 l 1,28,-1
 592 50 l 1,0,1
EndSplineSet
EndChar

StartChar: H
Encoding: 72 72 43
Width: 795
GlyphClass: 2
Flags: W
LayerCount: 2
Fore
SplineSet
427 0 m 1,0,-1
 437 60 l 1,1,-1
 531 79 l 1,2,-1
 570 320 l 1,3,-1
 244 320 l 1,4,-1
 206 80 l 1,5,-1
 293 60 l 1,6,-1
 283 0 l 1,7,-1
 10 0 l 1,8,-1
 20 60 l 1,9,-1
 106 79 l 1,10,-1
 193 620 l 1,11,-1
 111 640 l 1,12,-1
 120 695 l 1,13,-1
 395 700 l 1,14,-1
 385 640 l 1,15,-1
 293 620 l 1,16,-1
 257 400 l 1,17,-1
 583 400 l 1,18,-1
 618 620 l 1,19,-1
 527 640 l 1,20,-1
 536 695 l 1,21,-1
 815 700 l 1,22,-1
 805 640 l 1,23,-1
 718 620 l 1,24,-1
 631 80 l 1,25,-1
 715 60 l 1,26,-1
 705 0 l 1,27,-1
 427 0 l 1,0,-1
EndSplineSet
EndChar

StartChar: I
Encoding: 73 73 44
Width: 374
GlyphClass: 2
Flags: W
LayerCount: 2
Fore
SplineSet
110 80 m 1,0,-1
 196 620 l 1,1,-1
 112 640 l 1,2,-1
 121 695 l 1,3,-1
 394 700 l 1,4,-1
 384 640 l 1,5,-1
 296 620 l 1,6,-1
 209 80 l 1,7,-1
 293 60 l 1,8,-1
 283 0 l 1,9,-1
 10 0 l 1,10,-1
 20 60 l 1,11,-1
 110 80 l 1,0,-1
EndSplineSet
EndChar

StartChar: J
Encoding: 74 74 45
Width: 346
GlyphClass: 2
Flags: W
LayerCount: 2
Fore
SplineSet
89 25 m 2,0,-1
 184 620 l 1,1,-1
 99 640 l 1,2,-1
 108 695 l 1,3,-1
 381 700 l 1,4,-1
 371 640 l 1,5,-1
 284 620 l 1,6,-1
 192 45 l 2,7,8
 178 -46 178 -46 121 -98 c 128,-1,9
 64 -150 64 -150 -23 -150 c 1,10,-1
 -85 -145 l 1,11,-1
 -64 -70 l 1,12,-1
 -15 -70 l 2,13,14
 73 -70 73 -70 89 25 c 2,0,-1
EndSplineSet
EndChar

StartChar: K
Encoding: 75 75 46
Width: 645
GlyphClass: 2
Flags: W
LayerCount: 2
Fore
SplineSet
384 0 m 1,0,-1
 394 60 l 1,1,-1
 470 79 l 1,2,-1
 340 320 l 1,3,-1
 241 320 l 1,4,-1
 203 80 l 1,5,-1
 288 60 l 1,6,-1
 278 0 l 1,7,-1
 5 0 l 1,8,-1
 15 60 l 1,9,-1
 103 80 l 1,10,-1
 190 620 l 1,11,-1
 106 640 l 1,12,-1
 115 695 l 1,13,-1
 389 700 l 1,14,-1
 379 640 l 1,15,-1
 290 620 l 1,16,-1
 254 400 l 1,17,-1
 346 400 l 1,18,-1
 562 695 l 1,19,-1
 710 700 l 1,20,-1
 700 640 l 1,21,-1
 615 620 l 1,22,-1
 426 367 l 1,23,-1
 583 80 l 1,24,-1
 654 60 l 1,25,-1
 644 0 l 1,26,-1
 384 0 l 1,0,-1
EndSplineSet
EndChar

StartChar: L
Encoding: 76 76 47
Width: 537
GlyphClass: 2
Flags: W
LayerCount: 2
Fore
SplineSet
489 0 m 1,0,-1
 10 0 l 1,1,-1
 20 60 l 1,2,-1
 109 80 l 1,3,-1
 195 620 l 1,4,-1
 112 640 l 1,5,-1
 120 695 l 1,6,-1
 399 700 l 1,7,-1
 389 640 l 1,8,-1
 295 620 l 1,9,-1
 209 80 l 1,10,-1
 415 80 l 1,11,-1
 454 195 l 1,12,-1
 522 195 l 1,13,-1
 489 0 l 1,0,-1
EndSplineSet
EndChar

StartChar: M
Encoding: 77 77 48
Width: 880
GlyphClass: 2
Flags: W
LayerCount: 2
Fore
SplineSet
805 60 m 1,0,-1
 795 0 l 1,1,-1
 532 0 l 1,2,-1
 542 60 l 1,3,-1
 626 80 l 1,4,-1
 702 556 l 1,5,-1
 468 180 l 1,6,-1
 386 175 l 1,7,-1
 273 560 l 1,8,-1
 196 80 l 1,9,-1
 284 60 l 1,10,-1
 274 0 l 1,11,-1
 5 0 l 1,12,-1
 15 60 l 1,13,-1
 103 80 l 1,14,-1
 190 620 l 1,15,-1
 107 640 l 1,16,-1
 116 695 l 1,17,-1
 333 700 l 1,18,-1
 452 299 l 1,19,-1
 696 695 l 1,20,-1
 905 700 l 1,21,-1
 895 640 l 1,22,-1
 810 620 l 1,23,-1
 725 80 l 1,24,-1
 805 60 l 1,0,-1
EndSplineSet
EndChar

StartChar: N
Encoding: 78 78 49
Width: 786
GlyphClass: 2
Flags: W
LayerCount: 2
Fore
SplineSet
117 695 m 1,0,-1
 327 700 l 1,1,-1
 561 141 l 1,2,-1
 637 620 l 1,3,-1
 557 640 l 1,4,-1
 566 695 l 1,5,-1
 821 700 l 1,6,-1
 811 640 l 1,7,-1
 726 620 l 1,8,-1
 628 0 l 1,9,-1
 515 0 l 1,10,-1
 271 563 l 1,11,-1
 194 80 l 1,12,-1
 276 60 l 1,13,-1
 265 0 l 1,14,-1
 5 0 l 1,15,-1
 16 60 l 1,16,-1
 105 80 l 1,17,-1
 191 620 l 1,18,-1
 108 640 l 1,19,-1
 117 695 l 1,0,-1
EndSplineSet
EndChar

StartChar: O
Encoding: 79 79 50
Width: 740
GlyphClass: 2
Flags: W
LayerCount: 2
Fore
SplineSet
301 -10 m 0,0,1
 189 -10 189 -10 124.5 55.5 c 128,-1,2
 60 121 60 121 60 234 c 0,3,4
 60 444 60 444 171.5 577 c 128,-1,5
 283 710 283 710 452 710 c 0,6,7
 571 710 571 710 638 642.5 c 128,-1,8
 705 575 705 575 705 465 c 0,9,10
 705 250 705 250 590.5 120 c 128,-1,11
 476 -10 476 -10 301 -10 c 0,0,1
595 452 m 0,12,13
 595 540 595 540 552.5 582.5 c 128,-1,14
 510 625 510 625 435 625 c 0,15,16
 318 625 318 625 244 513.5 c 128,-1,17
 170 402 170 402 170 244 c 0,18,19
 170 161 170 161 210.5 118 c 128,-1,20
 251 75 251 75 323 75 c 0,21,22
 442 75 442 75 518.5 182.5 c 128,-1,23
 595 290 595 290 595 452 c 0,12,13
EndSplineSet
EndChar

StartChar: P
Encoding: 80 80 51
Width: 577
GlyphClass: 2
Flags: W
LayerCount: 2
Fore
SplineSet
116 695 m 1,0,-1
 301 700 l 1,1,-1
 406 700 l 2,2,3
 486 700 486 700 544 662.5 c 128,-1,4
 602 625 602 625 602 543 c 128,-1,5
 602 461 602 461 574.5 404 c 128,-1,6
 547 347 547 347 500 317 c 0,7,8
 411 260 411 260 297 260 c 2,9,-1
 231 260 l 1,10,-1
 202 79 l 1,11,-1
 288 60 l 1,12,-1
 278 0 l 1,13,-1
 5 0 l 1,14,-1
 15 60 l 1,15,-1
 102 80 l 1,16,-1
 188 620 l 1,17,-1
 107 640 l 1,18,-1
 116 695 l 1,0,-1
288 620 m 1,19,-1
 243 340 l 1,20,-1
 310 340 l 2,21,22
 410 340 410 340 453.5 390.5 c 128,-1,23
 497 441 497 441 497 519 c 0,24,25
 497 579 497 579 457 601 c 0,26,27
 423 620 423 620 388 620 c 2,28,-1
 288 620 l 1,19,-1
EndSplineSet
EndChar

StartChar: Q
Encoding: 81 81 52
Width: 741
GlyphClass: 2
Flags: W
LayerCount: 2
Fore
SplineSet
414 7 m 1,0,-1
 504 -62 l 2,1,2
 553 -100 553 -100 598 -100 c 0,3,4
 627 -100 627 -100 680 -74 c 1,5,-1
 697 -65 l 1,6,-1
 726 -125 l 1,7,8
 619 -182 619 -182 570.5 -182 c 128,-1,9
 522 -182 522 -182 445 -129 c 2,10,-1
 269 -9 l 1,11,12
 169 -1 169 -1 112 63.5 c 128,-1,13
 55 128 55 128 55 234 c 0,14,15
 55 444 55 444 166.5 577 c 128,-1,16
 278 710 278 710 447 710 c 0,17,18
 566 710 566 710 633 645 c 128,-1,19
 700 580 700 580 700 475 c 0,20,21
 700 294 700 294 622 171 c 128,-1,22
 544 48 544 48 414 7 c 1,0,-1
514 184 m 128,-1,24
 590 293 590 293 590 459 c 128,-1,25
 590 625 590 625 430 625 c 0,26,27
 313 625 313 625 239 513.5 c 128,-1,28
 165 402 165 402 165 244 c 0,29,30
 165 161 165 161 205.5 118 c 128,-1,31
 246 75 246 75 318 75 c 0,32,23
 438 75 438 75 514 184 c 128,-1,24
EndSplineSet
EndChar

StartChar: R
Encoding: 82 82 53
Width: 635
GlyphClass: 2
Flags: W
LayerCount: 2
Fore
SplineSet
451 0 m 1,0,-1
 395 185 l 2,1,2
 373 258 373 258 346.5 281.5 c 128,-1,3
 320 305 320 305 268 305 c 2,4,-1
 239 305 l 1,5,-1
 204 80 l 1,6,-1
 290 60 l 1,7,-1
 280 0 l 1,8,-1
 5 0 l 1,9,-1
 15 60 l 1,10,-1
 103 80 l 1,11,-1
 189 620 l 1,12,-1
 108 640 l 1,13,-1
 116 695 l 1,14,-1
 302 700 l 1,15,-1
 410 700 l 2,16,17
 492 700 492 700 548.5 661 c 128,-1,18
 605 622 605 622 605 542 c 128,-1,19
 605 462 605 462 557 404.5 c 128,-1,20
 509 347 509 347 430 322 c 1,21,22
 460 297 460 297 489 210 c 2,23,-1
 533 80 l 1,24,-1
 605 60 l 1,25,-1
 595 0 l 1,26,-1
 451 0 l 1,0,-1
392 620 m 2,27,-1
 289 620 l 1,28,-1
 251 380 l 1,29,-1
 325 380 l 2,30,31
 403 380 403 380 451.5 419.5 c 128,-1,32
 500 459 500 459 500 530 c 0,33,34
 500 620 500 620 392 620 c 2,27,-1
EndSplineSet
EndChar

StartChar: S
Encoding: 83 83 54
Width: 592
GlyphClass: 2
Flags: W
LayerCount: 2
Fore
SplineSet
134 205 m 1,0,-1
 137 96 l 1,1,2
 183 75 183 75 242.5 75 c 128,-1,3
 302 75 302 75 351 108 c 128,-1,4
 400 141 400 141 400 196 c 0,5,6
 400 246 400 246 344 276 c 0,7,8
 319 290 319 290 289 302 c 128,-1,9
 259 314 259 314 229 329 c 128,-1,10
 199 344 199 344 174 363 c 0,11,12
 118 406 118 406 118 485 c 0,13,14
 118 595 118 595 195 652.5 c 128,-1,15
 272 710 272 710 378 710 c 0,16,17
 416 710 416 710 462 700 c 128,-1,18
 508 690 508 690 535 680 c 2,19,-1
 562 670 l 1,20,-1
 530 500 l 1,21,-1
 474 500 l 1,22,-1
 460 607 l 1,23,24
 409 625 409 625 354.5 625 c 128,-1,25
 300 625 300 625 262.5 594.5 c 128,-1,26
 225 564 225 564 225 524 c 128,-1,27
 225 484 225 484 254 459 c 128,-1,28
 283 434 283 434 324.5 417.5 c 128,-1,29
 366 401 366 401 407.5 382 c 128,-1,30
 449 363 449 363 478 327 c 128,-1,31
 507 291 507 291 507 239 c 0,32,33
 507 160 507 160 466 102 c 0,34,35
 386 -10 386 -10 227 -10 c 0,36,37
 183 -10 183 -10 136.5 0 c 128,-1,38
 90 10 90 10 65 20 c 2,39,-1
 40 30 l 1,40,-1
 68 205 l 1,41,-1
 134 205 l 1,0,-1
EndSplineSet
EndChar

StartChar: T
Encoding: 84 84 55
Width: 538
GlyphClass: 2
Flags: W
LayerCount: 2
Fore
SplineSet
65 700 m 1,0,-1
 603 700 l 1,1,-1
 574 520 l 1,2,-1
 510 520 l 1,3,-1
 500 620 l 1,4,-1
 371 620 l 1,5,-1
 285 80 l 1,6,-1
 381 60 l 1,7,-1
 371 0 l 1,8,-1
 72 0 l 1,9,-1
 82 60 l 1,10,-1
 185 80 l 1,11,-1
 271 620 l 1,12,-1
 141 620 l 1,13,-1
 100 520 l 1,14,-1
 35 520 l 1,15,-1
 65 700 l 1,0,-1
EndSplineSet
EndChar

StartChar: U
Encoding: 85 85 56
Width: 735
GlyphClass: 2
Flags: W
LayerCount: 2
Fore
SplineSet
686 620 m 1,0,-1
 634 295 l 2,1,2
 611 146 611 146 537.5 68 c 128,-1,3
 464 -10 464 -10 317 -10 c 0,4,5
 199 -10 199 -10 148 42.5 c 128,-1,6
 97 95 97 95 97 190 c 0,7,8
 97 221 97 221 104 270 c 2,9,-1
 160 620 l 1,10,-1
 75 640 l 1,11,-1
 84 695 l 1,12,-1
 358 700 l 1,13,-1
 348 640 l 1,14,-1
 261 620 l 1,15,-1
 205 270 l 2,16,17
 199 234 199 234 199 201 c 0,18,19
 199 140 199 140 229.5 107.5 c 128,-1,20
 260 75 260 75 342.5 75 c 128,-1,21
 425 75 425 75 469 123 c 128,-1,22
 513 171 513 171 531 285 c 2,23,-1
 585 620 l 1,24,-1
 495 640 l 1,25,-1
 504 695 l 1,26,-1
 780 700 l 1,27,-1
 770 640 l 1,28,-1
 686 620 l 1,0,-1
EndSplineSet
EndChar

StartChar: V
Encoding: 86 86 57
Width: 672
GlyphClass: 2
Flags: W
LayerCount: 2
Fore
SplineSet
251 0 m 1,0,-1
 130 620 l 1,1,-1
 45 640 l 1,2,-1
 54 695 l 1,3,-1
 231 700 l 1,4,-1
 327 145 l 1,5,-1
 544 620 l 1,6,-1
 464 640 l 1,7,-1
 474 695 l 1,8,-1
 742 700 l 1,9,-1
 732 640 l 1,10,-1
 650 620 l 1,11,-1
 346 0 l 1,12,-1
 251 0 l 1,0,-1
EndSplineSet
EndChar

StartChar: W
Encoding: 87 87 58
Width: 982
GlyphClass: 2
Flags: W
LayerCount: 2
Fore
SplineSet
239 0 m 1,0,-1
 129 620 l 1,1,-1
 45 640 l 1,2,-1
 54 695 l 1,3,-1
 231 700 l 1,4,-1
 231 699 l 1,5,-1
 232 700 l 1,6,-1
 307 185 l 1,7,-1
 529 695 l 1,8,-1
 592 700 l 1,9,-1
 672 178 l 1,10,-1
 860 620 l 1,11,-1
 774 640 l 1,12,-1
 784 695 l 1,13,-1
 1052 700 l 1,14,-1
 1042 640 l 1,15,-1
 965 621 l 1,16,-1
 678 0 l 1,17,-1
 615 0 l 1,18,-1
 528 485 l 1,19,-1
 486 383 l 1,20,-1
 304 0 l 1,21,-1
 239 0 l 1,0,-1
EndSplineSet
EndChar

StartChar: X
Encoding: 88 88 59
Width: 626
GlyphClass: 2
Flags: W
LayerCount: 2
Fore
SplineSet
608 60 m 1,0,-1
 598 0 l 1,1,-1
 331 0 l 1,2,-1
 341 60 l 1,3,-1
 405 73 l 1,4,-1
 311 275 l 1,5,-1
 157 78 l 1,6,-1
 220 60 l 1,7,-1
 210 0 l 1,8,-1
 -55 0 l 1,9,-1
 -45 60 l 1,10,-1
 48 79 l 1,11,-1
 261 351 l 1,12,-1
 128 621 l 1,13,-1
 44 640 l 1,14,-1
 54 695 l 1,15,-1
 321 700 l 1,16,-1
 311 640 l 1,17,-1
 248 624 l 1,18,-1
 335 437 l 1,19,-1
 484 626 l 1,20,-1
 431 640 l 1,21,-1
 441 695 l 1,22,-1
 706 700 l 1,23,-1
 696 640 l 1,24,-1
 589 618 l 1,25,-1
 383 362 l 1,26,-1
 521 80 l 1,27,-1
 608 60 l 1,0,-1
EndSplineSet
EndChar

StartChar: Y
Encoding: 89 89 60
Width: 609
GlyphClass: 2
Flags: W
LayerCount: 2
Fore
SplineSet
210 80 m 1,0,-1
 238 262 l 1,1,-1
 134 620 l 1,2,-1
 40 640 l 1,3,-1
 49 695 l 1,4,-1
 214 700 l 1,5,-1
 314 334 l 1,6,-1
 482 621 l 1,7,-1
 407 640 l 1,8,-1
 417 695 l 1,9,-1
 674 700 l 1,10,-1
 664 640 l 1,11,-1
 581 620 l 1,12,-1
 334 231 l 1,13,-1
 310 80 l 1,14,-1
 393 60 l 1,15,-1
 383 0 l 1,16,-1
 110 0 l 1,17,-1
 120 60 l 1,18,-1
 210 80 l 1,0,-1
EndSplineSet
EndChar

StartChar: Z
Encoding: 90 90 61
Width: 619
GlyphClass: 2
Flags: W
LayerCount: 2
Fore
SplineSet
130 700 m 1,0,-1
 599 700 l 1,1,-1
 594 634 l 1,2,-1
 175 80 l 1,3,-1
 443 80 l 1,4,-1
 479 182 l 1,5,-1
 545 182 l 1,6,-1
 516 0 l 1,7,-1
 45 0 l 1,8,-1
 50 70 l 1,9,-1
 466 619 l 1,10,-1
 202 619 l 1,11,-1
 162 530 l 1,12,-1
 106 530 l 1,13,-1
 130 700 l 1,0,-1
EndSplineSet
EndChar

StartChar: bracketleft
Encoding: 91 91 62
Width: 345
GlyphClass: 2
Flags: W
LayerCount: 2
Fore
SplineSet
246 -160 m 1,0,-1
 236 -225 l 1,1,-1
 22 -230 l 1,2,-1
 181 770 l 1,3,-1
 391 765 l 1,4,-1
 381 700 l 1,5,-1
 261 689 l 1,6,-1
 128 -149 l 1,7,-1
 246 -160 l 1,0,-1
EndSplineSet
EndChar

StartChar: backslash
Encoding: 92 92 63
Width: 506
GlyphClass: 2
Flags: W
LayerCount: 2
Fore
SplineSet
178 700 m 1,0,-1
 392 0 l 1,1,-1
 303 0 l 1,2,-1
 89 700 l 1,3,-1
 178 700 l 1,0,-1
EndSplineSet
EndChar

StartChar: bracketright
Encoding: 93 93 64
Width: 345
GlyphClass: 2
Flags: W
LayerCount: 2
Fore
SplineSet
109 700 m 1,0,-1
 120 765 l 1,1,-1
 333 770 l 1,2,-1
 174 -230 l 1,3,-1
 -36 -225 l 1,4,-1
 -27 -160 l 1,5,-1
 94 -149 l 1,6,-1
 227 689 l 1,7,-1
 109 700 l 1,0,-1
EndSplineSet
EndChar

StartChar: asciicircum
Encoding: 94 94 65
Width: 570
GlyphClass: 2
Flags: W
LayerCount: 2
Fore
SplineSet
298 600 m 1,0,-1
 119 320 l 1,1,-1
 33 320 l 1,2,-1
 281 700 l 1,3,-1
 349 700 l 1,4,-1
 474 320 l 1,5,-1
 391 320 l 1,6,-1
 298 600 l 1,0,-1
EndSplineSet
EndChar

StartChar: underscore
Encoding: 95 95 66
Width: 500
GlyphClass: 2
Flags: W
LayerCount: 2
Fore
SplineSet
0 -150 m 1,0,-1
 0 -80 l 1,1,-1
 500 -80 l 1,2,-1
 500 -150 l 1,3,-1
 0 -150 l 1,0,-1
EndSplineSet
EndChar

StartChar: grave
Encoding: 96 96 67
Width: 249
GlyphClass: 2
Flags: W
LayerCount: 2
Fore
SplineSet
218 603 m 1,0,-1
 0 728 l 1,1,-1
 43 803 l 1,2,-1
 249 656 l 1,3,-1
 218 603 l 1,0,-1
EndSplineSet
EndChar

StartChar: a
Encoding: 97 97 68
Width: 590
GlyphClass: 2
Flags: W
LayerCount: 2
Fore
SplineSet
468 80 m 1,0,-1
 555 65 l 1,1,-1
 546 10 l 1,2,-1
 360 0 l 1,3,-1
 400 184 l 1,4,5
 360 104 360 104 310 54 c 0,6,7
 286 30 286 30 249.5 10 c 128,-1,8
 213 -10 213 -10 176 -10 c 0,9,10
 120 -10 120 -10 82.5 40 c 128,-1,11
 45 90 45 90 45 165 c 0,12,13
 45 339 45 339 133.5 439.5 c 128,-1,14
 222 540 222 540 343 540 c 0,15,16
 372 540 372 540 400 532.5 c 128,-1,17
 428 525 428 525 442 518 c 1,18,-1
 455 510 l 1,19,-1
 485 530 l 1,20,-1
 540 530 l 1,21,-1
 468 80 l 1,0,-1
413 345 m 1,22,-1
 433 450 l 1,23,24
 395 465 395 465 343 465 c 0,25,26
 263 465 263 465 204 392.5 c 128,-1,27
 145 320 145 320 145 180 c 0,28,29
 145 129 145 129 162 102 c 128,-1,30
 179 75 179 75 209.5 75 c 128,-1,31
 240 75 240 75 273.5 103 c 128,-1,32
 307 131 307 131 331 170 c 0,33,34
 383 255 383 255 404 317 c 1,35,-1
 413 345 l 1,22,-1
EndSplineSet
EndChar

StartChar: b
Encoding: 98 98 69
Width: 591
GlyphClass: 2
Flags: W
LayerCount: 2
Fore
SplineSet
271 770 m 1,0,-1
 232 530 l 1,1,-1
 192 346 l 1,2,3
 202 373 202 373 226.5 411.5 c 128,-1,4
 251 450 251 450 275 475.5 c 128,-1,5
 299 501 299 501 335.5 520.5 c 128,-1,6
 372 540 372 540 411 540 c 0,7,8
 475 540 475 540 510 488 c 128,-1,9
 545 436 545 436 545 360 c 0,10,11
 545 195 545 195 453 92.5 c 128,-1,12
 361 -10 361 -10 236 -10 c 0,13,14
 151 -10 151 -10 79 12 c 1,15,-1
 55 20 l 1,16,-1
 162 690 l 1,17,-1
 79 710 l 1,18,-1
 88 765 l 1,19,-1
 271 770 l 1,0,-1
183 185 m 1,20,-1
 162 80 l 1,21,22
 201 65 201 65 246 65 c 0,23,24
 320 65 320 65 382.5 139 c 128,-1,25
 445 213 445 213 445 345 c 0,26,27
 445 392 445 392 428 423.5 c 128,-1,28
 411 455 411 455 376.5 455 c 128,-1,29
 342 455 342 455 309.5 427 c 128,-1,30
 277 399 277 399 255 360 c 0,31,32
 210 278 210 278 191 213 c 2,33,-1
 183 185 l 1,20,-1
EndSplineSet
EndChar

StartChar: c
Encoding: 99 99 70
Width: 465
GlyphClass: 2
Flags: W
LayerCount: 2
Fore
SplineSet
383 365 m 1,0,-1
 380 450 l 1,1,2
 356 460 356 460 315 460 c 0,3,4
 233 460 233 460 184 377.5 c 128,-1,5
 135 295 135 295 135 182.5 c 128,-1,6
 135 70 135 70 230 70 c 0,7,8
 261 70 261 70 298.5 81 c 128,-1,9
 336 92 336 92 358 104 c 2,10,-1
 380 115 l 1,11,-1
 410 65 l 1,12,13
 399 57 399 57 379.5 44.5 c 128,-1,14
 360 32 360 32 307 11 c 128,-1,15
 254 -10 254 -10 210 -10 c 0,16,17
 132 -10 132 -10 83.5 39 c 128,-1,18
 35 88 35 88 35 175 c 0,19,20
 35 338 35 338 118 439 c 128,-1,21
 201 540 201 540 330 540 c 0,22,23
 366 540 366 540 401 530 c 128,-1,24
 436 520 436 520 453 510 c 2,25,-1
 470 500 l 1,26,-1
 448 365 l 1,27,-1
 383 365 l 1,0,-1
EndSplineSet
EndChar

StartChar: d
Encoding: 100 100 71
Width: 594
GlyphClass: 2
Flags: W
LayerCount: 2
Fore
SplineSet
472 80 m 1,0,-1
 558 65 l 1,1,-1
 549 10 l 1,2,-1
 366 0 l 1,3,-1
 410 184 l 1,4,5
 379 114 379 114 322 54 c 0,6,7
 297 29 297 29 260.5 9.5 c 128,-1,8
 224 -10 224 -10 187 -10 c 0,9,10
 129 -10 129 -10 92 39.5 c 128,-1,11
 55 89 55 89 55 165 c 0,12,13
 55 338 55 338 142.5 439 c 128,-1,14
 230 540 230 540 351 540 c 0,15,16
 405 540 405 540 447 518 c 1,17,-1
 475 690 l 1,18,-1
 390 710 l 1,19,-1
 399 765 l 1,20,-1
 584 770 l 1,21,-1
 472 80 l 1,0,-1
420 345 m 1,22,-1
 436 450 l 1,23,24
 401 465 401 465 351 465 c 0,25,26
 265 465 265 465 210 385.5 c 128,-1,27
 155 306 155 306 155 185 c 0,28,29
 155 132 155 132 171.5 103.5 c 128,-1,30
 188 75 188 75 219.5 75 c 128,-1,31
 251 75 251 75 284 103 c 128,-1,32
 317 131 317 131 340 170 c 0,33,34
 388 250 388 250 410 317 c 1,35,-1
 420 345 l 1,22,-1
EndSplineSet
EndChar

StartChar: e
Encoding: 101 101 72
Width: 504
GlyphClass: 2
Flags: W
LayerCount: 2
Fore
SplineSet
484 410 m 0,0,1
 484 324 484 324 386.5 270.5 c 128,-1,2
 289 217 289 217 133 217 c 1,3,4
 130 195 130 195 130 174 c 0,5,6
 130 70 130 70 240 70 c 0,7,8
 272 70 272 70 313 81 c 128,-1,9
 354 92 354 92 379 104 c 2,10,-1
 404 115 l 1,11,-1
 434 64 l 1,12,13
 422 56 422 56 401 43.5 c 128,-1,14
 380 31 380 31 321 10.5 c 128,-1,15
 262 -10 262 -10 210 -10 c 0,16,17
 128 -10 128 -10 79 38 c 128,-1,18
 30 86 30 86 30 165 c 0,19,20
 30 323 30 323 114.5 431.5 c 128,-1,21
 199 540 199 540 319 540 c 0,22,23
 395 540 395 540 439.5 504.5 c 128,-1,24
 484 469 484 469 484 410 c 0,0,1
142 287 m 1,25,26
 249 287 249 287 319 319 c 128,-1,27
 389 351 389 351 389 400 c 0,28,29
 389 465 389 465 314 465 c 0,30,31
 259 465 259 465 210 415 c 128,-1,32
 161 365 161 365 142 287 c 1,25,26
EndSplineSet
EndChar

StartChar: f
Encoding: 102 102 73
Width: 354
GlyphClass: 2
Flags: W
LayerCount: 2
Fore
SplineSet
423 700 m 1,0,-1
 374 700 l 2,1,2
 325 700 325 700 303.5 675.5 c 128,-1,3
 282 651 282 651 274 605 c 2,4,-1
 261 525 l 1,5,-1
 402 525 l 1,6,-1
 389 450 l 1,7,-1
 249 450 l 1,8,-1
 174 -20 l 2,9,10
 139 -240 139 -240 -31 -240 c 0,11,12
 -66 -240 -66 -240 -101 -230 c 1,13,-1
 -114 -227 l 1,14,-1
 -97 -163 l 1,15,-1
 -26 -163 l 2,16,17
 56 -163 56 -163 76 -40 c 2,18,-1
 153 450 l 1,19,-1
 59 450 l 1,20,-1
 69 515 l 1,21,-1
 165 525 l 1,22,-1
 175 585 l 1,23,24
 206 780 206 780 374 780 c 0,25,26
 436 780 436 780 494 765 c 2,27,-1
 514 760 l 1,28,-1
 488 620 l 1,29,-1
 423 620 l 1,30,-1
 423 700 l 1,0,-1
EndSplineSet
EndChar

StartChar: g
Encoding: 103 103 74
Width: 559
GlyphClass: 2
Flags: W
LayerCount: 2
Fore
SplineSet
529 530 m 1,0,-1
 440 -24 l 2,1,2
 423 -131 423 -131 362 -188 c 128,-1,3
 301 -245 301 -245 204 -245 c 0,4,5
 165 -245 165 -245 119 -234.5 c 128,-1,6
 73 -224 73 -224 46 -214 c 2,7,-1
 20 -204 l 1,8,-1
 44 -132 l 1,9,10
 131 -163 131 -163 194 -163 c 0,11,12
 317 -163 317 -163 345 -30 c 2,13,-1
 390 184 l 1,14,15
 349 103 349 103 299 54 c 0,16,17
 275 30 275 30 238 10 c 128,-1,18
 201 -10 201 -10 164 -10 c 0,19,20
 108 -10 108 -10 71.5 39.5 c 128,-1,21
 35 89 35 89 35 165 c 0,22,23
 35 339 35 339 123 439.5 c 128,-1,24
 211 540 211 540 331 540 c 0,25,26
 361 540 361 540 389.5 532.5 c 128,-1,27
 418 525 418 525 431 518 c 2,28,-1
 444 510 l 1,29,-1
 474 530 l 1,30,-1
 529 530 l 1,0,-1
402 345 m 1,31,-1
 421 450 l 1,32,33
 385 465 385 465 331 465 c 0,34,35
 252 465 252 465 193.5 392.5 c 128,-1,36
 135 320 135 320 135 182 c 0,37,38
 135 129 135 129 151.5 102 c 128,-1,39
 168 75 168 75 199 75 c 128,-1,40
 230 75 230 75 263.5 103 c 128,-1,41
 297 131 297 131 321 170 c 0,42,43
 370 252 370 252 392 317 c 1,44,-1
 402 345 l 1,31,-1
EndSplineSet
EndChar

StartChar: h
Encoding: 104 104 75
Width: 625
GlyphClass: 2
Flags: W
LayerCount: 2
Fore
SplineSet
273 770 m 1,0,-1
 196 336 l 1,1,2
 204 361 204 361 231.5 403 c 128,-1,3
 259 445 259 445 284.5 472 c 128,-1,4
 310 499 310 499 349.5 519.5 c 128,-1,5
 389 540 389 540 432 540 c 0,6,7
 541 540 541 540 541 419 c 0,8,9
 541 395 541 395 536 360 c 2,10,-1
 491 80 l 1,11,-1
 575 65 l 1,12,-1
 566 10 l 1,13,-1
 383 0 l 1,14,-1
 440 345 l 2,15,16
 444 375 444 375 444 389 c 0,17,18
 444 455 444 455 392 455 c 0,19,20
 356 455 356 455 321 426.5 c 128,-1,21
 286 398 286 398 262 358 c 0,22,23
 214 278 214 278 192 208 c 2,24,-1
 183 180 l 1,25,-1
 150 0 l 1,26,-1
 55 0 l 1,27,-1
 165 690 l 1,28,-1
 81 710 l 1,29,-1
 90 765 l 1,30,-1
 273 770 l 1,0,-1
EndSplineSet
EndChar

StartChar: i
Encoding: 105 105 76
Width: 323
GlyphClass: 2
Flags: W
LayerCount: 2
Fore
SplineSet
68 0 m 1,0,-1
 140 450 l 1,1,-1
 55 470 l 1,2,-1
 65 525 l 1,3,-1
 248 530 l 1,4,-1
 176 80 l 1,5,-1
 261 65 l 1,6,-1
 252 10 l 1,7,-1
 68 0 l 1,0,-1
259.5 651 m 128,-1,9
 241 625 241 625 212 625 c 128,-1,10
 183 625 183 625 168 638.5 c 128,-1,11
 153 652 153 652 153 682.5 c 128,-1,12
 153 713 153 713 171.5 739 c 128,-1,13
 190 765 190 765 219 765 c 128,-1,14
 248 765 248 765 263 751.5 c 128,-1,15
 278 738 278 738 278 707.5 c 128,-1,8
 278 677 278 677 259.5 651 c 128,-1,9
EndSplineSet
EndChar

StartChar: j
Encoding: 106 106 77
Width: 298
GlyphClass: 2
Flags: W
LayerCount: 2
Fore
SplineSet
52 -35 m 2,0,-1
 130 450 l 1,1,-1
 44 470 l 1,2,-1
 54 525 l 1,3,-1
 239 530 l 1,4,-1
 145 -45 l 2,5,6
 130 -137 130 -137 78 -188.5 c 128,-1,7
 26 -240 26 -240 -60 -240 c 0,8,9
 -93 -240 -93 -240 -129 -228 c 1,10,-1
 -140 -225 l 1,11,-1
 -120 -160 l 1,12,13
 -95 -165 -95 -165 -51.5 -165 c 128,-1,14
 -8 -165 -8 -165 16 -135 c 128,-1,15
 40 -105 40 -105 52 -35 c 2,0,-1
249.5 651 m 128,-1,17
 231 625 231 625 202 625 c 128,-1,18
 173 625 173 625 158 638.5 c 128,-1,19
 143 652 143 652 143 682.5 c 128,-1,20
 143 713 143 713 161.5 739 c 128,-1,21
 180 765 180 765 209 765 c 128,-1,22
 238 765 238 765 253 751.5 c 128,-1,23
 268 738 268 738 268 707.5 c 128,-1,16
 268 677 268 677 249.5 651 c 128,-1,17
EndSplineSet
EndChar

StartChar: k
Encoding: 107 107 78
Width: 528
GlyphClass: 2
Flags: W
LayerCount: 2
Fore
SplineSet
273 770 m 1,0,-1
 201 325 l 1,1,-1
 275 326 l 1,2,-1
 383 459 l 1,3,-1
 340 470 l 1,4,-1
 348 525 l 1,5,-1
 563 530 l 1,6,-1
 553 470 l 1,7,-1
 478 457 l 1,8,-1
 340 295 l 1,9,10
 360 278 360 278 393 203 c 2,11,-1
 446 80 l 1,12,-1
 533 55 l 1,13,-1
 523 0 l 1,14,-1
 376 0 l 1,15,-1
 308 166 l 2,16,17
 286 219 286 219 272 237 c 128,-1,18
 258 255 258 255 229 255 c 2,19,-1
 190 255 l 1,20,-1
 150 0 l 1,21,-1
 55 0 l 1,22,-1
 166 690 l 1,23,-1
 81 710 l 1,24,-1
 90 765 l 1,25,-1
 273 770 l 1,0,-1
EndSplineSet
EndChar

StartChar: l
Encoding: 108 108 79
Width: 320
GlyphClass: 2
Flags: W
LayerCount: 2
Fore
SplineSet
55 0 m 1,0,-1
 165 690 l 1,1,-1
 81 710 l 1,2,-1
 90 765 l 1,3,-1
 275 770 l 1,4,-1
 165 80 l 1,5,-1
 251 65 l 1,6,-1
 242 10 l 1,7,-1
 55 0 l 1,0,-1
EndSplineSet
EndChar

StartChar: m
Encoding: 109 109 80
Width: 944
GlyphClass: 2
Flags: W
LayerCount: 2
Fore
SplineSet
508 173 m 1,0,-1
 481 0 l 1,1,-1
 386 0 l 1,2,-1
 442 345 l 2,3,4
 446 375 446 375 446 389 c 0,5,6
 446 455 446 455 394 455 c 0,7,8
 359 455 359 455 325 426.5 c 128,-1,9
 291 398 291 398 268 358 c 0,10,11
 218 272 218 272 200 208 c 1,12,-1
 191 180 l 1,13,-1
 162 0 l 1,14,-1
 67 0 l 1,15,-1
 139 450 l 1,16,-1
 55 470 l 1,17,-1
 64 525 l 1,18,-1
 246 530 l 1,19,-1
 203 336 l 1,20,21
 236 418 236 418 288 472 c 0,22,23
 313 498 313 498 352 519 c 128,-1,24
 391 540 391 540 434 540 c 0,25,26
 541 540 541 540 541 418 c 0,27,28
 541 393 541 393 536 356 c 1,29,30
 560 414 560 414 606 470 c 0,31,32
 633 502 633 502 671.5 521 c 128,-1,33
 710 540 710 540 754 540 c 0,34,35
 864 540 864 540 864 417 c 0,36,37
 864 393 864 393 859 360 c 2,38,-1
 813 80 l 1,39,-1
 898 65 l 1,40,-1
 889 10 l 1,41,-1
 705 0 l 1,42,-1
 762 345 l 2,43,44
 766 375 766 375 766 388 c 0,45,46
 766 455 766 455 714 455 c 0,47,48
 678 455 678 455 643.5 426 c 128,-1,49
 609 397 609 397 586 356 c 0,50,51
 539 274 539 274 517 202 c 2,52,-1
 508 173 l 1,0,-1
EndSplineSet
EndChar

StartChar: n
Encoding: 110 110 81
Width: 640
GlyphClass: 2
Flags: W
LayerCount: 2
Fore
SplineSet
397 0 m 1,0,-1
 453 345 l 2,1,2
 457 375 457 375 457 389 c 0,3,4
 457 455 457 455 405 455 c 0,5,6
 369 455 369 455 333.5 426.5 c 128,-1,7
 298 398 298 398 274 358 c 0,8,9
 223 275 223 275 200 208 c 1,10,-1
 191 180 l 1,11,-1
 162 0 l 1,12,-1
 67 0 l 1,13,-1
 139 450 l 1,14,-1
 55 470 l 1,15,-1
 64 525 l 1,16,-1
 247 530 l 1,17,-1
 202 336 l 1,18,19
 217 369 217 369 243.5 408 c 128,-1,20
 270 447 270 447 295.5 472.5 c 128,-1,21
 321 498 321 498 361.5 519 c 128,-1,22
 402 540 402 540 445 540 c 0,23,24
 556 540 556 540 556 417 c 0,25,26
 556 393 556 393 551 360 c 2,27,-1
 505 80 l 1,28,-1
 590 65 l 1,29,-1
 581 10 l 1,30,-1
 397 0 l 1,0,-1
EndSplineSet
EndChar

StartChar: o
Encoding: 111 111 82
Width: 570
GlyphClass: 2
Flags: W
LayerCount: 2
Fore
SplineSet
220 -10 m 0,0,1
 138 -10 138 -10 89 42 c 128,-1,2
 40 94 40 94 40 180 c 0,3,4
 40 340 40 340 124 440 c 128,-1,5
 208 540 208 540 340 540 c 0,6,7
 426 540 426 540 475.5 488 c 128,-1,8
 525 436 525 436 525 353 c 0,9,10
 525 188 525 188 439.5 89 c 128,-1,11
 354 -10 354 -10 220 -10 c 0,0,1
374.5 146.5 m 128,-1,13
 425 223 425 223 425 341.5 c 128,-1,14
 425 460 425 460 320 460 c 0,15,16
 237 460 237 460 188.5 379.5 c 128,-1,17
 140 299 140 299 140 185 c 0,18,19
 140 127 140 127 166.5 98.5 c 128,-1,20
 193 70 193 70 240 70 c 0,21,12
 324 70 324 70 374.5 146.5 c 128,-1,13
EndSplineSet
EndChar

StartChar: p
Encoding: 112 112 83
Width: 613
GlyphClass: 2
Flags: W
LayerCount: 2
Fore
SplineSet
248 530 m 1,0,-1
 208 346 l 1,1,2
 223 385 223 385 266 446 c 0,3,4
 294 485 294 485 338.5 512.5 c 128,-1,5
 383 540 383 540 439.5 540 c 128,-1,6
 496 540 496 540 530.5 488 c 128,-1,7
 565 436 565 436 565 360 c 0,8,9
 565 195 565 195 476 92.5 c 128,-1,10
 387 -10 387 -10 263 -10 c 0,11,12
 209 -10 209 -10 165 14 c 1,13,-1
 139 -150 l 1,14,-1
 215 -175 l 1,15,-1
 205 -230 l 1,16,-1
 -50 -230 l 1,17,-1
 -41 -175 l 1,18,-1
 44 -150 l 1,19,-1
 140 450 l 1,20,-1
 58 470 l 1,21,-1
 67 525 l 1,22,-1
 248 530 l 1,0,-1
196 185 m 1,23,-1
 176 80 l 1,24,25
 218 65 218 65 268 65 c 0,26,27
 340 65 340 65 402.5 139 c 128,-1,28
 465 213 465 213 465 345 c 0,29,30
 465 391 465 391 448.5 423 c 128,-1,31
 432 455 432 455 397.5 455 c 128,-1,32
 363 455 363 455 329.5 427 c 128,-1,33
 296 399 296 399 273 360 c 0,34,35
 223 273 223 273 204 213 c 1,36,-1
 196 185 l 1,23,-1
EndSplineSet
EndChar

StartChar: q
Encoding: 113 113 84
Width: 567
GlyphClass: 2
Flags: W
LayerCount: 2
Fore
SplineSet
490 530 m 1,0,-1
 542 530 l 1,1,-1
 433 -150 l 1,2,-1
 509 -175 l 1,3,-1
 500 -230 l 1,4,-1
 241 -230 l 1,5,-1
 250 -175 l 1,6,-1
 338 -150 l 1,7,-1
 361 0 l 1,8,-1
 405 185 l 1,9,10
 343 61 343 61 254 11 c 0,11,12
 216 -10 216 -10 179 -10 c 0,13,14
 123 -10 123 -10 85 40 c 128,-1,15
 47 90 47 90 47 165 c 0,16,17
 47 340 47 340 136 440 c 128,-1,18
 225 540 225 540 345 540 c 0,19,20
 376 540 376 540 404.5 532.5 c 128,-1,21
 433 525 433 525 446 518 c 2,22,-1
 459 510 l 1,23,-1
 490 530 l 1,0,-1
417 345 m 1,24,-1
 437 450 l 1,25,26
 395 465 395 465 345 465 c 0,27,28
 265 465 265 465 206 392 c 128,-1,29
 147 319 147 319 147 180 c 0,30,31
 147 129 147 129 164 102 c 128,-1,32
 181 75 181 75 212 75 c 128,-1,33
 243 75 243 75 276.5 103 c 128,-1,34
 310 131 310 131 334 170 c 0,35,36
 382 247 382 247 407 317 c 2,37,-1
 417 345 l 1,24,-1
EndSplineSet
EndChar

StartChar: r
Encoding: 114 114 85
Width: 434
GlyphClass: 2
Flags: W
LayerCount: 2
Fore
SplineSet
474 530 m 1,0,-1
 444 380 l 1,1,-1
 379 380 l 1,2,-1
 379 450 l 1,3,4
 348 450 348 450 317.5 423 c 128,-1,5
 287 396 287 396 266 358 c 0,6,7
 222 278 222 278 202 217 c 1,8,-1
 194 190 l 1,9,-1
 162 0 l 1,10,-1
 67 0 l 1,11,-1
 140 450 l 1,12,-1
 55 470 l 1,13,-1
 64 525 l 1,14,-1
 248 530 l 1,15,-1
 209 356 l 1,16,17
 241 432 241 432 288 480 c 0,18,19
 310 503 310 503 346.5 521.5 c 128,-1,20
 383 540 383 540 424 540 c 0,21,22
 446 540 446 540 474 530 c 1,0,-1
EndSplineSet
EndChar

StartChar: s
Encoding: 115 115 86
Width: 465
GlyphClass: 2
Flags: W
LayerCount: 2
Fore
SplineSet
109 160 m 1,0,-1
 110 75 l 1,1,2
 140 63 140 63 187.5 63 c 128,-1,3
 235 63 235 63 265 84 c 128,-1,4
 295 105 295 105 295 138 c 128,-1,5
 295 171 295 171 272.5 191 c 128,-1,6
 250 211 250 211 217.5 226 c 128,-1,7
 185 241 185 241 152.5 259 c 128,-1,8
 120 277 120 277 97.5 307.5 c 128,-1,9
 75 338 75 338 75 380 c 0,10,11
 75 459 75 459 132 499.5 c 128,-1,12
 189 540 189 540 277 540 c 0,13,14
 344 540 344 540 404 522 c 1,15,-1
 425 515 l 1,16,-1
 401 380 l 1,17,-1
 336 380 l 1,18,-1
 330 458 l 1,19,20
 308 467 308 467 265 467 c 128,-1,21
 222 467 222 467 196 449 c 128,-1,22
 170 431 170 431 170 399.5 c 128,-1,23
 170 368 170 368 193 346.5 c 128,-1,24
 216 325 216 325 249 309 c 128,-1,25
 282 293 282 293 315.5 275 c 128,-1,26
 349 257 349 257 372 228 c 128,-1,27
 395 199 395 199 395 160 c 0,28,29
 395 82 395 82 333.5 36 c 128,-1,30
 272 -10 272 -10 170 -10 c 0,31,32
 95 -10 95 -10 40 8 c 1,33,-1
 20 15 l 1,34,-1
 44 160 l 1,35,-1
 109 160 l 1,0,-1
EndSplineSet
EndChar

StartChar: t
Encoding: 116 116 87
Width: 369
GlyphClass: 2
Flags: W
LayerCount: 2
Fore
SplineSet
310 90 m 1,0,-1
 326 36 l 1,1,2
 251 -10 251 -10 195 -10 c 0,3,4
 94 -10 94 -10 94 109 c 0,5,6
 94 138 94 138 100 173 c 2,7,-1
 144 450 l 1,8,-1
 45 450 l 1,9,-1
 56 515 l 1,10,-1
 156 525 l 1,11,-1
 176 651 l 1,12,-1
 275 671 l 1,13,-1
 251 525 l 1,14,-1
 389 525 l 1,15,-1
 377 450 l 1,16,-1
 239 450 l 1,17,-1
 196 183 l 2,18,19
 190 144 190 144 190 118.5 c 128,-1,20
 190 93 190 93 199 81.5 c 128,-1,21
 208 70 208 70 224 70 c 0,22,23
 254 70 254 70 296 85 c 2,24,-1
 310 90 l 1,0,-1
EndSplineSet
EndChar

StartChar: u
Encoding: 117 117 88
Width: 632
GlyphClass: 2
Flags: W
LayerCount: 2
Fore
SplineSet
389 0 m 1,0,-1
 430 194 l 1,1,2
 417 161 417 161 390.5 122.5 c 128,-1,3
 364 84 364 84 338.5 57.5 c 128,-1,4
 313 31 313 31 272.5 10.5 c 128,-1,5
 232 -10 232 -10 190 -10 c 0,6,7
 79 -10 79 -10 79 112 c 0,8,9
 79 135 79 135 84 170 c 2,10,-1
 130 450 l 1,11,-1
 45 470 l 1,12,-1
 54 525 l 1,13,-1
 237 530 l 1,14,-1
 182 185 l 1,15,16
 178 153 178 153 178 141 c 0,17,18
 178 75 178 75 230 75 c 0,19,20
 267 75 267 75 303 103.5 c 128,-1,21
 339 132 339 132 363 172 c 0,22,23
 414 259 414 259 434 322 c 2,24,-1
 443 350 l 1,25,-1
 473 530 l 1,26,-1
 568 530 l 1,27,-1
 496 80 l 1,28,-1
 582 65 l 1,29,-1
 573 10 l 1,30,-1
 389 0 l 1,0,-1
EndSplineSet
EndChar

StartChar: v
Encoding: 118 118 89
Width: 578
GlyphClass: 2
Flags: W
LayerCount: 2
Fore
SplineSet
583 470 m 1,0,-1
 529 454 l 1,1,-1
 306 0 l 1,2,-1
 198 0 l 1,3,-1
 104 451 l 1,4,-1
 25 470 l 1,5,-1
 34 525 l 1,6,-1
 195 530 l 1,7,-1
 261 170 l 1,8,-1
 271 95 l 1,9,-1
 436 452 l 1,10,-1
 363 470 l 1,11,-1
 372 525 l 1,12,-1
 593 530 l 1,13,-1
 583 470 l 1,0,-1
EndSplineSet
EndChar

StartChar: w
Encoding: 119 119 90
Width: 790
GlyphClass: 2
Flags: W
LayerCount: 2
Fore
SplineSet
815 470 m 1,0,-1
 766 458 l 1,1,-1
 565 0 l 1,2,-1
 450 0 l 1,3,-1
 404 340 l 1,4,-1
 391 290 l 1,5,-1
 279 0 l 1,6,-1
 166 0 l 1,7,-1
 94 455 l 1,8,-1
 20 470 l 1,9,-1
 29 525 l 1,10,-1
 190 530 l 1,11,-1
 240 95 l 1,12,-1
 403 525 l 1,13,-1
 474 530 l 1,14,-1
 525 95 l 1,15,-1
 672 451 l 1,16,-1
 585 470 l 1,17,-1
 594 525 l 1,18,-1
 825 530 l 1,19,-1
 815 470 l 1,0,-1
EndSplineSet
EndChar

StartChar: x
Encoding: 120 120 91
Width: 545
GlyphClass: 2
Flags: W
LayerCount: 2
Fore
SplineSet
261 198 m 1,0,-1
 116 0 l 1,1,-1
 -25 0 l 1,2,-1
 -16 55 l 1,3,-1
 75 83 l 1,4,-1
 214 262 l 1,5,-1
 120 450 l 1,6,-1
 35 470 l 1,7,-1
 44 525 l 1,8,-1
 201 530 l 1,9,-1
 286 340 l 1,10,-1
 428 525 l 1,11,-1
 570 530 l 1,12,-1
 560 470 l 1,13,-1
 474 449 l 1,14,-1
 334 277 l 1,15,-1
 430 80 l 1,16,-1
 517 65 l 1,17,-1
 508 10 l 1,18,-1
 354 0 l 1,19,-1
 261 198 l 1,0,-1
EndSplineSet
EndChar

StartChar: y
Encoding: 121 121 92
Width: 570
GlyphClass: 2
Flags: W
LayerCount: 2
Fore
SplineSet
575 470 m 1,0,-1
 519 454 l 1,1,-1
 341 33 l 2,2,3
 273 -128 273 -128 228 -184 c 128,-1,4
 183 -240 183 -240 108 -240 c 0,5,6
 57 -240 57 -240 10 -228 c 2,7,-1
 -5 -224 l 1,8,-1
 15 -160 l 1,9,10
 55 -165 55 -165 98 -165 c 128,-1,11
 141 -165 141 -165 168.5 -138 c 128,-1,12
 196 -111 196 -111 227 -39 c 1,13,-1
 97 451 l 1,14,-1
 20 470 l 1,15,-1
 29 525 l 1,16,-1
 190 530 l 1,17,-1
 274 163 l 1,18,-1
 283 95 l 1,19,-1
 431 452 l 1,20,-1
 356 470 l 1,21,-1
 365 525 l 1,22,-1
 585 530 l 1,23,-1
 575 470 l 1,0,-1
EndSplineSet
EndChar

StartChar: z
Encoding: 122 122 93
Width: 475
GlyphClass: 2
Flags: W
LayerCount: 2
Fore
SplineSet
87 530 m 1,0,-1
 460 530 l 1,1,-1
 455 465 l 1,2,-1
 136 78 l 1,3,-1
 324 78 l 1,4,-1
 356 160 l 1,5,-1
 416 160 l 1,6,-1
 395 0 l 1,7,-1
 10 0 l 1,8,-1
 15 70 l 1,9,-1
 335 455 l 1,10,-1
 161 455 l 1,11,-1
 129 380 l 1,12,-1
 64 380 l 1,13,-1
 87 530 l 1,0,-1
EndSplineSet
EndChar

StartChar: braceleft
Encoding: 123 123 94
Width: 370
GlyphClass: 2
Flags: W
LayerCount: 2
Fore
SplineSet
241 434 m 2,0,1
 224 328 224 328 131 295 c 1,2,3
 199 268 199 268 199 190 c 0,4,5
 199 174 199 174 196 156 c 2,6,-1
 162 -55 l 2,7,8
 159 -74 159 -74 159 -89 c 0,9,10
 159 -128 159 -128 183.5 -144 c 128,-1,11
 208 -160 208 -160 267 -160 c 1,12,-1
 256 -225 l 1,13,-1
 219 -225 l 2,14,15
 139 -225 139 -225 103 -198 c 128,-1,16
 67 -171 67 -171 67 -108 c 0,17,18
 67 -88 67 -88 72 -55 c 2,19,-1
 106 156 l 2,20,21
 109 174 109 174 109 199.5 c 128,-1,22
 109 225 109 225 92 242.5 c 128,-1,23
 75 260 75 260 33 260 c 1,24,-1
 45 330 l 1,25,26
 96 330 96 330 119.5 357 c 128,-1,27
 143 384 143 384 151 434 c 2,28,-1
 179 605 l 2,29,30
 194 698 194 698 240 736.5 c 128,-1,31
 286 775 286 775 380 775 c 2,32,-1
 416 775 l 1,33,-1
 407 710 l 1,34,35
 336 710 336 710 308.5 688 c 128,-1,36
 281 666 281 666 270 605 c 2,37,-1
 241 434 l 2,0,1
EndSplineSet
EndChar

StartChar: bar
Encoding: 124 124 95
Width: 265
GlyphClass: 2
Flags: W
LayerCount: 2
Fore
SplineSet
93 -230 m 1,0,-1
 15 -230 l 1,1,-1
 172 755 l 1,2,-1
 250 755 l 1,3,-1
 93 -230 l 1,0,-1
EndSplineSet
EndChar

StartChar: braceright
Encoding: 125 125 96
Width: 375
GlyphClass: 2
Flags: W
LayerCount: 2
Fore
SplineSet
354 330 m 1,0,-1
 343 260 l 1,1,2
 291 260 291 260 266 233 c 128,-1,3
 241 206 241 206 234 156 c 2,4,-1
 201 -55 l 2,5,6
 186 -147 186 -147 139.5 -186 c 128,-1,7
 93 -225 93 -225 3 -225 c 2,8,-1
 -38 -225 l 1,9,-1
 -27 -160 l 1,10,11
 42 -160 42 -160 72 -137.5 c 128,-1,12
 102 -115 102 -115 111 -55 c 2,13,-1
 144 156 l 2,14,15
 160 261 160 261 256 295 c 1,16,17
 184 324 184 324 184 402 c 0,18,19
 184 418 184 418 187 434 c 2,20,-1
 216 605 l 2,21,22
 219 623 219 623 219 638 c 0,23,24
 219 678 219 678 195 694 c 128,-1,25
 171 710 171 710 111 710 c 1,26,-1
 122 775 l 1,27,-1
 164 775 l 2,28,29
 240 775 240 775 275.5 748 c 128,-1,30
 311 721 311 721 311 658 c 0,31,32
 311 638 311 638 306 605 c 2,33,-1
 277 434 l 2,34,35
 274 416 274 416 274 401 c 0,36,37
 274 330 274 330 354 330 c 1,0,-1
EndSplineSet
EndChar

StartChar: asciitilde
Encoding: 126 126 97
Width: 626
GlyphClass: 2
Flags: W
LayerCount: 2
Fore
SplineSet
565 299 m 1,0,1
 487 195 487 195 407 195 c 0,2,3
 360 195 360 195 297 230 c 128,-1,4
 234 265 234 265 203.5 265 c 128,-1,5
 173 265 173 265 148.5 251 c 128,-1,6
 124 237 124 237 112 223 c 2,7,-1
 100 209 l 1,8,-1
 60 244 l 1,9,10
 65 255 65 255 84.5 276 c 128,-1,11
 104 297 104 297 122 310 c 0,12,13
 170 345 170 345 220.5 345 c 128,-1,14
 271 345 271 345 328.5 310 c 128,-1,15
 386 275 386 275 417 275 c 128,-1,16
 448 275 448 275 473 289.5 c 128,-1,17
 498 304 498 304 511 319 c 2,18,-1
 524 334 l 1,19,-1
 565 299 l 1,0,1
EndSplineSet
EndChar

StartChar: exclamdown
Encoding: 161 161 98
Width: 305
GlyphClass: 2
Flags: W
LayerCount: 2
Fore
SplineSet
20 -210 m 1,0,-1
 116 290 l 1,1,-1
 199 295 l 1,2,-1
 133 -210 l 1,3,-1
 20 -210 l 1,0,-1
118 465 m 0,4,5
 118 500 118 500 138.5 525 c 128,-1,6
 159 550 159 550 195 550 c 0,7,8
 250 550 250 550 250 495 c 0,9,10
 250 461 250 461 229.5 435.5 c 128,-1,11
 209 410 209 410 172 410 c 0,12,13
 118 410 118 410 118 465 c 0,4,5
EndSplineSet
EndChar

StartChar: cent
Encoding: 162 162 99
Width: 485
GlyphClass: 2
Flags: W
LayerCount: 2
Fore
SplineSet
390 436 m 1,0,-1
 390 521 l 1,1,2
 366 531 366 531 325 531 c 0,3,4
 242 531 242 531 193.5 467.5 c 128,-1,5
 145 404 145 404 145 307 c 0,6,7
 145 256 145 256 176 223.5 c 128,-1,8
 207 191 207 191 255 191 c 0,9,10
 322 191 322 191 385 227 c 0,11,12
 399 235 399 235 400 236 c 1,13,-1
 430 186 l 1,14,15
 350 129 350 129 264 114 c 1,16,-1
 246 0 l 1,17,-1
 173 0 l 1,18,-1
 191 114 l 1,19,20
 128 125 128 125 86.5 174.5 c 128,-1,21
 45 224 45 224 45 290 c 0,22,23
 45 421 45 421 106.5 502.5 c 128,-1,24
 168 584 168 584 272 604 c 1,25,-1
 287 694 l 1,26,-1
 361 699 l 1,27,-1
 346 611 l 1,28,29
 380 610 380 610 413.5 600 c 128,-1,30
 447 590 447 590 464 580 c 2,31,-1
 480 571 l 1,32,-1
 455 436 l 1,33,-1
 390 436 l 1,0,-1
EndSplineSet
EndChar

StartChar: sterling
Encoding: 163 163 100
Width: 618
GlyphClass: 2
Flags: W
LayerCount: 2
Fore
SplineSet
276 415 m 1,0,-1
 275 409 l 1,1,-1
 438 409 l 1,2,-1
 426 335 l 1,3,-1
 269 335 l 1,4,5
 260 248 260 248 254 209.5 c 128,-1,6
 248 171 248 171 231.5 137 c 128,-1,7
 215 103 215 103 202 92 c 1,8,-1
 190 80 l 1,9,-1
 437 80 l 1,10,-1
 474 182 l 1,11,-1
 540 182 l 1,12,-1
 510 0 l 1,13,-1
 15 0 l 1,14,-1
 24 60 l 1,15,-1
 81 75 l 2,16,17
 115 84 115 84 130 111.5 c 128,-1,18
 145 139 145 139 152 180.5 c 128,-1,19
 159 222 159 222 170 335 c 1,20,-1
 68 335 l 1,21,-1
 78 398 l 1,22,-1
 177 409 l 1,23,24
 183 470 183 470 189 510 c 0,25,26
 204 604 204 604 261 657 c 128,-1,27
 318 710 318 710 417 710 c 0,28,29
 469 710 469 710 518 702.5 c 128,-1,30
 567 695 567 695 590 688 c 2,31,-1
 613 680 l 1,32,-1
 586 509 l 1,33,-1
 530 509 l 1,34,-1
 517 624 l 1,35,36
 463 630 463 630 409 630 c 0,37,38
 307 630 307 630 290 530 c 0,39,40
 280 468 280 468 276 415 c 1,0,-1
EndSplineSet
EndChar

StartChar: currency
Encoding: 164 164 101
Width: 578
GlyphClass: 2
Flags: W
LayerCount: 2
Fore
SplineSet
25 110 m 1,0,-1
 111 187 l 1,1,2
 101 211 101 211 101 246 c 0,3,4
 101 335 101 335 152 402 c 1,5,-1
 84 486 l 1,6,-1
 141 538 l 1,7,-1
 209 455 l 1,8,9
 265 490 265 490 326.5 490 c 128,-1,10
 388 490 388 490 426 463 c 1,11,-1
 513 538 l 1,12,-1
 552 486 l 1,13,-1
 469 412 l 1,14,15
 481 385 481 385 481 350 c 0,16,17
 481 258 481 258 428 189 c 1,18,-1
 493 110 l 1,19,-1
 436 58 l 1,20,-1
 371 136 l 1,21,22
 320 105 320 105 256.5 105 c 128,-1,23
 193 105 193 105 152 134 c 1,24,-1
 64 58 l 1,25,-1
 25 110 l 1,0,-1
314 421 m 0,26,27
 258 421 258 421 223 377 c 128,-1,28
 188 333 188 333 188 259 c 0,29,30
 188 218 188 218 211.5 196 c 128,-1,31
 235 174 235 174 281 174 c 128,-1,32
 327 174 327 174 360.5 217.5 c 128,-1,33
 394 261 394 261 394 331 c 0,34,35
 394 421 394 421 314 421 c 0,26,27
EndSplineSet
EndChar

StartChar: yen
Encoding: 165 165 102
Width: 605
GlyphClass: 2
Flags: W
LayerCount: 2
Fore
SplineSet
93 360 m 1,0,-1
 210 360 l 1,1,-1
 134 620 l 1,2,-1
 40 640 l 1,3,-1
 49 695 l 1,4,-1
 214 700 l 1,5,-1
 314 334 l 1,6,-1
 482 621 l 1,7,-1
 407 640 l 1,8,-1
 417 695 l 1,9,-1
 674 700 l 1,10,-1
 664 640 l 1,11,-1
 581 620 l 1,12,-1
 415 360 l 1,13,-1
 534 360 l 1,14,-1
 523 290 l 1,15,-1
 82 290 l 1,16,-1
 93 360 l 1,0,-1
110 0 m 1,17,-1
 120 60 l 1,18,-1
 210 80 l 1,19,-1
 222 155 l 1,20,-1
 61 155 l 1,21,-1
 72 225 l 1,22,-1
 513 225 l 1,23,-1
 502 155 l 1,24,-1
 322 155 l 1,25,-1
 310 80 l 1,26,-1
 393 60 l 1,27,-1
 383 0 l 1,28,-1
 110 0 l 1,17,-1
EndSplineSet
EndChar

StartChar: brokenbar
Encoding: 166 166 103
Width: 272
GlyphClass: 2
Flags: W
LayerCount: 2
Fore
SplineSet
193 365 m 1,0,-1
 115 365 l 1,1,-1
 179 765 l 1,2,-1
 257 765 l 1,3,-1
 193 365 l 1,0,-1
93 -265 m 1,4,-1
 15 -265 l 1,5,-1
 80 145 l 1,6,-1
 158 145 l 1,7,-1
 93 -265 l 1,4,-1
EndSplineSet
EndChar

StartChar: section
Encoding: 167 167 104
Width: 550
GlyphClass: 2
Flags: W
LayerCount: 2
Fore
SplineSet
487 304 m 0,0,1
 487 193 487 193 386 128 c 1,2,3
 402 98 402 98 402 63 c 0,4,5
 402 -28 402 -28 336 -89 c 128,-1,6
 270 -150 270 -150 178 -150 c 0,7,8
 142 -150 142 -150 106.5 -142.5 c 128,-1,9
 71 -135 71 -135 53 -128 c 2,10,-1
 35 -120 l 1,11,-1
 65 40 l 1,12,-1
 128 40 l 1,13,-1
 132 -65 l 1,14,15
 157 -70 157 -70 196 -70 c 128,-1,16
 235 -70 235 -70 270 -41 c 128,-1,17
 305 -12 305 -12 305 34 c 0,18,19
 305 60 305 60 287.5 84.5 c 128,-1,20
 270 109 270 109 244.5 127 c 128,-1,21
 219 145 219 145 188.5 167.5 c 128,-1,22
 158 190 158 190 132.5 211.5 c 128,-1,23
 107 233 107 233 89.5 264 c 128,-1,24
 72 295 72 295 72 331 c 0,25,26
 72 392 72 392 105 438.5 c 128,-1,27
 138 485 138 485 173 502 c 1,28,29
 158 537 158 537 158 568 c 0,30,31
 158 661 158 661 225.5 720.5 c 128,-1,32
 293 780 293 780 385 780 c 0,33,34
 420 780 420 780 455 772.5 c 128,-1,35
 490 765 490 765 508 758 c 1,36,-1
 525 750 l 1,37,-1
 496 590 l 1,38,-1
 437 590 l 1,39,-1
 430 695 l 1,40,41
 399 700 399 700 374 700 c 0,42,43
 325 700 325 700 290 670.5 c 128,-1,44
 255 641 255 641 255 596 c 0,45,46
 255 542 255 542 337 487 c 0,47,48
 371 464 371 464 405 439.5 c 128,-1,49
 439 415 439 415 463 380 c 128,-1,50
 487 345 487 345 487 304 c 0,0,1
346 181 m 1,51,52
 391 220 391 220 391 273 c 0,53,54
 391 307 391 307 362.5 335 c 128,-1,55
 334 363 334 363 285 395 c 128,-1,56
 236 427 236 427 214 449 c 1,57,58
 168 418 168 418 168 356 c 0,59,60
 168 324 168 324 197 295.5 c 128,-1,61
 226 267 226 267 275 235 c 128,-1,62
 324 203 324 203 346 181 c 1,51,52
EndSplineSet
EndChar

StartChar: dieresis
Encoding: 168 168 105
Width: 515
GlyphClass: 2
Flags: W
LayerCount: 2
Fore
SplineSet
348 640 m 0,0,1
 303 640 303 640 303 690 c 0,2,3
 303 716 303 716 321 738 c 128,-1,4
 339 760 339 760 367 760 c 0,5,6
 413 760 413 760 413 714 c 0,7,8
 413 684 413 684 394 662 c 128,-1,9
 375 640 375 640 348 640 c 0,0,1
147 640 m 0,10,11
 102 640 102 640 102 690 c 0,12,13
 102 716 102 716 120 738 c 128,-1,14
 138 760 138 760 166 760 c 0,15,16
 212 760 212 760 212 714 c 0,17,18
 212 684 212 684 193 662 c 128,-1,19
 174 640 174 640 147 640 c 0,10,11
EndSplineSet
EndChar

StartChar: copyright
Encoding: 169 169 106
Width: 820
GlyphClass: 2
Flags: W
LayerCount: 2
Fore
SplineSet
45 345 m 128,-1,1
 45 502 45 502 148.5 606 c 128,-1,2
 252 710 252 710 410.5 710 c 128,-1,3
 569 710 569 710 672 610.5 c 128,-1,4
 775 511 775 511 775 354.5 c 128,-1,5
 775 198 775 198 667 94 c 128,-1,6
 559 -10 559 -10 400.5 -10 c 128,-1,7
 242 -10 242 -10 143.5 89 c 128,-1,0
 45 188 45 188 45 345 c 128,-1,1
125 350 m 128,-1,9
 125 222 125 222 201.5 142 c 128,-1,10
 278 62 278 62 405.5 62 c 128,-1,11
 533 62 533 62 614 142.5 c 128,-1,12
 695 223 695 223 695 350 c 128,-1,13
 695 477 695 477 614 557.5 c 128,-1,14
 533 638 533 638 405.5 638 c 128,-1,15
 278 638 278 638 201.5 558 c 128,-1,8
 125 478 125 478 125 350 c 128,-1,9
410 155 m 0,16,17
 326 155 326 155 278 203 c 128,-1,18
 230 251 230 251 230 344.5 c 128,-1,19
 230 438 230 438 280 494.5 c 128,-1,20
 330 551 330 551 417 551 c 0,21,22
 445 551 445 551 477 543.5 c 128,-1,23
 509 536 509 536 526 528 c 2,24,-1
 544 520 l 1,25,-1
 542 414 l 1,26,-1
 486 414 l 1,27,-1
 472 482 l 1,28,29
 445 490 445 490 410 490 c 0,30,31
 315 490 315 490 315 348 c 0,32,33
 315 220 315 220 415 220 c 0,34,35
 439 220 439 220 465.5 231 c 128,-1,36
 492 242 492 242 507 253 c 2,37,-1
 522 264 l 1,38,-1
 549 218 l 1,39,40
 542 211 542 211 530 200.5 c 128,-1,41
 518 190 518 190 482 172.5 c 128,-1,42
 446 155 446 155 410 155 c 0,16,17
EndSplineSet
EndChar

StartChar: ordfeminine
Encoding: 170 170 107
Width: 475
GlyphClass: 2
Flags: W
LayerCount: 2
Fore
SplineSet
368 382 m 1,0,-1
 434 368 l 1,1,-1
 428 325 l 1,2,-1
 281 321 l 1,3,-1
 310 454 l 1,4,5
 298 428 298 428 271 390 c 0,6,7
 216 314 216 314 151 314 c 0,8,9
 107 314 107 314 80.5 353 c 128,-1,10
 54 392 54 392 54 446 c 0,11,12
 54 567 54 567 118 638.5 c 128,-1,13
 182 710 182 710 269 710 c 0,14,15
 308 710 308 710 340 692 c 1,16,-1
 350 687 l 1,17,-1
 371 703 l 1,18,-1
 420 703 l 1,19,-1
 368 382 l 1,0,-1
320 570 m 1,20,-1
 334 640 l 1,21,22
 305 650 305 650 269 650 c 0,23,24
 218 650 218 650 176 601 c 128,-1,25
 134 552 134 552 134 453 c 0,26,27
 134 417 134 417 146.5 398.5 c 128,-1,28
 159 380 159 380 176 380 c 0,29,30
 212 380 212 380 248 427.5 c 128,-1,31
 284 475 284 475 302 522 c 2,32,-1
 320 570 l 1,20,-1
35 165 m 1,33,-1
 46 235 l 1,34,-1
 389 235 l 1,35,-1
 378 165 l 1,36,-1
 35 165 l 1,33,-1
EndSplineSet
EndChar

StartChar: guillemotleft
Encoding: 171 171 108
Width: 541
GlyphClass: 2
Flags: W
LayerCount: 2
Fore
SplineSet
364 269 m 1,0,-1
 448 120 l 1,1,-1
 392 80 l 1,2,-1
 271 243 l 1,3,-1
 280 303 l 1,4,-1
 445 448 l 1,5,-1
 496 403 l 1,6,-1
 364 269 l 1,0,-1
153 269 m 1,7,-1
 232 120 l 1,8,-1
 176 80 l 1,9,-1
 60 243 l 1,10,-1
 69 303 l 1,11,-1
 229 448 l 1,12,-1
 280 403 l 1,13,-1
 153 269 l 1,7,-1
EndSplineSet
EndChar

StartChar: logicalnot
Encoding: 172 172 109
Width: 615
GlyphClass: 2
Flags: W
LayerCount: 2
Fore
SplineSet
73 275 m 1,0,-1
 86 355 l 1,1,-1
 576 355 l 1,2,-1
 533 85 l 1,3,-1
 450 85 l 1,4,-1
 480 275 l 1,5,-1
 73 275 l 1,0,-1
EndSplineSet
EndChar

StartChar: registered
Encoding: 174 174 110
Width: 720
GlyphClass: 2
Flags: W
LayerCount: 2
Fore
SplineSet
55 450 m 128,-1,1
 55 581 55 581 142 668 c 128,-1,2
 229 755 229 755 360.5 755 c 128,-1,3
 492 755 492 755 578.5 672.5 c 128,-1,4
 665 590 665 590 665 460 c 128,-1,5
 665 330 665 330 573.5 242.5 c 128,-1,6
 482 155 482 155 350.5 155 c 128,-1,7
 219 155 219 155 137 237 c 128,-1,0
 55 319 55 319 55 450 c 128,-1,1
130 455 m 128,-1,9
 130 349 130 349 190.5 284.5 c 128,-1,10
 251 220 251 220 355.5 220 c 128,-1,11
 460 220 460 220 525 285 c 128,-1,12
 590 350 590 350 590 455 c 128,-1,13
 590 560 590 560 525 625 c 128,-1,14
 460 690 460 690 355.5 690 c 128,-1,15
 251 690 251 690 190.5 625.5 c 128,-1,8
 130 561 130 561 130 455 c 128,-1,9
215 295 m 1,16,-1
 215 335 l 1,17,-1
 255 345 l 1,18,-1
 255 577 l 1,19,-1
 215 585 l 1,20,-1
 215 622 l 1,21,-1
 365 625 l 1,22,23
 416 625 416 625 449 600.5 c 128,-1,24
 482 576 482 576 482 533 c 0,25,26
 482 468 482 468 420 445 c 1,27,28
 438 427 438 427 448 408 c 2,29,-1
 480 345 l 1,30,-1
 520 335 l 1,31,-1
 520 295 l 1,32,-1
 434 295 l 1,33,-1
 394 380 l 2,34,35
 378 415 378 415 368.5 423.5 c 128,-1,36
 359 432 359 432 339 432 c 2,37,-1
 320 432 l 1,38,-1
 320 345 l 1,39,-1
 360 335 l 1,40,-1
 360 295 l 1,41,-1
 215 295 l 1,16,-1
360 575 m 2,42,-1
 320 575 l 1,43,-1
 320 478 l 1,44,-1
 355 478 l 2,45,46
 382 478 382 478 398.5 491 c 128,-1,47
 415 504 415 504 415 527 c 128,-1,48
 415 550 415 550 400.5 562.5 c 128,-1,49
 386 575 386 575 360 575 c 2,42,-1
EndSplineSet
EndChar

StartChar: macron
Encoding: 175 175 111
Width: 275
GlyphClass: 2
Flags: W
LayerCount: 2
Fore
SplineSet
0 660 m 1,0,-1
 11 735 l 1,1,-1
 275 735 l 1,2,-1
 264 660 l 1,3,-1
 0 660 l 1,0,-1
EndSplineSet
EndChar

StartChar: degree
Encoding: 176 176 112
Width: 410
GlyphClass: 2
Flags: W
LayerCount: 2
Fore
SplineSet
94.5 471 m 128,-1,1
 56 507 56 507 56 573 c 128,-1,2
 56 639 56 639 102 687 c 128,-1,3
 148 735 148 735 212.5 735 c 128,-1,4
 277 735 277 735 315 701 c 128,-1,5
 353 667 353 667 353 601.5 c 128,-1,6
 353 536 353 536 306.5 485.5 c 128,-1,7
 260 435 260 435 196.5 435 c 128,-1,0
 133 435 133 435 94.5 471 c 128,-1,1
262 650.5 m 128,-1,9
 243 670 243 670 209 670 c 128,-1,10
 175 670 175 670 151.5 644 c 128,-1,11
 128 618 128 618 128 579 c 128,-1,12
 128 540 128 540 147 520 c 128,-1,13
 166 500 166 500 200 500 c 128,-1,14
 234 500 234 500 257.5 526.5 c 128,-1,15
 281 553 281 553 281 592 c 128,-1,8
 281 631 281 631 262 650.5 c 128,-1,9
EndSplineSet
EndChar

StartChar: plusminus
Encoding: 177 177 113
Width: 616
GlyphClass: 2
Flags: W
LayerCount: 2
Fore
SplineSet
64 302 m 1,0,-1
 76 380 l 1,1,-1
 281 380 l 1,2,-1
 307 540 l 1,3,-1
 393 540 l 1,4,-1
 367 380 l 1,5,-1
 571 380 l 1,6,-1
 558 302 l 1,7,-1
 355 302 l 1,8,-1
 329 140 l 1,9,-1
 243 140 l 1,10,-1
 269 302 l 1,11,-1
 64 302 l 1,0,-1
15 0 m 1,12,-1
 27 78 l 1,13,-1
 522 78 l 1,14,-1
 510 0 l 1,15,-1
 15 0 l 1,12,-1
EndSplineSet
EndChar

StartChar: twosuperior
Encoding: 178 178 114
Width: 390
GlyphClass: 2
Flags: W
LayerCount: 2
Fore
SplineSet
4 280 m 1,0,-1
 15 349 l 1,1,2
 43 370 43 370 83 399 c 128,-1,3
 123 428 123 428 141 441.5 c 128,-1,4
 159 455 159 455 184.5 475.5 c 128,-1,5
 210 496 210 496 221 507.5 c 128,-1,6
 232 519 232 519 244 534 c 1,7,8
 263 561 263 561 263 594 c 0,9,10
 263 640 263 640 198 640 c 0,11,12
 166 640 166 640 136 630 c 1,13,-1
 121 570 l 1,14,-1
 62 570 l 1,15,-1
 75 679 l 1,16,17
 150 705 150 705 211 705 c 0,18,19
 353 705 353 705 353 609 c 0,20,21
 353 531 353 531 278 463 c 0,22,23
 245 432 245 432 195.5 396.5 c 128,-1,24
 146 361 146 361 133 351 c 1,25,-1
 325 351 l 1,26,-1
 313 280 l 1,27,-1
 4 280 l 1,0,-1
EndSplineSet
EndChar

StartChar: threesuperior
Encoding: 179 179 115
Width: 378
GlyphClass: 2
Flags: W
LayerCount: 2
Fore
SplineSet
339 613 m 0,0,1
 339 569 339 569 311 539.5 c 128,-1,2
 283 510 283 510 237 499 c 1,3,4
 270 496 270 496 293 475.5 c 128,-1,5
 316 455 316 455 316 423 c 0,6,7
 316 351 316 351 261.5 313 c 128,-1,8
 207 275 207 275 126 275 c 0,9,10
 95 275 95 275 62.5 284.5 c 128,-1,11
 30 294 30 294 13 304 c 2,12,-1
 -4 313 l 1,13,-1
 24 372 l 1,14,15
 78 342 78 342 129 342 c 128,-1,16
 180 342 180 342 205.5 360.5 c 128,-1,17
 231 379 231 379 231 412 c 0,18,19
 231 463 231 463 151 463 c 2,20,-1
 106 463 l 1,21,-1
 115 524 l 1,22,-1
 161 524 l 2,23,24
 256 524 256 524 256 595 c 0,25,26
 256 640 256 640 193 640 c 0,27,28
 152 640 152 640 125 631 c 1,29,-1
 113 583 l 1,30,-1
 56 583 l 1,31,-1
 69 686 l 1,32,33
 150 705 150 705 209 705 c 0,34,35
 339 705 339 705 339 613 c 0,0,1
EndSplineSet
EndChar

StartChar: acute
Encoding: 180 180 116
Width: 242
GlyphClass: 2
Flags: W
LayerCount: 2
Fore
SplineSet
256 728 m 1,0,-1
 38 603 l 1,1,-1
 7 656 l 1,2,-1
 213 803 l 1,3,-1
 256 728 l 1,0,-1
EndSplineSet
EndChar

StartChar: mu
Encoding: 181 181 117
AltUni2: 0003bc.ffffffff.0
Width: 659
GlyphClass: 2
Flags: W
LayerCount: 2
Fore
SplineSet
147 -230 m 1,0,-1
 55 -230 l 1,1,-1
 171 450 l 1,2,-1
 84 470 l 1,3,-1
 94 525 l 1,4,-1
 279 530 l 1,5,6
 215 160 215 160 215 142 c 0,7,8
 215 75 215 75 268 75 c 0,9,10
 304 75 304 75 339.5 103.5 c 128,-1,11
 375 132 375 132 399 172 c 0,12,13
 450 259 450 259 470 322 c 2,14,-1
 479 350 l 1,15,-1
 512 530 l 1,16,-1
 607 530 l 1,17,-1
 533 80 l 1,18,-1
 619 60 l 1,19,-1
 609 5 l 1,20,-1
 428 0 l 1,21,-1
 469 194 l 1,22,23
 457 165 457 165 430 124.5 c 128,-1,24
 403 84 403 84 377 57.5 c 128,-1,25
 351 31 351 31 310.5 10.5 c 128,-1,26
 270 -10 270 -10 238.5 -10 c 128,-1,27
 207 -10 207 -10 187 0 c 1,28,-1
 147 -230 l 1,0,-1
EndSplineSet
EndChar

StartChar: paragraph
Encoding: 182 182 118
Width: 630
GlyphClass: 2
Flags: W
LayerCount: 2
Fore
SplineSet
74 -170 m 1,0,-1
 83 -110 l 1,1,-1
 176 -90 l 1,2,-1
 239 306 l 1,3,4
 177 315 177 315 138.5 359.5 c 128,-1,5
 100 404 100 404 100 470 c 0,6,7
 100 568 100 568 167 634 c 128,-1,8
 234 700 234 700 334 700 c 2,9,-1
 459 700 l 1,10,-1
 628 695 l 1,11,-1
 619 640 l 1,12,-1
 533 620 l 1,13,-1
 406 -170 l 1,14,-1
 320 -170 l 1,15,-1
 447 620 l 1,16,-1
 369 620 l 1,17,-1
 242 -170 l 1,18,-1
 74 -170 l 1,0,-1
EndSplineSet
EndChar

StartChar: periodcentered
Encoding: 183 183 119
Width: 275
GlyphClass: 2
Flags: W
LayerCount: 2
Fore
SplineSet
70 288 m 0,0,1
 70 323 70 323 92 350 c 128,-1,2
 114 377 114 377 150 377 c 0,3,4
 205 377 205 377 205 322 c 0,5,6
 205 287 205 287 184.5 260 c 128,-1,7
 164 233 164 233 127 233 c 0,8,9
 70 233 70 233 70 288 c 0,0,1
EndSplineSet
EndChar

StartChar: cedilla
Encoding: 184 184 120
Width: 436
GlyphClass: 2
Flags: W
LayerCount: 2
Fore
SplineSet
138 -155 m 1,0,1
 169 -171 169 -171 198 -171 c 128,-1,2
 227 -171 227 -171 244.5 -157.5 c 128,-1,3
 262 -144 262 -144 262 -122 c 0,4,5
 262 -79 262 -79 189 -79 c 1,6,-1
 202 0 l 1,7,-1
 261 0 l 1,8,-1
 254 -43 l 1,9,10
 326 -56 326 -56 326 -115 c 0,11,12
 326 -159 326 -159 292 -189 c 128,-1,13
 258 -219 258 -219 220 -219 c 0,14,15
 150 -219 150 -219 119 -202 c 2,16,-1
 108 -196 l 1,17,-1
 138 -155 l 1,0,1
EndSplineSet
EndChar

StartChar: onesuperior
Encoding: 185 185 121
Width: 350
GlyphClass: 2
Flags: W
LayerCount: 2
Fore
SplineSet
297 345 m 1,0,-1
 286 280 l 1,1,-1
 35 280 l 1,2,-1
 45 345 l 1,3,-1
 131 345 l 1,4,-1
 173 614 l 1,5,-1
 63 550 l 1,6,-1
 41 605 l 1,7,-1
 199 700 l 1,8,-1
 267 700 l 1,9,-1
 211 345 l 1,10,-1
 297 345 l 1,0,-1
EndSplineSet
EndChar

StartChar: ordmasculine
Encoding: 186 186 122
Width: 501
GlyphClass: 2
Flags: W
LayerCount: 2
Fore
SplineSet
301 710 m 0,0,1
 373 710 373 710 412 673 c 128,-1,2
 451 636 451 636 451 567 c 0,3,4
 451 457 451 457 390.5 386 c 128,-1,5
 330 315 330 315 228 315 c 0,6,7
 153 315 153 315 113 351.5 c 128,-1,8
 73 388 73 388 73 459 c 0,9,10
 73 570 73 570 136.5 640 c 128,-1,11
 200 710 200 710 301 710 c 0,0,1
286 644 m 0,12,13
 226 644 226 644 190.5 598.5 c 128,-1,14
 155 553 155 553 155 473 c 0,15,16
 155 427 155 427 179.5 403.5 c 128,-1,17
 204 380 204 380 246 380 c 0,18,19
 302 380 302 380 335.5 426.5 c 128,-1,20
 369 473 369 473 369 547 c 0,21,22
 369 593 369 593 347.5 618.5 c 128,-1,23
 326 644 326 644 286 644 c 0,12,13
35 165 m 1,24,-1
 46 235 l 1,25,-1
 389 235 l 1,26,-1
 378 165 l 1,27,-1
 35 165 l 1,24,-1
EndSplineSet
EndChar

StartChar: guillemotright
Encoding: 187 187 123
Width: 541
GlyphClass: 2
Flags: W
LayerCount: 2
Fore
SplineSet
177 259 m 1,0,-1
 93 408 l 1,1,-1
 149 448 l 1,2,-1
 270 285 l 1,3,-1
 261 225 l 1,4,-1
 96 80 l 1,5,-1
 45 124 l 1,6,-1
 177 259 l 1,0,-1
388 259 m 1,7,-1
 309 408 l 1,8,-1
 365 448 l 1,9,-1
 481 285 l 1,10,-1
 472 225 l 1,11,-1
 312 80 l 1,12,-1
 261 124 l 1,13,-1
 388 259 l 1,7,-1
EndSplineSet
EndChar

StartChar: onequarter
Encoding: 188 188 124
Width: 970
GlyphClass: 2
Flags: W
LayerCount: 2
Fore
SplineSet
507 150 m 1,0,-1
 750 430 l 1,1,-1
 844 420 l 1,2,-1
 802 156 l 1,3,-1
 873 156 l 1,4,-1
 862 91 l 1,5,-1
 791 91 l 1,6,-1
 777 0 l 1,7,-1
 693 0 l 1,8,-1
 707 91 l 1,9,-1
 504 91 l 1,10,-1
 507 150 l 1,0,-1
747 335 m 1,11,-1
 593 156 l 1,12,-1
 719 156 l 1,13,-1
 747 335 l 1,11,-1
167 0 m 1,14,-1
 675 700 l 1,15,-1
 767 700 l 1,16,-1
 259 0 l 1,17,-1
 167 0 l 1,14,-1
356 345 m 1,18,-1
 345 280 l 1,19,-1
 80 280 l 1,20,-1
 90 345 l 1,21,-1
 181 345 l 1,22,-1
 223 610 l 1,23,-1
 110 545 l 1,24,-1
 86 605 l 1,25,-1
 249 700 l 1,26,-1
 322 700 l 1,27,-1
 266 345 l 1,28,-1
 356 345 l 1,18,-1
EndSplineSet
EndChar

StartChar: onehalf
Encoding: 189 189 125
Width: 922
GlyphClass: 2
Flags: W
LayerCount: 2
Fore
SplineSet
497 0 m 1,0,-1
 508 69 l 1,1,2
 536 90 536 90 576 119 c 128,-1,3
 616 148 616 148 634 161.5 c 128,-1,4
 652 175 652 175 677.5 195.5 c 128,-1,5
 703 216 703 216 714 227.5 c 128,-1,6
 725 239 725 239 736 254 c 0,7,8
 756 281 756 281 756 314 c 0,9,10
 756 360 756 360 691 360 c 0,11,12
 659 360 659 360 629 350 c 1,13,-1
 614 290 l 1,14,-1
 555 290 l 1,15,-1
 568 399 l 1,16,17
 643 425 643 425 704 425 c 0,18,19
 846 425 846 425 846 329 c 0,20,21
 846 253 846 253 771 184 c 1,22,23
 727 145 727 145 681 111.5 c 128,-1,24
 635 78 635 78 626 71 c 1,25,-1
 818 71 l 1,26,-1
 806 0 l 1,27,-1
 497 0 l 1,0,-1
140 0 m 1,28,-1
 648 700 l 1,29,-1
 740 700 l 1,30,-1
 232 0 l 1,31,-1
 140 0 l 1,28,-1
326 345 m 1,32,-1
 315 280 l 1,33,-1
 50 280 l 1,34,-1
 60 345 l 1,35,-1
 151 345 l 1,36,-1
 193 610 l 1,37,-1
 80 545 l 1,38,-1
 56 605 l 1,39,-1
 219 700 l 1,40,-1
 292 700 l 1,41,-1
 236 345 l 1,42,-1
 326 345 l 1,32,-1
EndSplineSet
EndChar

StartChar: threequarters
Encoding: 190 190 126
Width: 975
GlyphClass: 2
Flags: W
LayerCount: 2
Fore
SplineSet
393 613 m 0,0,1
 393 569 393 569 365 539.5 c 128,-1,2
 337 510 337 510 291 499 c 1,3,4
 324 496 324 496 347 475.5 c 128,-1,5
 370 455 370 455 370 423 c 0,6,7
 370 351 370 351 315.5 313 c 128,-1,8
 261 275 261 275 180 275 c 0,9,10
 149 275 149 275 116.5 284.5 c 128,-1,11
 84 294 84 294 67 304 c 2,12,-1
 50 313 l 1,13,-1
 78 372 l 1,14,15
 132 342 132 342 183 342 c 128,-1,16
 234 342 234 342 259.5 360.5 c 128,-1,17
 285 379 285 379 285 412 c 0,18,19
 285 463 285 463 205 463 c 2,20,-1
 160 463 l 1,21,-1
 169 524 l 1,22,-1
 215 524 l 2,23,24
 310 524 310 524 310 595 c 0,25,26
 310 640 310 640 247 640 c 0,27,28
 206 640 206 640 179 631 c 1,29,-1
 167 583 l 1,30,-1
 110 583 l 1,31,-1
 123 686 l 1,32,33
 204 705 204 705 263 705 c 0,34,35
 393 705 393 705 393 613 c 0,0,1
179 0 m 1,36,-1
 687 700 l 1,37,-1
 779 700 l 1,38,-1
 271 0 l 1,39,-1
 179 0 l 1,36,-1
519 150 m 1,40,-1
 762 430 l 1,41,-1
 856 420 l 1,42,-1
 814 156 l 1,43,-1
 885 156 l 1,44,-1
 874 91 l 1,45,-1
 803 91 l 1,46,-1
 789 0 l 1,47,-1
 705 0 l 1,48,-1
 719 91 l 1,49,-1
 516 91 l 1,50,-1
 519 150 l 1,40,-1
759 335 m 1,51,-1
 605 156 l 1,52,-1
 731 156 l 1,53,-1
 759 335 l 1,51,-1
EndSplineSet
EndChar

StartChar: questiondown
Encoding: 191 191 127
Width: 453
GlyphClass: 2
Flags: W
LayerCount: 2
Fore
SplineSet
246 465 m 0,0,1
 246 500 246 500 266.5 525 c 128,-1,2
 287 550 287 550 323 550 c 0,3,4
 378 550 378 550 378 495 c 0,5,6
 378 461 378 461 357.5 435.5 c 128,-1,7
 337 410 337 410 300 410 c 0,8,9
 246 410 246 410 246 465 c 0,0,1
248 304 m 1,10,-1
 335 310 l 1,11,-1
 335 246 l 2,12,13
 335 178 335 178 258 118 c 0,14,15
 225 92 225 92 192 66 c 0,16,17
 115 6 115 6 115 -58 c 128,-1,18
 115 -122 115 -122 207 -122 c 0,19,20
 252 -122 252 -122 297 -113 c 2,21,-1
 312 -110 l 1,22,-1
 317 -182 l 1,23,24
 245 -205 245 -205 180 -205 c 0,25,26
 10 -205 10 -205 10 -75 c 0,27,28
 10 -28 10 -28 34.5 14.5 c 128,-1,29
 59 57 59 57 94 87.5 c 128,-1,30
 129 118 129 118 164 146 c 0,31,32
 248 212 248 212 248 259 c 2,33,-1
 248 304 l 1,10,-1
EndSplineSet
EndChar

StartChar: Agrave
Encoding: 192 192 128
Width: 706
GlyphClass: 2
Flags: W
LayerCount: 2
Fore
SplineSet
481 80 m 1,0,-1
 461 190 l 1,1,-1
 206 190 l 1,2,-1
 151 79 l 1,3,-1
 235 60 l 1,4,-1
 225 0 l 1,5,-1
 -40 0 l 1,6,-1
 -31 60 l 1,7,-1
 54 80 l 1,8,-1
 374 695 l 1,9,-1
 473 700 l 1,10,-1
 593 77 l 1,11,-1
 661 60 l 1,12,-1
 651 0 l 1,13,-1
 386 0 l 1,14,-1
 395 60 l 1,15,-1
 481 80 l 1,0,-1
396 571 m 1,16,-1
 245 270 l 1,17,-1
 447 270 l 1,18,-1
 396 571 l 1,16,-1
540 744 m 1,19,-1
 312 842 l 1,20,-1
 349 921 l 1,21,-1
 567 799 l 1,22,-1
 540 744 l 1,19,-1
EndSplineSet
EndChar

StartChar: Aacute
Encoding: 193 193 129
Width: 706
GlyphClass: 2
Flags: W
LayerCount: 2
Fore
SplineSet
481 80 m 1,0,-1
 461 190 l 1,1,-1
 206 190 l 1,2,-1
 151 79 l 1,3,-1
 235 60 l 1,4,-1
 225 0 l 1,5,-1
 -40 0 l 1,6,-1
 -31 60 l 1,7,-1
 54 80 l 1,8,-1
 374 695 l 1,9,-1
 473 700 l 1,10,-1
 593 77 l 1,11,-1
 661 60 l 1,12,-1
 651 0 l 1,13,-1
 386 0 l 1,14,-1
 395 60 l 1,15,-1
 481 80 l 1,0,-1
396 571 m 1,16,-1
 245 270 l 1,17,-1
 447 270 l 1,18,-1
 396 571 l 1,16,-1
596 841 m 1,19,-1
 368 746 l 1,20,-1
 341 801 l 1,21,-1
 559 920 l 1,22,-1
 596 841 l 1,19,-1
EndSplineSet
EndChar

StartChar: Acircumflex
Encoding: 194 194 130
Width: 706
GlyphClass: 2
Flags: W
LayerCount: 2
Fore
SplineSet
481 80 m 1,0,-1
 461 190 l 1,1,-1
 206 190 l 1,2,-1
 151 79 l 1,3,-1
 235 60 l 1,4,-1
 225 0 l 1,5,-1
 -40 0 l 1,6,-1
 -31 60 l 1,7,-1
 54 80 l 1,8,-1
 374 695 l 1,9,-1
 473 700 l 1,10,-1
 593 77 l 1,11,-1
 661 60 l 1,12,-1
 651 0 l 1,13,-1
 386 0 l 1,14,-1
 395 60 l 1,15,-1
 481 80 l 1,0,-1
396 571 m 1,16,-1
 245 270 l 1,17,-1
 447 270 l 1,18,-1
 396 571 l 1,16,-1
573 750 m 1,19,-1
 458 833 l 1,20,-1
 309 750 l 1,21,-1
 277 795 l 1,22,-1
 438 905 l 1,23,-1
 497 910 l 1,24,-1
 620 795 l 1,25,-1
 573 750 l 1,19,-1
EndSplineSet
EndChar

StartChar: Atilde
Encoding: 195 195 131
Width: 706
GlyphClass: 2
Flags: W
LayerCount: 2
Fore
SplineSet
481 80 m 1,0,-1
 461 190 l 1,1,-1
 206 190 l 1,2,-1
 151 79 l 1,3,-1
 235 60 l 1,4,-1
 225 0 l 1,5,-1
 -40 0 l 1,6,-1
 -31 60 l 1,7,-1
 54 80 l 1,8,-1
 374 695 l 1,9,-1
 473 700 l 1,10,-1
 593 77 l 1,11,-1
 661 60 l 1,12,-1
 651 0 l 1,13,-1
 386 0 l 1,14,-1
 395 60 l 1,15,-1
 481 80 l 1,0,-1
396 571 m 1,16,-1
 245 270 l 1,17,-1
 447 270 l 1,18,-1
 396 571 l 1,16,-1
299 766 m 1,19,-1
 270 796 l 1,20,21
 275 805 275 805 290.5 825 c 128,-1,22
 306 845 306 845 320 858 c 0,23,24
 356 890 356 890 392 890 c 128,-1,25
 428 890 428 890 478.5 867 c 128,-1,26
 529 844 529 844 552 844 c 128,-1,27
 575 844 575 844 592.5 854.5 c 128,-1,28
 610 865 610 865 618 876 c 1,29,-1
 627 886 l 1,30,-1
 657 856 l 1,31,32
 642 827 642 827 620 806 c 0,33,34
 576 766 576 766 540 766 c 128,-1,35
 504 766 504 766 453.5 788 c 128,-1,36
 403 810 403 810 380 810 c 0,37,38
 341 810 341 810 310 777 c 1,39,-1
 299 766 l 1,19,-1
EndSplineSet
EndChar

StartChar: Aring
Encoding: 197 197 133
Width: 706
GlyphClass: 2
Flags: W
LayerCount: 2
Fore
SplineSet
481 80 m 1,0,-1
 461 190 l 1,1,-1
 206 190 l 1,2,-1
 151 79 l 1,3,-1
 235 60 l 1,4,-1
 225 0 l 1,5,-1
 -40 0 l 1,6,-1
 -31 60 l 1,7,-1
 54 80 l 1,8,-1
 374 695 l 1,9,-1
 473 700 l 1,10,-1
 593 77 l 1,11,-1
 661 60 l 1,12,-1
 651 0 l 1,13,-1
 386 0 l 1,14,-1
 395 60 l 1,15,-1
 481 80 l 1,0,-1
396 571 m 1,16,-1
 245 270 l 1,17,-1
 447 270 l 1,18,-1
 396 571 l 1,16,-1
359.5 706 m 128,-1,20
 387 681 387 681 434 681 c 128,-1,21
 481 681 481 681 521 721.5 c 128,-1,22
 561 762 561 762 561 809.5 c 128,-1,23
 561 857 561 857 532.5 881.5 c 128,-1,24
 504 906 504 906 458 906 c 128,-1,25
 412 906 412 906 372 865.5 c 128,-1,26
 332 825 332 825 332 778 c 128,-1,19
 332 731 332 731 359.5 706 c 128,-1,20
457 856 m 0,27,28
 502 856 502 856 502 809 c 0,29,30
 502 778 502 778 484 754.5 c 128,-1,31
 466 731 466 731 437 731 c 0,32,33
 391 731 391 731 391 778 c 0,34,35
 391 809 391 809 409.5 832.5 c 128,-1,36
 428 856 428 856 457 856 c 0,27,28
EndSplineSet
EndChar

StartChar: AE
Encoding: 198 198 134
Width: 959
GlyphClass: 2
Flags: W
LayerCount: 2
Fore
SplineSet
58 80 m 1,0,-1
 415 620 l 1,1,-1
 336 640 l 1,2,-1
 345 695 l 1,3,-1
 536 700 l 1,4,-1
 938 700 l 1,5,-1
 911 530 l 1,6,-1
 855 530 l 1,7,-1
 845 620 l 1,8,-1
 624 620 l 1,9,-1
 589 405 l 1,10,-1
 817 405 l 1,11,-1
 805 325 l 1,12,-1
 577 325 l 1,13,-1
 538 80 l 1,14,-1
 765 80 l 1,15,-1
 802 182 l 1,16,-1
 868 182 l 1,17,-1
 837 0 l 1,18,-1
 340 0 l 1,19,-1
 350 60 l 1,20,-1
 438 80 l 1,21,-1
 458 205 l 1,22,-1
 241 205 l 1,23,-1
 158 77 l 1,24,-1
 233 60 l 1,25,-1
 223 0 l 1,26,-1
 -37 0 l 1,27,-1
 -27 60 l 1,28,-1
 58 80 l 1,0,-1
524 620 m 1,29,-1
 507 620 l 1,30,-1
 292 285 l 1,31,-1
 470 285 l 1,32,-1
 524 620 l 1,29,-1
EndSplineSet
EndChar

StartChar: Ccedilla
Encoding: 199 199 135
Width: 628
GlyphClass: 2
Flags: W
LayerCount: 2
Fore
SplineSet
663 660 m 1,0,-1
 636 490 l 1,1,-1
 578 490 l 1,2,-1
 566 600 l 1,3,4
 505 625 505 625 430 625 c 128,-1,5
 355 625 355 625 294 573 c 128,-1,6
 233 521 233 521 201.5 439 c 128,-1,7
 170 357 170 357 170 268.5 c 128,-1,8
 170 180 170 180 213.5 129 c 128,-1,9
 257 78 257 78 328 78 c 0,10,11
 444 78 444 78 550 156 c 1,12,-1
 586 97 l 1,13,14
 453 -10 453 -10 308 -10 c 0,15,16
 192 -10 192 -10 126 58.5 c 128,-1,17
 60 127 60 127 60 244 c 0,18,19
 60 448 60 448 171 579 c 128,-1,20
 282 710 282 710 452 710 c 0,21,22
 501 710 501 710 553.5 697.5 c 128,-1,23
 606 685 606 685 634 672 c 1,24,-1
 663 660 l 1,0,-1
223 -155 m 1,25,26
 254 -171 254 -171 283 -171 c 128,-1,27
 312 -171 312 -171 329.5 -157.5 c 128,-1,28
 347 -144 347 -144 347 -122 c 0,29,30
 347 -79 347 -79 274 -79 c 1,31,-1
 287 0 l 1,32,-1
 346 0 l 1,33,-1
 339 -43 l 1,34,35
 411 -56 411 -56 411 -115 c 0,36,37
 411 -159 411 -159 377 -189 c 128,-1,38
 343 -219 343 -219 305 -219 c 0,39,40
 235 -219 235 -219 204 -202 c 2,41,-1
 193 -196 l 1,42,-1
 223 -155 l 1,25,26
EndSplineSet
EndChar

StartChar: Egrave
Encoding: 200 200 136
Width: 578
GlyphClass: 2
Flags: W
LayerCount: 2
Fore
SplineSet
103 80 m 1,0,-1
 189 620 l 1,1,-1
 107 640 l 1,2,-1
 116 695 l 1,3,-1
 302 700 l 1,4,-1
 603 700 l 1,5,-1
 576 530 l 1,6,-1
 520 530 l 1,7,-1
 510 620 l 1,8,-1
 289 620 l 1,9,-1
 254 405 l 1,10,-1
 482 405 l 1,11,-1
 470 325 l 1,12,-1
 242 325 l 1,13,-1
 203 80 l 1,14,-1
 430 80 l 1,15,-1
 467 182 l 1,16,-1
 533 182 l 1,17,-1
 502 0 l 1,18,-1
 5 0 l 1,19,-1
 15 60 l 1,20,-1
 103 80 l 1,0,-1
472 744 m 1,21,-1
 244 842 l 1,22,-1
 281 921 l 1,23,-1
 499 799 l 1,24,-1
 472 744 l 1,21,-1
EndSplineSet
EndChar

StartChar: Eacute
Encoding: 201 201 137
Width: 576
GlyphClass: 2
Flags: W
LayerCount: 2
Fore
SplineSet
101 80 m 1,0,-1
 187 620 l 1,1,-1
 105 640 l 1,2,-1
 114 695 l 1,3,-1
 300 700 l 1,4,-1
 601 700 l 1,5,-1
 574 530 l 1,6,-1
 518 530 l 1,7,-1
 508 620 l 1,8,-1
 287 620 l 1,9,-1
 252 405 l 1,10,-1
 480 405 l 1,11,-1
 468 325 l 1,12,-1
 240 325 l 1,13,-1
 201 80 l 1,14,-1
 428 80 l 1,15,-1
 465 182 l 1,16,-1
 531 182 l 1,17,-1
 500 0 l 1,18,-1
 3 0 l 1,19,-1
 13 60 l 1,20,-1
 101 80 l 1,0,-1
569 841 m 1,21,-1
 341 746 l 1,22,-1
 314 801 l 1,23,-1
 532 920 l 1,24,-1
 569 841 l 1,21,-1
EndSplineSet
EndChar

StartChar: Ecircumflex
Encoding: 202 202 138
Width: 578
GlyphClass: 2
Flags: W
LayerCount: 2
Fore
SplineSet
103 80 m 1,0,-1
 189 620 l 1,1,-1
 107 640 l 1,2,-1
 116 695 l 1,3,-1
 302 700 l 1,4,-1
 603 700 l 1,5,-1
 576 530 l 1,6,-1
 520 530 l 1,7,-1
 510 620 l 1,8,-1
 289 620 l 1,9,-1
 254 405 l 1,10,-1
 482 405 l 1,11,-1
 470 325 l 1,12,-1
 242 325 l 1,13,-1
 203 80 l 1,14,-1
 430 80 l 1,15,-1
 467 182 l 1,16,-1
 533 182 l 1,17,-1
 502 0 l 1,18,-1
 5 0 l 1,19,-1
 15 60 l 1,20,-1
 103 80 l 1,0,-1
518 750 m 1,21,-1
 403 833 l 1,22,-1
 254 750 l 1,23,-1
 222 795 l 1,24,-1
 383 905 l 1,25,-1
 442 910 l 1,26,-1
 565 795 l 1,27,-1
 518 750 l 1,21,-1
EndSplineSet
EndChar

StartChar: Edieresis
Encoding: 203 203 139
Width: 578
GlyphClass: 2
Flags: W
LayerCount: 2
Fore
SplineSet
103 80 m 1,0,-1
 189 620 l 1,1,-1
 107 640 l 1,2,-1
 116 695 l 1,3,-1
 302 700 l 1,4,-1
 603 700 l 1,5,-1
 576 530 l 1,6,-1
 520 530 l 1,7,-1
 510 620 l 1,8,-1
 289 620 l 1,9,-1
 254 405 l 1,10,-1
 482 405 l 1,11,-1
 470 325 l 1,12,-1
 242 325 l 1,13,-1
 203 80 l 1,14,-1
 430 80 l 1,15,-1
 467 182 l 1,16,-1
 533 182 l 1,17,-1
 502 0 l 1,18,-1
 5 0 l 1,19,-1
 15 60 l 1,20,-1
 103 80 l 1,0,-1
486 765 m 0,21,22
 441 765 441 765 441 815 c 0,23,24
 441 841 441 841 459 863 c 128,-1,25
 477 885 477 885 505 885 c 0,26,27
 551 885 551 885 551 839 c 0,28,29
 551 809 551 809 532 787 c 128,-1,30
 513 765 513 765 486 765 c 0,21,22
285 765 m 0,31,32
 240 765 240 765 240 815 c 0,33,34
 240 841 240 841 258 863 c 128,-1,35
 276 885 276 885 304 885 c 0,36,37
 350 885 350 885 350 839 c 0,38,39
 350 809 350 809 331 787 c 128,-1,40
 312 765 312 765 285 765 c 0,31,32
EndSplineSet
EndChar

StartChar: Igrave
Encoding: 204 204 140
Width: 374
GlyphClass: 2
Flags: W
LayerCount: 2
Fore
SplineSet
110 80 m 1,0,-1
 196 620 l 1,1,-1
 112 640 l 1,2,-1
 121 695 l 1,3,-1
 394 700 l 1,4,-1
 384 640 l 1,5,-1
 296 620 l 1,6,-1
 209 80 l 1,7,-1
 293 60 l 1,8,-1
 283 0 l 1,9,-1
 10 0 l 1,10,-1
 20 60 l 1,11,-1
 110 80 l 1,0,-1
341 744 m 1,12,-1
 113 842 l 1,13,-1
 150 921 l 1,14,-1
 368 799 l 1,15,-1
 341 744 l 1,12,-1
EndSplineSet
EndChar

StartChar: Iacute
Encoding: 205 205 141
Width: 427
GlyphClass: 2
Flags: W
LayerCount: 2
Fore
SplineSet
110 80 m 1,0,-1
 196 620 l 1,1,-1
 112 640 l 1,2,-1
 121 695 l 1,3,-1
 394 700 l 1,4,-1
 384 640 l 1,5,-1
 296 620 l 1,6,-1
 209 80 l 1,7,-1
 293 60 l 1,8,-1
 283 0 l 1,9,-1
 10 0 l 1,10,-1
 20 60 l 1,11,-1
 110 80 l 1,0,-1
447 841 m 1,12,-1
 219 746 l 1,13,-1
 192 801 l 1,14,-1
 410 920 l 1,15,-1
 447 841 l 1,12,-1
EndSplineSet
EndChar

StartChar: Icircumflex
Encoding: 206 206 142
Width: 418
GlyphClass: 2
Flags: W
LayerCount: 2
Fore
SplineSet
110 80 m 1,0,-1
 196 620 l 1,1,-1
 112 640 l 1,2,-1
 121 695 l 1,3,-1
 394 700 l 1,4,-1
 384 640 l 1,5,-1
 296 620 l 1,6,-1
 209 80 l 1,7,-1
 293 60 l 1,8,-1
 283 0 l 1,9,-1
 10 0 l 1,10,-1
 20 60 l 1,11,-1
 110 80 l 1,0,-1
391 750 m 1,12,-1
 281 833 l 1,13,-1
 137 750 l 1,14,-1
 105 795 l 1,15,-1
 261 905 l 1,16,-1
 320 910 l 1,17,-1
 438 795 l 1,18,-1
 391 750 l 1,12,-1
EndSplineSet
EndChar

StartChar: Idieresis
Encoding: 207 207 143
Width: 412
GlyphClass: 2
Flags: W
LayerCount: 2
Fore
SplineSet
110 80 m 1,0,-1
 196 620 l 1,1,-1
 112 640 l 1,2,-1
 121 695 l 1,3,-1
 394 700 l 1,4,-1
 384 640 l 1,5,-1
 296 620 l 1,6,-1
 209 80 l 1,7,-1
 293 60 l 1,8,-1
 283 0 l 1,9,-1
 10 0 l 1,10,-1
 20 60 l 1,11,-1
 110 80 l 1,0,-1
367 765 m 0,12,13
 322 765 322 765 322 815 c 0,14,15
 322 841 322 841 340 863 c 128,-1,16
 358 885 358 885 386 885 c 0,17,18
 432 885 432 885 432 839 c 0,19,20
 432 809 432 809 413 787 c 128,-1,21
 394 765 394 765 367 765 c 0,12,13
166 765 m 0,22,23
 121 765 121 765 121 815 c 0,24,25
 121 841 121 841 139 863 c 128,-1,26
 157 885 157 885 185 885 c 0,27,28
 231 885 231 885 231 839 c 0,29,30
 231 809 231 809 212 787 c 128,-1,31
 193 765 193 765 166 765 c 0,22,23
EndSplineSet
EndChar

StartChar: Eth
Encoding: 208 208 144
Width: 743
GlyphClass: 2
Flags: W
LayerCount: 2
Fore
SplineSet
82 325 m 1,0,-1
 95 405 l 1,1,-1
 178 405 l 1,2,-1
 213 620 l 1,3,-1
 132 640 l 1,4,-1
 141 695 l 1,5,-1
 326 700 l 1,6,-1
 455 700 l 2,7,8
 567 700 567 700 636 637 c 128,-1,9
 705 574 705 574 705 465 c 0,10,11
 705 243 705 243 595 121.5 c 128,-1,12
 485 0 485 0 295 0 c 2,13,-1
 30 0 l 1,14,-1
 40 60 l 1,15,-1
 126 79 l 1,16,-1
 166 325 l 1,17,-1
 82 325 l 1,0,-1
420 325 m 1,18,-1
 267 325 l 1,19,-1
 228 80 l 1,20,-1
 310 80 l 2,21,22
 446 80 446 80 523 182 c 128,-1,23
 600 284 600 284 600 452 c 0,24,25
 600 532 600 532 559 576 c 128,-1,26
 518 620 518 620 440 620 c 2,27,-1
 314 620 l 1,28,-1
 279 405 l 1,29,-1
 431 405 l 1,30,-1
 420 325 l 1,18,-1
EndSplineSet
EndChar

StartChar: Ntilde
Encoding: 209 209 145
Width: 786
GlyphClass: 2
Flags: W
LayerCount: 2
Fore
SplineSet
327 700 m 1,0,-1
 561 141 l 1,1,-1
 637 620 l 1,2,-1
 557 640 l 1,3,-1
 566 695 l 1,4,-1
 821 700 l 1,5,-1
 811 640 l 1,6,-1
 726 620 l 1,7,-1
 628 0 l 1,8,-1
 515 0 l 1,9,-1
 271 563 l 1,10,-1
 194 80 l 1,11,-1
 276 60 l 1,12,-1
 265 0 l 1,13,-1
 5 0 l 1,14,-1
 16 60 l 1,15,-1
 105 80 l 1,16,-1
 191 620 l 1,17,-1
 108 640 l 1,18,-1
 117 695 l 1,19,-1
 327 700 l 1,0,-1
296 766 m 1,20,-1
 267 796 l 1,21,22
 272 805 272 805 287.5 825 c 128,-1,23
 303 845 303 845 317 858 c 0,24,25
 353 890 353 890 389 890 c 128,-1,26
 425 890 425 890 475.5 867 c 128,-1,27
 526 844 526 844 549 844 c 128,-1,28
 572 844 572 844 589.5 854.5 c 128,-1,29
 607 865 607 865 616 876 c 2,30,-1
 624 886 l 1,31,-1
 654 856 l 1,32,33
 640 827 640 827 617 806 c 0,34,35
 573 766 573 766 537 766 c 128,-1,36
 501 766 501 766 450.5 788 c 128,-1,37
 400 810 400 810 378 810 c 0,38,39
 338 810 338 810 306 777 c 1,40,-1
 296 766 l 1,20,-1
EndSplineSet
EndChar

StartChar: Ograve
Encoding: 210 210 146
Width: 740
GlyphClass: 2
Flags: W
LayerCount: 2
Fore
SplineSet
301 -10 m 0,0,1
 189 -10 189 -10 124.5 55.5 c 128,-1,2
 60 121 60 121 60 234 c 0,3,4
 60 444 60 444 171.5 577 c 128,-1,5
 283 710 283 710 452 710 c 0,6,7
 571 710 571 710 638 642.5 c 128,-1,8
 705 575 705 575 705 465 c 0,9,10
 705 250 705 250 590.5 120 c 128,-1,11
 476 -10 476 -10 301 -10 c 0,0,1
595 452 m 0,12,13
 595 540 595 540 552.5 582.5 c 128,-1,14
 510 625 510 625 435 625 c 0,15,16
 318 625 318 625 244 513.5 c 128,-1,17
 170 402 170 402 170 244 c 0,18,19
 170 161 170 161 210.5 118 c 128,-1,20
 251 75 251 75 323 75 c 0,21,22
 442 75 442 75 518.5 182.5 c 128,-1,23
 595 290 595 290 595 452 c 0,12,13
530 744 m 1,24,-1
 302 842 l 1,25,-1
 339 921 l 1,26,-1
 557 799 l 1,27,-1
 530 744 l 1,24,-1
EndSplineSet
EndChar

StartChar: Oacute
Encoding: 211 211 147
Width: 740
GlyphClass: 2
Flags: W
LayerCount: 2
Fore
SplineSet
301 -10 m 0,0,1
 189 -10 189 -10 124.5 55.5 c 128,-1,2
 60 121 60 121 60 234 c 0,3,4
 60 444 60 444 171.5 577 c 128,-1,5
 283 710 283 710 452 710 c 0,6,7
 571 710 571 710 638 642.5 c 128,-1,8
 705 575 705 575 705 465 c 0,9,10
 705 250 705 250 590.5 120 c 128,-1,11
 476 -10 476 -10 301 -10 c 0,0,1
595 452 m 0,12,13
 595 540 595 540 552.5 582.5 c 128,-1,14
 510 625 510 625 435 625 c 0,15,16
 318 625 318 625 244 513.5 c 128,-1,17
 170 402 170 402 170 244 c 0,18,19
 170 161 170 161 210.5 118 c 128,-1,20
 251 75 251 75 323 75 c 0,21,22
 442 75 442 75 518.5 182.5 c 128,-1,23
 595 290 595 290 595 452 c 0,12,13
601 841 m 1,24,-1
 373 746 l 1,25,-1
 346 801 l 1,26,-1
 564 920 l 1,27,-1
 601 841 l 1,24,-1
EndSplineSet
EndChar

StartChar: Ocircumflex
Encoding: 212 212 148
Width: 740
GlyphClass: 2
Flags: W
LayerCount: 2
Fore
SplineSet
301 -10 m 0,0,1
 189 -10 189 -10 124.5 55.5 c 128,-1,2
 60 121 60 121 60 234 c 0,3,4
 60 444 60 444 171.5 577 c 128,-1,5
 283 710 283 710 452 710 c 0,6,7
 571 710 571 710 638 642.5 c 128,-1,8
 705 575 705 575 705 465 c 0,9,10
 705 250 705 250 590.5 120 c 128,-1,11
 476 -10 476 -10 301 -10 c 0,0,1
595 452 m 0,12,13
 595 540 595 540 552.5 582.5 c 128,-1,14
 510 625 510 625 435 625 c 0,15,16
 318 625 318 625 244 513.5 c 128,-1,17
 170 402 170 402 170 244 c 0,18,19
 170 161 170 161 210.5 118 c 128,-1,20
 251 75 251 75 323 75 c 0,21,22
 442 75 442 75 518.5 182.5 c 128,-1,23
 595 290 595 290 595 452 c 0,12,13
567 750 m 1,24,-1
 452 833 l 1,25,-1
 303 750 l 1,26,-1
 271 795 l 1,27,-1
 432 905 l 1,28,-1
 491 910 l 1,29,-1
 614 795 l 1,30,-1
 567 750 l 1,24,-1
EndSplineSet
EndChar

StartChar: Otilde
Encoding: 213 213 149
Width: 740
GlyphClass: 2
Flags: W
LayerCount: 2
Fore
SplineSet
301 -10 m 0,0,1
 189 -10 189 -10 124.5 55.5 c 128,-1,2
 60 121 60 121 60 234 c 0,3,4
 60 444 60 444 171.5 577 c 128,-1,5
 283 710 283 710 452 710 c 0,6,7
 571 710 571 710 638 642.5 c 128,-1,8
 705 575 705 575 705 465 c 0,9,10
 705 250 705 250 590.5 120 c 128,-1,11
 476 -10 476 -10 301 -10 c 0,0,1
595 452 m 0,12,13
 595 540 595 540 552.5 582.5 c 128,-1,14
 510 625 510 625 435 625 c 0,15,16
 318 625 318 625 244 513.5 c 128,-1,17
 170 402 170 402 170 244 c 0,18,19
 170 161 170 161 210.5 118 c 128,-1,20
 251 75 251 75 323 75 c 0,21,22
 442 75 442 75 518.5 182.5 c 128,-1,23
 595 290 595 290 595 452 c 0,12,13
299 766 m 1,24,-1
 270 796 l 1,25,26
 275 805 275 805 290.5 825 c 128,-1,27
 306 845 306 845 320 858 c 0,28,29
 356 890 356 890 392 890 c 128,-1,30
 428 890 428 890 478.5 867 c 128,-1,31
 529 844 529 844 552 844 c 128,-1,32
 575 844 575 844 592.5 854.5 c 128,-1,33
 610 865 610 865 618 876 c 1,34,-1
 627 886 l 1,35,-1
 657 856 l 1,36,37
 642 827 642 827 620 806 c 0,38,39
 576 766 576 766 540 766 c 128,-1,40
 504 766 504 766 453.5 788 c 128,-1,41
 403 810 403 810 380 810 c 0,42,43
 341 810 341 810 310 777 c 1,44,-1
 299 766 l 1,24,-1
EndSplineSet
EndChar

StartChar: Odieresis
Encoding: 214 214 150
Width: 740
GlyphClass: 2
Flags: W
LayerCount: 2
Fore
SplineSet
301 -10 m 0,0,1
 189 -10 189 -10 124.5 55.5 c 128,-1,2
 60 121 60 121 60 234 c 0,3,4
 60 444 60 444 171.5 577 c 128,-1,5
 283 710 283 710 452 710 c 0,6,7
 571 710 571 710 638 642.5 c 128,-1,8
 705 575 705 575 705 465 c 0,9,10
 705 250 705 250 590.5 120 c 128,-1,11
 476 -10 476 -10 301 -10 c 0,0,1
595 452 m 0,12,13
 595 540 595 540 552.5 582.5 c 128,-1,14
 510 625 510 625 435 625 c 0,15,16
 318 625 318 625 244 513.5 c 128,-1,17
 170 402 170 402 170 244 c 0,18,19
 170 161 170 161 210.5 118 c 128,-1,20
 251 75 251 75 323 75 c 0,21,22
 442 75 442 75 518.5 182.5 c 128,-1,23
 595 290 595 290 595 452 c 0,12,13
553 765 m 0,24,25
 508 765 508 765 508 815 c 0,26,27
 508 841 508 841 526 863 c 128,-1,28
 544 885 544 885 572 885 c 0,29,30
 618 885 618 885 618 839 c 0,31,32
 618 809 618 809 599 787 c 128,-1,33
 580 765 580 765 553 765 c 0,24,25
352 765 m 0,34,35
 307 765 307 765 307 815 c 0,36,37
 307 841 307 841 325 863 c 128,-1,38
 343 885 343 885 371 885 c 0,39,40
 417 885 417 885 417 839 c 0,41,42
 417 809 417 809 398 787 c 128,-1,43
 379 765 379 765 352 765 c 0,34,35
EndSplineSet
EndChar

StartChar: multiply
Encoding: 215 215 151
Width: 629
GlyphClass: 2
Flags: W
LayerCount: 2
Fore
SplineSet
109 449 m 1,0,-1
 173 505 l 1,1,-1
 323 321 l 1,2,-1
 533 505 l 1,3,-1
 579 449 l 1,4,-1
 370 265 l 1,5,-1
 520 81 l 1,6,-1
 456 25 l 1,7,-1
 306 209 l 1,8,-1
 96 25 l 1,9,-1
 50 81 l 1,10,-1
 260 265 l 1,11,-1
 109 449 l 1,0,-1
EndSplineSet
EndChar

StartChar: Oslash
Encoding: 216 216 152
Width: 765
GlyphClass: 2
Flags: W
LayerCount: 2
Fore
SplineSet
302 -10 m 0,0,1
 230 -10 230 -10 177 19 c 1,2,-1
 84 -105 l 1,3,-1
 26 -70 l 1,4,-1
 124 61 l 1,5,6
 66 127 66 127 66 234 c 0,7,8
 66 444 66 444 175.5 577 c 128,-1,9
 285 710 285 710 453 710 c 0,10,11
 530 710 530 710 587 679 c 1,12,-1
 666 785 l 1,13,-1
 723 750 l 1,14,-1
 640 639 l 1,15,16
 701 576 701 576 701 475 c 0,17,18
 701 253 701 253 589 121.5 c 128,-1,19
 477 -10 477 -10 302 -10 c 0,0,1
596 462 m 0,20,21
 596 516 596 516 577 554 c 1,22,-1
 235 98 l 1,23,24
 270 75 270 75 324 75 c 0,25,26
 444 75 444 75 520 184 c 128,-1,27
 596 293 596 293 596 462 c 0,20,21
171 244 m 0,28,29
 171 189 171 189 190 149 c 1,30,-1
 530 604 l 1,31,32
 495 625 495 625 436 625 c 0,33,34
 319 625 319 625 245 513.5 c 128,-1,35
 171 402 171 402 171 244 c 0,28,29
EndSplineSet
EndChar

StartChar: Ugrave
Encoding: 217 217 153
Width: 735
GlyphClass: 2
Flags: W
LayerCount: 2
Fore
SplineSet
686 620 m 1,0,-1
 634 295 l 2,1,2
 611 146 611 146 537.5 68 c 128,-1,3
 464 -10 464 -10 317 -10 c 0,4,5
 199 -10 199 -10 148 42.5 c 128,-1,6
 97 95 97 95 97 190 c 0,7,8
 97 221 97 221 104 270 c 2,9,-1
 160 620 l 1,10,-1
 75 640 l 1,11,-1
 84 695 l 1,12,-1
 358 700 l 1,13,-1
 348 640 l 1,14,-1
 261 620 l 1,15,-1
 205 270 l 2,16,17
 199 234 199 234 199 201 c 0,18,19
 199 140 199 140 229.5 107.5 c 128,-1,20
 260 75 260 75 342.5 75 c 128,-1,21
 425 75 425 75 469 123 c 128,-1,22
 513 171 513 171 531 285 c 2,23,-1
 585 620 l 1,24,-1
 495 640 l 1,25,-1
 504 695 l 1,26,-1
 780 700 l 1,27,-1
 770 640 l 1,28,-1
 686 620 l 1,0,-1
519 744 m 1,29,-1
 291 842 l 1,30,-1
 328 921 l 1,31,-1
 546 799 l 1,32,-1
 519 744 l 1,29,-1
EndSplineSet
EndChar

StartChar: Uacute
Encoding: 218 218 154
Width: 735
GlyphClass: 2
Flags: W
LayerCount: 2
Fore
SplineSet
686 620 m 1,0,-1
 634 295 l 2,1,2
 611 146 611 146 537.5 68 c 128,-1,3
 464 -10 464 -10 317 -10 c 0,4,5
 199 -10 199 -10 148 42.5 c 128,-1,6
 97 95 97 95 97 190 c 0,7,8
 97 221 97 221 104 270 c 2,9,-1
 160 620 l 1,10,-1
 75 640 l 1,11,-1
 84 695 l 1,12,-1
 358 700 l 1,13,-1
 348 640 l 1,14,-1
 261 620 l 1,15,-1
 205 270 l 2,16,17
 199 234 199 234 199 201 c 0,18,19
 199 140 199 140 229.5 107.5 c 128,-1,20
 260 75 260 75 342.5 75 c 128,-1,21
 425 75 425 75 469 123 c 128,-1,22
 513 171 513 171 531 285 c 2,23,-1
 585 620 l 1,24,-1
 495 640 l 1,25,-1
 504 695 l 1,26,-1
 780 700 l 1,27,-1
 770 640 l 1,28,-1
 686 620 l 1,0,-1
635 841 m 1,29,-1
 407 746 l 1,30,-1
 380 801 l 1,31,-1
 598 920 l 1,32,-1
 635 841 l 1,29,-1
EndSplineSet
EndChar

StartChar: Ucircumflex
Encoding: 219 219 155
Width: 735
GlyphClass: 2
Flags: W
LayerCount: 2
Fore
SplineSet
686 620 m 1,0,-1
 634 295 l 2,1,2
 611 146 611 146 537.5 68 c 128,-1,3
 464 -10 464 -10 317 -10 c 0,4,5
 199 -10 199 -10 148 42.5 c 128,-1,6
 97 95 97 95 97 190 c 0,7,8
 97 221 97 221 104 270 c 2,9,-1
 160 620 l 1,10,-1
 75 640 l 1,11,-1
 84 695 l 1,12,-1
 358 700 l 1,13,-1
 348 640 l 1,14,-1
 261 620 l 1,15,-1
 205 270 l 2,16,17
 199 234 199 234 199 201 c 0,18,19
 199 140 199 140 229.5 107.5 c 128,-1,20
 260 75 260 75 342.5 75 c 128,-1,21
 425 75 425 75 469 123 c 128,-1,22
 513 171 513 171 531 285 c 2,23,-1
 585 620 l 1,24,-1
 495 640 l 1,25,-1
 504 695 l 1,26,-1
 780 700 l 1,27,-1
 770 640 l 1,28,-1
 686 620 l 1,0,-1
576 750 m 1,29,-1
 461 833 l 1,30,-1
 312 750 l 1,31,-1
 280 795 l 1,32,-1
 441 905 l 1,33,-1
 500 910 l 1,34,-1
 623 795 l 1,35,-1
 576 750 l 1,29,-1
EndSplineSet
EndChar

StartChar: Yacute
Encoding: 221 221 157
Width: 609
GlyphClass: 2
Flags: W
LayerCount: 2
Fore
SplineSet
210 80 m 1,0,-1
 238 262 l 1,1,-1
 134 620 l 1,2,-1
 40 640 l 1,3,-1
 49 695 l 1,4,-1
 214 700 l 1,5,-1
 314 334 l 1,6,-1
 482 621 l 1,7,-1
 407 640 l 1,8,-1
 417 695 l 1,9,-1
 674 700 l 1,10,-1
 664 640 l 1,11,-1
 581 620 l 1,12,-1
 334 231 l 1,13,-1
 310 80 l 1,14,-1
 393 60 l 1,15,-1
 383 0 l 1,16,-1
 110 0 l 1,17,-1
 120 60 l 1,18,-1
 210 80 l 1,0,-1
580 841 m 1,19,-1
 352 746 l 1,20,-1
 325 801 l 1,21,-1
 543 920 l 1,22,-1
 580 841 l 1,19,-1
EndSplineSet
EndChar

StartChar: Thorn
Encoding: 222 222 158
Width: 605
GlyphClass: 2
Flags: W
LayerCount: 2
Fore
SplineSet
273 620 m 1,0,-1
 264 565 l 1,1,-1
 368 565 l 2,2,3
 461 565 461 565 512 525.5 c 128,-1,4
 563 486 563 486 563 415 c 0,5,6
 563 295 563 295 482 225 c 128,-1,7
 401 155 401 155 268 155 c 2,8,-1
 198 155 l 1,9,-1
 186 80 l 1,10,-1
 268 60 l 1,11,-1
 258 0 l 1,12,-1
 -12 0 l 1,13,-1
 -3 60 l 1,14,-1
 85 80 l 1,15,-1
 171 620 l 1,16,-1
 90 640 l 1,17,-1
 98 695 l 1,18,-1
 370 700 l 1,19,-1
 360 640 l 1,20,-1
 273 620 l 1,0,-1
350 485 m 2,21,-1
 251 485 l 1,22,-1
 211 235 l 1,23,-1
 283 235 l 2,24,25
 368 235 368 235 415.5 276 c 128,-1,26
 463 317 463 317 463 391 c 0,27,28
 463 485 463 485 350 485 c 2,21,-1
EndSplineSet
EndChar

StartChar: germandbls
Encoding: 223 223 159
Width: 726
GlyphClass: 2
Flags: W
LayerCount: 2
Fore
SplineSet
119 -40 m 2,0,-1
 197 450 l 1,1,-1
 93 450 l 1,2,-1
 103 515 l 1,3,-1
 209 525 l 1,4,-1
 214 553 l 2,5,6
 234 661 234 661 300 720.5 c 128,-1,7
 366 780 366 780 461 780 c 128,-1,8
 556 780 556 780 610.5 748 c 128,-1,9
 665 716 665 716 665 648 c 0,10,11
 665 609 665 609 648 576.5 c 128,-1,12
 631 544 631 544 606.5 523 c 128,-1,13
 582 502 582 502 558 483 c 0,14,15
 499 438 499 438 499 403.5 c 128,-1,16
 499 369 499 369 529 346 c 128,-1,17
 559 323 559 323 594.5 309 c 128,-1,18
 630 295 630 295 660 263.5 c 128,-1,19
 690 232 690 232 690 186 c 0,20,21
 690 105 690 105 618 47.5 c 128,-1,22
 546 -10 546 -10 458 -10 c 0,23,24
 383 -10 383 -10 332 6 c 1,25,-1
 315 12 l 1,26,-1
 338 156 l 1,27,-1
 401 156 l 1,28,-1
 404 75 l 1,29,30
 422 65 422 65 470 65 c 128,-1,31
 518 65 518 65 550.5 90.5 c 128,-1,32
 583 116 583 116 583 155 c 0,33,34
 583 198 583 198 516 232 c 0,35,36
 488 246 488 246 460.5 261.5 c 128,-1,37
 433 277 433 277 413.5 303.5 c 128,-1,38
 394 330 394 330 394 370 c 128,-1,39
 394 410 394 410 411.5 443 c 128,-1,40
 429 476 429 476 454 496.5 c 128,-1,41
 479 517 479 517 504 535 c 0,42,43
 564 578 564 578 564 630 c 0,44,45
 564 705 564 705 460 705 c 0,46,47
 406 705 406 705 364.5 668.5 c 128,-1,48
 323 632 323 632 312 564 c 2,49,-1
 217 -20 l 2,50,51
 182 -240 182 -240 8 -240 c 0,52,53
 -28 -240 -28 -240 -58 -232 c 1,54,-1
 -68 -230 l 1,55,-1
 -55 -159 l 1,56,-1
 1 -159 l 2,57,58
 100 -159 100 -159 119 -40 c 2,0,-1
EndSplineSet
EndChar

StartChar: ae
Encoding: 230 230 166
Width: 799
GlyphClass: 2
Flags: W
LayerCount: 2
Fore
SplineSet
779 410 m 0,0,1
 779 322 779 322 684.5 272.5 c 128,-1,2
 590 223 590 223 432 223 c 1,3,4
 429 199 429 199 429 178 c 0,5,6
 429 123 429 123 456 96.5 c 128,-1,7
 483 70 483 70 539 70 c 0,8,9
 571 70 571 70 611 81 c 128,-1,10
 651 92 651 92 675 104 c 2,11,-1
 699 115 l 1,12,-1
 729 64 l 1,13,14
 718 56 718 56 697.5 43.5 c 128,-1,15
 677 31 677 31 619 10.5 c 128,-1,16
 561 -10 561 -10 509 -10 c 0,17,18
 384 -10 384 -10 350 96 c 1,19,20
 312 49 312 49 259 19.5 c 128,-1,21
 206 -10 206 -10 152 -10 c 128,-1,22
 98 -10 98 -10 64 22 c 128,-1,23
 30 54 30 54 30 110 c 0,24,25
 30 201 30 201 95.5 246.5 c 128,-1,26
 161 292 161 292 275 292 c 2,27,-1
 351 292 l 1,28,-1
 364 375 l 2,29,30
 366 389 366 389 366 395 c 0,31,32
 366 465 366 465 287 465 c 0,33,34
 228 465 228 465 196 454 c 2,35,-1
 185 450 l 1,36,-1
 157 375 l 1,37,-1
 100 375 l 1,38,-1
 116 500 l 1,39,40
 220 540 220 540 295.5 540 c 128,-1,41
 371 540 371 540 403.5 521.5 c 128,-1,42
 436 503 436 503 444 462 c 1,43,44
 516 540 516 540 614 540 c 0,45,46
 690 540 690 540 734.5 504.5 c 128,-1,47
 779 469 779 469 779 410 c 0,0,1
441 293 m 1,48,49
 551 293 551 293 617.5 320.5 c 128,-1,50
 684 348 684 348 684 400 c 0,51,52
 684 465 684 465 609 465 c 0,53,54
 555 465 555 465 508 416.5 c 128,-1,55
 461 368 461 368 441 293 c 1,48,49
341 227 m 1,56,-1
 274 227 l 2,57,58
 125 227 125 227 125 130 c 0,59,60
 125 104 125 104 144 87 c 128,-1,61
 163 70 163 70 190 70 c 0,62,63
 244 70 244 70 288.5 120 c 128,-1,64
 333 170 333 170 341 227 c 1,56,-1
EndSplineSet
EndChar

StartChar: egrave
Encoding: 232 232 168
Width: 504
GlyphClass: 2
Flags: W
LayerCount: 2
Fore
SplineSet
484 410 m 0,0,1
 484 324 484 324 386.5 270.5 c 128,-1,2
 289 217 289 217 133 217 c 1,3,4
 130 195 130 195 130 174 c 0,5,6
 130 70 130 70 240 70 c 0,7,8
 272 70 272 70 313 81 c 128,-1,9
 354 92 354 92 379 104 c 2,10,-1
 404 115 l 1,11,-1
 434 64 l 1,12,13
 422 56 422 56 401 43.5 c 128,-1,14
 380 31 380 31 321 10.5 c 128,-1,15
 262 -10 262 -10 210 -10 c 0,16,17
 128 -10 128 -10 79 38 c 128,-1,18
 30 86 30 86 30 165 c 0,19,20
 30 323 30 323 114.5 431.5 c 128,-1,21
 199 540 199 540 319 540 c 0,22,23
 395 540 395 540 439.5 504.5 c 128,-1,24
 484 469 484 469 484 410 c 0,0,1
142 287 m 1,25,26
 249 287 249 287 319 319 c 128,-1,27
 389 351 389 351 389 400 c 0,28,29
 389 465 389 465 314 465 c 0,30,31
 259 465 259 465 210 415 c 128,-1,32
 161 365 161 365 142 287 c 1,25,26
400 603 m 1,33,-1
 182 728 l 1,34,-1
 225 803 l 1,35,-1
 431 656 l 1,36,-1
 400 603 l 1,33,-1
EndSplineSet
EndChar

StartChar: eacute
Encoding: 233 233 169
Width: 507
GlyphClass: 2
Flags: W
LayerCount: 2
Fore
SplineSet
484 410 m 0,0,1
 484 324 484 324 386.5 270.5 c 128,-1,2
 289 217 289 217 133 217 c 1,3,4
 130 195 130 195 130 174 c 0,5,6
 130 70 130 70 240 70 c 0,7,8
 272 70 272 70 313 81 c 128,-1,9
 354 92 354 92 379 104 c 2,10,-1
 404 115 l 1,11,-1
 434 64 l 1,12,13
 422 56 422 56 401 43.5 c 128,-1,14
 380 31 380 31 321 10.5 c 128,-1,15
 262 -10 262 -10 210 -10 c 0,16,17
 128 -10 128 -10 79 38 c 128,-1,18
 30 86 30 86 30 165 c 0,19,20
 30 323 30 323 114.5 431.5 c 128,-1,21
 199 540 199 540 319 540 c 0,22,23
 395 540 395 540 439.5 504.5 c 128,-1,24
 484 469 484 469 484 410 c 0,0,1
142 287 m 1,25,26
 249 287 249 287 319 319 c 128,-1,27
 389 351 389 351 389 400 c 0,28,29
 389 465 389 465 314 465 c 0,30,31
 259 465 259 465 210 415 c 128,-1,32
 161 365 161 365 142 287 c 1,25,26
487 728 m 1,33,-1
 269 603 l 1,34,-1
 238 656 l 1,35,-1
 444 803 l 1,36,-1
 487 728 l 1,33,-1
EndSplineSet
EndChar

StartChar: ecircumflex
Encoding: 234 234 170
Width: 504
GlyphClass: 2
Flags: W
LayerCount: 2
Fore
SplineSet
484 410 m 0,0,1
 484 324 484 324 386.5 270.5 c 128,-1,2
 289 217 289 217 133 217 c 1,3,4
 130 195 130 195 130 174 c 0,5,6
 130 70 130 70 240 70 c 0,7,8
 272 70 272 70 313 81 c 128,-1,9
 354 92 354 92 379 104 c 2,10,-1
 404 115 l 1,11,-1
 434 64 l 1,12,13
 422 56 422 56 401 43.5 c 128,-1,14
 380 31 380 31 321 10.5 c 128,-1,15
 262 -10 262 -10 210 -10 c 0,16,17
 128 -10 128 -10 79 38 c 128,-1,18
 30 86 30 86 30 165 c 0,19,20
 30 323 30 323 114.5 431.5 c 128,-1,21
 199 540 199 540 319 540 c 0,22,23
 395 540 395 540 439.5 504.5 c 128,-1,24
 484 469 484 469 484 410 c 0,0,1
142 287 m 1,25,26
 249 287 249 287 319 319 c 128,-1,27
 389 351 389 351 389 400 c 0,28,29
 389 465 389 465 314 465 c 0,30,31
 259 465 259 465 210 415 c 128,-1,32
 161 365 161 365 142 287 c 1,25,26
437 617 m 1,33,-1
 322 715 l 1,34,-1
 173 617 l 1,35,-1
 140 662 l 1,36,-1
 302 792 l 1,37,-1
 361 797 l 1,38,-1
 483 662 l 1,39,-1
 437 617 l 1,33,-1
EndSplineSet
EndChar

StartChar: edieresis
Encoding: 235 235 171
Width: 518
GlyphClass: 2
Flags: W
LayerCount: 2
Fore
SplineSet
484 410 m 0,0,1
 484 324 484 324 386.5 270.5 c 128,-1,2
 289 217 289 217 133 217 c 1,3,4
 130 195 130 195 130 174 c 0,5,6
 130 70 130 70 240 70 c 0,7,8
 272 70 272 70 313 81 c 128,-1,9
 354 92 354 92 379 104 c 2,10,-1
 404 115 l 1,11,-1
 434 64 l 1,12,13
 422 56 422 56 401 43.5 c 128,-1,14
 380 31 380 31 321 10.5 c 128,-1,15
 262 -10 262 -10 210 -10 c 0,16,17
 128 -10 128 -10 79 38 c 128,-1,18
 30 86 30 86 30 165 c 0,19,20
 30 323 30 323 114.5 431.5 c 128,-1,21
 199 540 199 540 319 540 c 0,22,23
 395 540 395 540 439.5 504.5 c 128,-1,24
 484 469 484 469 484 410 c 0,0,1
142 287 m 1,25,26
 249 287 249 287 319 319 c 128,-1,27
 389 351 389 351 389 400 c 0,28,29
 389 465 389 465 314 465 c 0,30,31
 259 465 259 465 210 415 c 128,-1,32
 161 365 161 365 142 287 c 1,25,26
433 640 m 0,33,34
 388 640 388 640 388 690 c 0,35,36
 388 716 388 716 406 738 c 128,-1,37
 424 760 424 760 452 760 c 0,38,39
 498 760 498 760 498 714 c 0,40,41
 498 684 498 684 479 662 c 128,-1,42
 460 640 460 640 433 640 c 0,33,34
232 640 m 0,43,44
 187 640 187 640 187 690 c 0,45,46
 187 716 187 716 205 738 c 128,-1,47
 223 760 223 760 251 760 c 0,48,49
 297 760 297 760 297 714 c 0,50,51
 297 684 297 684 278 662 c 128,-1,52
 259 640 259 640 232 640 c 0,43,44
EndSplineSet
EndChar

StartChar: igrave
Encoding: 236 236 172
Width: 337
GlyphClass: 2
Flags: W
LayerCount: 2
Fore
SplineSet
140 450 m 1,0,-1
 55 470 l 1,1,-1
 65 525 l 1,2,-1
 248 530 l 1,3,-1
 176 80 l 1,4,-1
 261 65 l 1,5,-1
 252 10 l 1,6,-1
 68 0 l 1,7,-1
 140 450 l 1,0,-1
281 603 m 1,8,-1
 63 728 l 1,9,-1
 106 803 l 1,10,-1
 312 656 l 1,11,-1
 281 603 l 1,8,-1
EndSplineSet
EndChar

StartChar: iacute
Encoding: 237 237 173
Width: 339
GlyphClass: 2
Flags: W
LayerCount: 2
Fore
SplineSet
140 450 m 1,0,-1
 55 470 l 1,1,-1
 65 525 l 1,2,-1
 248 530 l 1,3,-1
 176 80 l 1,4,-1
 261 65 l 1,5,-1
 252 10 l 1,6,-1
 68 0 l 1,7,-1
 140 450 l 1,0,-1
379 728 m 1,8,-1
 161 603 l 1,9,-1
 130 656 l 1,10,-1
 336 803 l 1,11,-1
 379 728 l 1,8,-1
EndSplineSet
EndChar

StartChar: icircumflex
Encoding: 238 238 174
Width: 338
GlyphClass: 2
Flags: W
LayerCount: 2
Fore
SplineSet
140 450 m 1,0,-1
 55 470 l 1,1,-1
 65 525 l 1,2,-1
 248 530 l 1,3,-1
 176 80 l 1,4,-1
 261 65 l 1,5,-1
 252 10 l 1,6,-1
 68 0 l 1,7,-1
 140 450 l 1,0,-1
309 617 m 1,8,-1
 202 715 l 1,9,-1
 60 617 l 1,10,-1
 25 662 l 1,11,-1
 182 792 l 1,12,-1
 241 797 l 1,13,-1
 358 662 l 1,14,-1
 309 617 l 1,8,-1
EndSplineSet
EndChar

StartChar: idieresis
Encoding: 239 239 175
Width: 337
GlyphClass: 2
Flags: W
LayerCount: 2
Fore
SplineSet
140 450 m 1,0,-1
 55 470 l 1,1,-1
 65 525 l 1,2,-1
 248 530 l 1,3,-1
 176 80 l 1,4,-1
 261 65 l 1,5,-1
 252 10 l 1,6,-1
 68 0 l 1,7,-1
 140 450 l 1,0,-1
101 640 m 0,8,9
 56 640 56 640 56 690 c 0,10,11
 56 716 56 716 74 738 c 128,-1,12
 92 760 92 760 120 760 c 0,13,14
 166 760 166 760 166 714 c 0,15,16
 166 684 166 684 147 662 c 128,-1,17
 128 640 128 640 101 640 c 0,8,9
282 640 m 0,18,19
 237 640 237 640 237 690 c 0,20,21
 237 716 237 716 255 738 c 128,-1,22
 273 760 273 760 301 760 c 0,23,24
 347 760 347 760 347 714 c 0,25,26
 347 684 347 684 328 662 c 128,-1,27
 309 640 309 640 282 640 c 0,18,19
EndSplineSet
EndChar

StartChar: eth
Encoding: 240 240 176
Width: 595
GlyphClass: 2
Flags: W
LayerCount: 2
Fore
SplineSet
519 729 m 1,0,-1
 420 676 l 1,1,2
 520 570 520 570 520 389.5 c 128,-1,3
 520 209 520 209 442 99.5 c 128,-1,4
 364 -10 364 -10 210 -10 c 0,5,6
 121 -10 121 -10 70.5 42 c 128,-1,7
 20 94 20 94 20 185 c 0,8,9
 20 328 20 328 100.5 421.5 c 128,-1,10
 181 515 181 515 305 515 c 0,11,12
 338 515 338 515 368 504.5 c 128,-1,13
 398 494 398 494 411 484 c 2,14,-1
 424 473 l 1,15,16
 403 573 403 573 340 635 c 1,17,-1
 202 560 l 1,18,-1
 172 614 l 1,19,-1
 289 678 l 1,20,21
 258 697 258 697 195 720 c 1,22,-1
 234 783 l 1,23,24
 310 764 310 764 370 722 c 1,25,-1
 488 784 l 1,26,-1
 519 729 l 1,0,-1
295 435 m 0,27,28
 213 435 213 435 169 367 c 128,-1,29
 125 299 125 299 125 195 c 0,30,31
 125 137 125 137 152.5 103.5 c 128,-1,32
 180 70 180 70 235 70 c 0,33,34
 323 70 323 70 367 141 c 128,-1,35
 411 212 411 212 411 315 c 0,36,37
 411 435 411 435 295 435 c 0,27,28
EndSplineSet
EndChar

StartChar: ograve
Encoding: 242 242 178
Width: 570
GlyphClass: 2
Flags: W
LayerCount: 2
Fore
SplineSet
220 -10 m 0,0,1
 138 -10 138 -10 89 42 c 128,-1,2
 40 94 40 94 40 180 c 0,3,4
 40 340 40 340 124 440 c 128,-1,5
 208 540 208 540 340 540 c 0,6,7
 426 540 426 540 475.5 488 c 128,-1,8
 525 436 525 436 525 353 c 0,9,10
 525 188 525 188 439.5 89 c 128,-1,11
 354 -10 354 -10 220 -10 c 0,0,1
320 460 m 0,12,13
 237 460 237 460 188.5 379.5 c 128,-1,14
 140 299 140 299 140 185 c 0,15,16
 140 127 140 127 166.5 98.5 c 128,-1,17
 193 70 193 70 240 70 c 0,18,19
 324 70 324 70 374.5 146.5 c 128,-1,20
 425 223 425 223 425 341.5 c 128,-1,21
 425 460 425 460 320 460 c 0,12,13
412 603 m 1,22,-1
 194 728 l 1,23,-1
 237 803 l 1,24,-1
 443 656 l 1,25,-1
 412 603 l 1,22,-1
EndSplineSet
EndChar

StartChar: oacute
Encoding: 243 243 179
Width: 570
GlyphClass: 2
Flags: W
LayerCount: 2
Fore
SplineSet
220 -10 m 0,0,1
 138 -10 138 -10 89 42 c 128,-1,2
 40 94 40 94 40 180 c 0,3,4
 40 340 40 340 124 440 c 128,-1,5
 208 540 208 540 340 540 c 0,6,7
 426 540 426 540 475.5 488 c 128,-1,8
 525 436 525 436 525 353 c 0,9,10
 525 188 525 188 439.5 89 c 128,-1,11
 354 -10 354 -10 220 -10 c 0,0,1
320 460 m 0,12,13
 237 460 237 460 188.5 379.5 c 128,-1,14
 140 299 140 299 140 185 c 0,15,16
 140 127 140 127 166.5 98.5 c 128,-1,17
 193 70 193 70 240 70 c 0,18,19
 324 70 324 70 374.5 146.5 c 128,-1,20
 425 223 425 223 425 341.5 c 128,-1,21
 425 460 425 460 320 460 c 0,12,13
498 728 m 1,22,-1
 280 603 l 1,23,-1
 249 656 l 1,24,-1
 455 803 l 1,25,-1
 498 728 l 1,22,-1
EndSplineSet
EndChar

StartChar: otilde
Encoding: 245 245 181
Width: 567
GlyphClass: 2
Flags: W
LayerCount: 2
Fore
SplineSet
220 -10 m 0,0,1
 138 -10 138 -10 89 42 c 128,-1,2
 40 94 40 94 40 180 c 0,3,4
 40 340 40 340 124 440 c 128,-1,5
 208 540 208 540 340 540 c 0,6,7
 426 540 426 540 475.5 488 c 128,-1,8
 525 436 525 436 525 353 c 0,9,10
 525 188 525 188 439.5 89 c 128,-1,11
 354 -10 354 -10 220 -10 c 0,0,1
320 460 m 0,12,13
 237 460 237 460 188.5 379.5 c 128,-1,14
 140 299 140 299 140 185 c 0,15,16
 140 127 140 127 166.5 98.5 c 128,-1,17
 193 70 193 70 240 70 c 0,18,19
 324 70 324 70 374.5 146.5 c 128,-1,20
 425 223 425 223 425 341.5 c 128,-1,21
 425 460 425 460 320 460 c 0,12,13
189 635 m 1,22,-1
 161 670 l 1,23,24
 166 679 166 679 181.5 699 c 128,-1,25
 197 719 197 719 211 732 c 0,26,27
 247 764 247 764 283 764 c 128,-1,28
 319 764 319 764 366.5 741 c 128,-1,29
 414 718 414 718 436.5 718 c 128,-1,30
 459 718 459 718 477 728.5 c 128,-1,31
 495 739 495 739 504 750 c 2,32,-1
 513 760 l 1,33,-1
 542 725 l 1,34,35
 528 696 528 696 505 675 c 0,36,37
 461 635 461 635 425 635 c 128,-1,38
 389 635 389 635 341 657 c 128,-1,39
 293 679 293 679 270 679 c 128,-1,40
 247 679 247 679 228 668 c 128,-1,41
 209 657 209 657 199 646 c 2,42,-1
 189 635 l 1,22,-1
EndSplineSet
EndChar

StartChar: divide
Encoding: 247 247 183
Width: 622
GlyphClass: 2
Flags: W
LayerCount: 2
Fore
SplineSet
50 225 m 1,0,-1
 63 305 l 1,1,-1
 572 305 l 1,2,-1
 560 225 l 1,3,-1
 50 225 l 1,0,-1
212 45 m 0,4,5
 212 80 212 80 232.5 105 c 128,-1,6
 253 130 253 130 289 130 c 0,7,8
 344 130 344 130 344 75 c 0,9,10
 344 41 344 41 323.5 15.5 c 128,-1,11
 303 -10 303 -10 266 -10 c 0,12,13
 212 -10 212 -10 212 45 c 0,4,5
277 455 m 0,14,15
 277 490 277 490 297.5 515 c 128,-1,16
 318 540 318 540 354 540 c 0,17,18
 409 540 409 540 409 485 c 0,19,20
 409 451 409 451 388.5 425.5 c 128,-1,21
 368 400 368 400 331 400 c 0,22,23
 277 400 277 400 277 455 c 0,14,15
EndSplineSet
EndChar

StartChar: oslash
Encoding: 248 248 184
Width: 580
GlyphClass: 2
Flags: W
LayerCount: 2
Fore
SplineSet
228 -10 m 0,0,1
 181 -10 181 -10 141 9 c 1,2,-1
 56 -105 l 1,3,-1
 2 -70 l 1,4,-1
 89 48 l 1,5,6
 45 98 45 98 45 180 c 0,7,8
 45 340 45 340 129 440 c 128,-1,9
 213 540 213 540 343 540 c 0,10,11
 397 540 397 540 440 520 c 1,12,-1
 518 625 l 1,13,-1
 572 590 l 1,14,-1
 492 482 l 1,15,16
 536 432 536 432 536 360 c 0,17,18
 536 191 536 191 449.5 90.5 c 128,-1,19
 363 -10 363 -10 228 -10 c 0,0,1
145 185 m 0,20,21
 145 153 145 153 152 133 c 1,22,-1
 386 447 l 1,23,24
 361 460 361 460 328 460 c 0,25,26
 244 460 244 460 194.5 379.5 c 128,-1,27
 145 299 145 299 145 185 c 0,20,21
436 345 m 0,28,29
 436 374 436 374 428 396 c 1,30,-1
 195 82 l 1,31,32
 218 70 218 70 248 70 c 0,33,34
 334 70 334 70 385 146.5 c 128,-1,35
 436 223 436 223 436 345 c 0,28,29
EndSplineSet
EndChar

StartChar: ucircumflex
Encoding: 251 251 187
Width: 632
GlyphClass: 2
Flags: W
LayerCount: 2
Fore
SplineSet
389 0 m 1,0,-1
 430 194 l 1,1,2
 417 161 417 161 390.5 122.5 c 128,-1,3
 364 84 364 84 338.5 57.5 c 128,-1,4
 313 31 313 31 272.5 10.5 c 128,-1,5
 232 -10 232 -10 190 -10 c 0,6,7
 79 -10 79 -10 79 112 c 0,8,9
 79 135 79 135 84 170 c 2,10,-1
 130 450 l 1,11,-1
 45 470 l 1,12,-1
 54 525 l 1,13,-1
 237 530 l 1,14,-1
 182 185 l 1,15,16
 178 153 178 153 178 141 c 0,17,18
 178 75 178 75 230 75 c 0,19,20
 267 75 267 75 303 103.5 c 128,-1,21
 339 132 339 132 363 172 c 0,22,23
 414 259 414 259 434 322 c 2,24,-1
 443 350 l 1,25,-1
 473 530 l 1,26,-1
 568 530 l 1,27,-1
 496 80 l 1,28,-1
 582 65 l 1,29,-1
 573 10 l 1,30,-1
 389 0 l 1,0,-1
467 617 m 1,31,-1
 352 715 l 1,32,-1
 203 617 l 1,33,-1
 170 662 l 1,34,-1
 332 792 l 1,35,-1
 391 797 l 1,36,-1
 513 662 l 1,37,-1
 467 617 l 1,31,-1
EndSplineSet
EndChar

StartChar: udieresis
Encoding: 252 252 188
Width: 632
GlyphClass: 2
Flags: W
LayerCount: 2
Fore
SplineSet
389 0 m 1,0,-1
 430 194 l 1,1,2
 417 161 417 161 390.5 122.5 c 128,-1,3
 364 84 364 84 338.5 57.5 c 128,-1,4
 313 31 313 31 272.5 10.5 c 128,-1,5
 232 -10 232 -10 190 -10 c 0,6,7
 79 -10 79 -10 79 112 c 0,8,9
 79 135 79 135 84 170 c 2,10,-1
 130 450 l 1,11,-1
 45 470 l 1,12,-1
 54 525 l 1,13,-1
 237 530 l 1,14,-1
 182 185 l 1,15,16
 178 153 178 153 178 141 c 0,17,18
 178 75 178 75 230 75 c 0,19,20
 267 75 267 75 303 103.5 c 128,-1,21
 339 132 339 132 363 172 c 0,22,23
 414 259 414 259 434 322 c 2,24,-1
 443 350 l 1,25,-1
 473 530 l 1,26,-1
 568 530 l 1,27,-1
 496 80 l 1,28,-1
 582 65 l 1,29,-1
 573 10 l 1,30,-1
 389 0 l 1,0,-1
444 640 m 0,31,32
 399 640 399 640 399 690 c 0,33,34
 399 716 399 716 417 738 c 128,-1,35
 435 760 435 760 463 760 c 0,36,37
 509 760 509 760 509 714 c 0,38,39
 509 684 509 684 490 662 c 128,-1,40
 471 640 471 640 444 640 c 0,31,32
243 640 m 0,41,42
 198 640 198 640 198 690 c 0,43,44
 198 716 198 716 216 738 c 128,-1,45
 234 760 234 760 262 760 c 0,46,47
 308 760 308 760 308 714 c 0,48,49
 308 684 308 684 289 662 c 128,-1,50
 270 640 270 640 243 640 c 0,41,42
EndSplineSet
EndChar

StartChar: yacute
Encoding: 253 253 189
Width: 570
GlyphClass: 2
Flags: W
LayerCount: 2
Fore
SplineSet
575 470 m 1,0,-1
 519 454 l 1,1,-1
 341 33 l 2,2,3
 273 -128 273 -128 228 -184 c 128,-1,4
 183 -240 183 -240 108 -240 c 0,5,6
 57 -240 57 -240 10 -228 c 2,7,-1
 -5 -224 l 1,8,-1
 15 -160 l 1,9,10
 55 -165 55 -165 98 -165 c 128,-1,11
 141 -165 141 -165 168.5 -138 c 128,-1,12
 196 -111 196 -111 227 -39 c 1,13,-1
 97 451 l 1,14,-1
 20 470 l 1,15,-1
 29 525 l 1,16,-1
 190 530 l 1,17,-1
 274 163 l 1,18,-1
 283 95 l 1,19,-1
 431 452 l 1,20,-1
 356 470 l 1,21,-1
 365 525 l 1,22,-1
 585 530 l 1,23,-1
 575 470 l 1,0,-1
497 728 m 1,24,-1
 279 603 l 1,25,-1
 248 656 l 1,26,-1
 454 803 l 1,27,-1
 497 728 l 1,24,-1
EndSplineSet
EndChar

StartChar: thorn
Encoding: 254 254 190
Width: 615
GlyphClass: 2
Flags: W
LayerCount: 2
Fore
SplineSet
288 770 m 1,0,-1
 249 530 l 1,1,-1
 209 346 l 1,2,3
 219 373 219 373 243.5 411.5 c 128,-1,4
 268 450 268 450 292 475.5 c 128,-1,5
 316 501 316 501 352.5 520.5 c 128,-1,6
 389 540 389 540 428 540 c 0,7,8
 492 540 492 540 527.5 488 c 128,-1,9
 563 436 563 436 563 360 c 0,10,11
 563 195 563 195 471 92.5 c 128,-1,12
 379 -10 379 -10 253 -10 c 0,13,14
 218 -10 218 -10 166 4 c 1,15,-1
 142 -155 l 1,16,-1
 242 -175 l 1,17,-1
 233 -230 l 1,18,-1
 -47 -230 l 1,19,-1
 -38 -175 l 1,20,-1
 44 -155 l 1,21,-1
 179 690 l 1,22,-1
 96 710 l 1,23,-1
 105 765 l 1,24,-1
 288 770 l 1,0,-1
200 185 m 1,25,-1
 179 80 l 1,26,27
 218 65 218 65 263 65 c 0,28,29
 337 65 337 65 400 139 c 128,-1,30
 463 213 463 213 463 345 c 0,31,32
 463 391 463 391 445.5 423 c 128,-1,33
 428 455 428 455 393.5 455 c 128,-1,34
 359 455 359 455 326.5 427 c 128,-1,35
 294 399 294 399 272 360 c 0,36,37
 227 278 227 278 208 213 c 2,38,-1
 200 185 l 1,25,-1
EndSplineSet
EndChar

StartChar: Amacron
Encoding: 256 256 192
Width: 706
GlyphClass: 2
Flags: W
LayerCount: 2
Fore
SplineSet
481 80 m 1,0,-1
 461 190 l 1,1,-1
 206 190 l 1,2,-1
 151 79 l 1,3,-1
 235 60 l 1,4,-1
 225 0 l 1,5,-1
 -40 0 l 1,6,-1
 -31 60 l 1,7,-1
 54 80 l 1,8,-1
 374 695 l 1,9,-1
 473 700 l 1,10,-1
 593 77 l 1,11,-1
 661 60 l 1,12,-1
 651 0 l 1,13,-1
 386 0 l 1,14,-1
 395 60 l 1,15,-1
 481 80 l 1,0,-1
396 571 m 1,16,-1
 245 270 l 1,17,-1
 447 270 l 1,18,-1
 396 571 l 1,16,-1
305 780 m 1,19,-1
 316 855 l 1,20,-1
 580 855 l 1,21,-1
 569 780 l 1,22,-1
 305 780 l 1,19,-1
EndSplineSet
EndChar

StartChar: aogonek
Encoding: 261 261 197
Width: 595
GlyphClass: 2
Flags: W
LayerCount: 2
Fore
SplineSet
365 0 m 1,0,-1
 550 10 l 1,1,-1
 530 4 l 1,2,3
 325 -53 325 -53 325 -124 c 0,4,5
 325 -141 325 -141 336 -150.5 c 128,-1,6
 347 -160 347 -160 358 -160 c 128,-1,7
 369 -160 369 -160 375.5 -159.5 c 128,-1,8
 382 -159 382 -159 388 -158 c 0,9,10
 398 -155 398 -155 410 -153 c 1,11,-1
 410 -200 l 1,12,13
 368 -220 368 -220 330.5 -220 c 128,-1,14
 293 -220 293 -220 269 -198.5 c 128,-1,15
 245 -177 245 -177 245 -135.5 c 128,-1,16
 245 -94 245 -94 279 -61 c 128,-1,17
 313 -28 313 -28 365 0 c 1,0,-1
473 80 m 1,18,-1
 560 65 l 1,19,-1
 551 10 l 1,20,-1
 365 0 l 1,21,-1
 405 184 l 1,22,23
 365 104 365 104 314 54 c 1,24,25
 291 30 291 30 254.5 10 c 128,-1,26
 218 -10 218 -10 181 -10 c 0,27,28
 125 -10 125 -10 87.5 40 c 128,-1,29
 50 90 50 90 50 165 c 0,30,31
 50 339 50 339 138.5 439.5 c 128,-1,32
 227 540 227 540 348 540 c 0,33,34
 377 540 377 540 405 532.5 c 128,-1,35
 433 525 433 525 446 518 c 2,36,-1
 460 510 l 1,37,-1
 490 530 l 1,38,-1
 545 530 l 1,39,-1
 473 80 l 1,18,-1
418 345 m 1,40,-1
 438 450 l 1,41,42
 400 465 400 465 348 465 c 0,43,44
 268 465 268 465 209 392.5 c 128,-1,45
 150 320 150 320 150 180 c 0,46,47
 150 129 150 129 167 102 c 128,-1,48
 184 75 184 75 214.5 75 c 128,-1,49
 245 75 245 75 278.5 103 c 128,-1,50
 312 131 312 131 336 170 c 0,51,52
 388 255 388 255 408 317 c 1,53,-1
 418 345 l 1,40,-1
EndSplineSet
EndChar

StartChar: Cacute
Encoding: 262 262 198
Width: 628
GlyphClass: 2
Flags: W
LayerCount: 2
Fore
SplineSet
663 660 m 1,0,1
 663 660 663 660 636 490 c 1,2,-1
 578 490 l 1,3,-1
 566 600 l 1,4,5
 505 625 505 625 430 625 c 128,-1,6
 355 625 355 625 294 573 c 128,-1,7
 233 521 233 521 201.5 439 c 128,-1,8
 170 357 170 357 170 268.5 c 128,-1,9
 170 180 170 180 213.5 129 c 128,-1,10
 257 78 257 78 328 78 c 0,11,12
 444 78 444 78 550 156 c 1,13,-1
 586 97 l 1,14,15
 453 -10 453 -10 308 -10 c 0,16,17
 192 -10 192 -10 126 58.5 c 128,-1,18
 60 127 60 127 60 244 c 0,19,20
 60 448 60 448 171 579 c 128,-1,21
 282 710 282 710 452 710 c 0,22,23
 501 710 501 710 566.5 693.5 c 128,-1,24
 632 677 632 677 663 660 c 1,0,1
596 841 m 1,25,-1
 368 746 l 1,26,-1
 341 801 l 1,27,-1
 559 920 l 1,28,-1
 596 841 l 1,25,-1
EndSplineSet
EndChar

StartChar: cacute
Encoding: 263 263 199
Width: 472
GlyphClass: 2
Flags: W
LayerCount: 2
Fore
SplineSet
315 460 m 0,0,1
 233 460 233 460 184 377.5 c 128,-1,2
 135 295 135 295 135 182.5 c 128,-1,3
 135 70 135 70 230 70 c 0,4,5
 300 70 300 70 380 115 c 1,6,-1
 410 65 l 1,7,-1
 382 46 l 2,8,9
 354 27 354 27 304 8.5 c 128,-1,10
 254 -10 254 -10 210 -10 c 0,11,12
 132 -10 132 -10 83.5 39 c 128,-1,13
 35 88 35 88 35 175 c 0,14,15
 35 338 35 338 118 439 c 128,-1,16
 201 540 201 540 330 540 c 0,17,18
 410 540 410 540 470 500 c 1,19,-1
 448 365 l 1,20,-1
 383 365 l 1,21,-1
 380 450 l 1,22,23
 352 460 352 460 315 460 c 0,0,1
477 728 m 1,24,-1
 259 603 l 1,25,-1
 228 656 l 1,26,-1
 434 803 l 1,27,-1
 477 728 l 1,24,-1
EndSplineSet
EndChar

StartChar: Ccircumflex
Encoding: 264 264 200
Width: 628
GlyphClass: 2
Flags: W
LayerCount: 2
Fore
SplineSet
663 660 m 1,0,1
 663 660 663 660 636 490 c 1,2,-1
 578 490 l 1,3,-1
 566 600 l 1,4,5
 505 625 505 625 430 625 c 128,-1,6
 355 625 355 625 294 573 c 128,-1,7
 233 521 233 521 201.5 439 c 128,-1,8
 170 357 170 357 170 268.5 c 128,-1,9
 170 180 170 180 213.5 129 c 128,-1,10
 257 78 257 78 328 78 c 0,11,12
 444 78 444 78 550 156 c 1,13,-1
 586 97 l 1,14,15
 453 -10 453 -10 308 -10 c 0,16,17
 192 -10 192 -10 126 58.5 c 128,-1,18
 60 127 60 127 60 244 c 0,19,20
 60 448 60 448 171 579 c 128,-1,21
 282 710 282 710 452 710 c 0,22,23
 501 710 501 710 566.5 693.5 c 128,-1,24
 632 677 632 677 663 660 c 1,0,1
586 750 m 1,25,-1
 471 833 l 1,26,-1
 322 750 l 1,27,-1
 290 795 l 1,28,-1
 451 905 l 1,29,-1
 510 910 l 1,30,-1
 633 795 l 1,31,-1
 586 750 l 1,25,-1
EndSplineSet
EndChar

StartChar: ccircumflex
Encoding: 265 265 201
Width: 473
GlyphClass: 2
Flags: W
LayerCount: 2
Fore
SplineSet
315 460 m 0,0,1
 233 460 233 460 184 377.5 c 128,-1,2
 135 295 135 295 135 182.5 c 128,-1,3
 135 70 135 70 230 70 c 0,4,5
 300 70 300 70 380 115 c 1,6,-1
 410 65 l 1,7,-1
 382 46 l 2,8,9
 354 27 354 27 304 8.5 c 128,-1,10
 254 -10 254 -10 210 -10 c 0,11,12
 132 -10 132 -10 83.5 39 c 128,-1,13
 35 88 35 88 35 175 c 0,14,15
 35 338 35 338 118 439 c 128,-1,16
 201 540 201 540 330 540 c 0,17,18
 410 540 410 540 470 500 c 1,19,-1
 448 365 l 1,20,-1
 383 365 l 1,21,-1
 380 450 l 1,22,23
 352 460 352 460 315 460 c 0,0,1
457 617 m 1,24,-1
 342 715 l 1,25,-1
 193 617 l 1,26,-1
 160 662 l 1,27,-1
 322 792 l 1,28,-1
 381 797 l 1,29,-1
 503 662 l 1,30,-1
 457 617 l 1,24,-1
EndSplineSet
EndChar

StartChar: Cdotaccent
Encoding: 266 266 202
Width: 628
GlyphClass: 2
Flags: W
LayerCount: 2
Fore
SplineSet
663 660 m 1,0,-1
 636 490 l 1,1,-1
 578 490 l 1,2,-1
 566 600 l 1,3,4
 505 625 505 625 430 625 c 128,-1,5
 355 625 355 625 294 573 c 128,-1,6
 233 521 233 521 201.5 439 c 128,-1,7
 170 357 170 357 170 268.5 c 128,-1,8
 170 180 170 180 213.5 129 c 128,-1,9
 257 78 257 78 328 78 c 0,10,11
 444 78 444 78 550 156 c 1,12,-1
 586 97 l 1,13,14
 453 -10 453 -10 308 -10 c 0,15,16
 192 -10 192 -10 126 58.5 c 128,-1,17
 60 127 60 127 60 244 c 0,18,19
 60 448 60 448 171 579 c 128,-1,20
 282 710 282 710 452 710 c 0,21,22
 501 710 501 710 553.5 697.5 c 128,-1,23
 606 685 606 685 634 672 c 1,24,-1
 663 660 l 1,0,-1
523.5 791 m 128,-1,26
 505 765 505 765 476 765 c 128,-1,27
 447 765 447 765 432 778.5 c 128,-1,28
 417 792 417 792 417 822.5 c 128,-1,29
 417 853 417 853 435.5 879 c 128,-1,30
 454 905 454 905 483 905 c 128,-1,31
 512 905 512 905 527 891.5 c 128,-1,32
 542 878 542 878 542 847.5 c 128,-1,25
 542 817 542 817 523.5 791 c 128,-1,26
EndSplineSet
EndChar

StartChar: Ccaron
Encoding: 268 268 204
Width: 628
GlyphClass: 2
Flags: W
LayerCount: 2
Fore
SplineSet
663 660 m 1,0,1
 663 660 663 660 636 490 c 1,2,-1
 578 490 l 1,3,-1
 566 600 l 1,4,5
 505 625 505 625 430 625 c 128,-1,6
 355 625 355 625 294 573 c 128,-1,7
 233 521 233 521 201.5 439 c 128,-1,8
 170 357 170 357 170 268.5 c 128,-1,9
 170 180 170 180 213.5 129 c 128,-1,10
 257 78 257 78 328 78 c 0,11,12
 444 78 444 78 550 156 c 1,13,-1
 586 97 l 1,14,15
 453 -10 453 -10 308 -10 c 0,16,17
 192 -10 192 -10 126 58.5 c 128,-1,18
 60 127 60 127 60 244 c 0,19,20
 60 448 60 448 171 579 c 128,-1,21
 282 710 282 710 452 710 c 0,22,23
 501 710 501 710 566.5 693.5 c 128,-1,24
 632 677 632 677 663 660 c 1,0,1
463 826 m 1,25,-1
 612 912 l 1,26,-1
 639 867 l 1,27,-1
 480 751 l 1,28,-1
 422 751 l 1,29,-1
 300 867 l 1,30,-1
 348 912 l 1,31,-1
 463 826 l 1,25,-1
EndSplineSet
EndChar

StartChar: ccaron
Encoding: 269 269 205
Width: 465
GlyphClass: 2
Flags: W
LayerCount: 2
Fore
SplineSet
315 460 m 0,0,1
 233 460 233 460 184 377.5 c 128,-1,2
 135 295 135 295 135 182.5 c 128,-1,3
 135 70 135 70 230 70 c 0,4,5
 300 70 300 70 380 115 c 1,6,-1
 410 65 l 1,7,-1
 382 46 l 2,8,9
 354 27 354 27 304 8.5 c 128,-1,10
 254 -10 254 -10 210 -10 c 0,11,12
 132 -10 132 -10 83.5 39 c 128,-1,13
 35 88 35 88 35 175 c 0,14,15
 35 338 35 338 118 439 c 128,-1,16
 201 540 201 540 330 540 c 0,17,18
 410 540 410 540 470 500 c 1,19,-1
 448 365 l 1,20,-1
 383 365 l 1,21,-1
 380 450 l 1,22,23
 352 460 352 460 315 460 c 0,0,1
346 691 m 1,24,-1
 495 796 l 1,25,-1
 522 751 l 1,26,-1
 363 616 l 1,27,-1
 305 616 l 1,28,-1
 183 751 l 1,29,-1
 231 796 l 1,30,-1
 346 691 l 1,24,-1
EndSplineSet
EndChar

StartChar: Dcaron
Encoding: 270 270 206
Width: 723
GlyphClass: 2
Flags: W
LayerCount: 2
Fore
SplineSet
101 79 m 1,0,-1
 188 620 l 1,1,-1
 107 640 l 1,2,-1
 116 695 l 1,3,-1
 301 700 l 1,4,-1
 430 700 l 2,5,6
 542 700 542 700 610 637 c 128,-1,7
 678 574 678 574 678 465 c 0,8,9
 678 243 678 243 568.5 121.5 c 128,-1,10
 459 0 459 0 270 0 c 2,11,-1
 5 0 l 1,12,-1
 15 60 l 1,13,-1
 101 79 l 1,0,-1
289 620 m 1,14,-1
 203 80 l 1,15,-1
 285 80 l 2,16,17
 421 80 421 80 497 182 c 128,-1,18
 573 284 573 284 573 452 c 0,19,20
 573 532 573 532 533 576 c 128,-1,21
 493 620 493 620 415 620 c 2,22,-1
 289 620 l 1,14,-1
399 826 m 1,23,-1
 548 912 l 1,24,-1
 575 867 l 1,25,-1
 416 751 l 1,26,-1
 358 751 l 1,27,-1
 236 867 l 1,28,-1
 284 912 l 1,29,-1
 399 826 l 1,23,-1
EndSplineSet
EndChar

StartChar: emacron
Encoding: 275 275 208
Width: 504
GlyphClass: 2
Flags: W
LayerCount: 2
Fore
SplineSet
484 410 m 0,0,1
 484 324 484 324 386.5 270.5 c 128,-1,2
 289 217 289 217 133 217 c 1,3,4
 130 195 130 195 130 174 c 0,5,6
 130 70 130 70 240 70 c 0,7,8
 272 70 272 70 313 81 c 128,-1,9
 354 92 354 92 379 104 c 2,10,-1
 404 115 l 1,11,-1
 434 64 l 1,12,13
 422 56 422 56 401 43.5 c 128,-1,14
 380 31 380 31 321 10.5 c 128,-1,15
 262 -10 262 -10 210 -10 c 0,16,17
 128 -10 128 -10 79 38 c 128,-1,18
 30 86 30 86 30 165 c 0,19,20
 30 323 30 323 114.5 431.5 c 128,-1,21
 199 540 199 540 319 540 c 0,22,23
 395 540 395 540 439.5 504.5 c 128,-1,24
 484 469 484 469 484 410 c 0,0,1
142 287 m 1,25,26
 249 287 249 287 319 319 c 128,-1,27
 389 351 389 351 389 400 c 0,28,29
 389 465 389 465 314 465 c 0,30,31
 259 465 259 465 210 415 c 128,-1,32
 161 365 161 365 142 287 c 1,25,26
174 660 m 1,33,-1
 185 735 l 1,34,-1
 449 735 l 1,35,-1
 438 660 l 1,36,-1
 174 660 l 1,33,-1
EndSplineSet
EndChar

StartChar: Ebreve
Encoding: 276 276 209
Width: 578
GlyphClass: 2
Flags: W
LayerCount: 2
Fore
SplineSet
103 80 m 1,0,-1
 189 620 l 1,1,-1
 107 640 l 1,2,-1
 116 695 l 1,3,-1
 302 700 l 1,4,-1
 603 700 l 1,5,-1
 576 530 l 1,6,-1
 520 530 l 1,7,-1
 510 620 l 1,8,-1
 289 620 l 1,9,-1
 254 405 l 1,10,-1
 482 405 l 1,11,-1
 470 325 l 1,12,-1
 242 325 l 1,13,-1
 203 80 l 1,14,-1
 430 80 l 1,15,-1
 467 182 l 1,16,-1
 533 182 l 1,17,-1
 502 0 l 1,18,-1
 5 0 l 1,19,-1
 15 60 l 1,20,-1
 103 80 l 1,0,-1
511 900 m 1,21,-1
 570 905 l 1,22,23
 560 839 560 839 512.5 797 c 128,-1,24
 465 755 465 755 411 755 c 128,-1,25
 357 755 357 755 325.5 789.5 c 128,-1,26
 294 824 294 824 294 874 c 1,27,-1
 296 900 l 1,28,-1
 355 905 l 1,29,30
 355 873 355 873 373 851.5 c 128,-1,31
 391 830 391 830 422.5 830 c 128,-1,32
 454 830 454 830 476.5 847.5 c 128,-1,33
 499 865 499 865 505 882 c 2,34,-1
 511 900 l 1,21,-1
EndSplineSet
EndChar

StartChar: ebreve
Encoding: 277 277 210
Width: 508
GlyphClass: 2
Flags: W
LayerCount: 2
Fore
SplineSet
484 410 m 0,0,1
 484 324 484 324 386.5 270.5 c 128,-1,2
 289 217 289 217 133 217 c 1,3,4
 130 195 130 195 130 174 c 0,5,6
 130 70 130 70 240 70 c 0,7,8
 272 70 272 70 313 81 c 128,-1,9
 354 92 354 92 379 104 c 2,10,-1
 404 115 l 1,11,-1
 434 64 l 1,12,13
 422 56 422 56 401 43.5 c 128,-1,14
 380 31 380 31 321 10.5 c 128,-1,15
 262 -10 262 -10 210 -10 c 0,16,17
 128 -10 128 -10 79 38 c 128,-1,18
 30 86 30 86 30 165 c 0,19,20
 30 323 30 323 114.5 431.5 c 128,-1,21
 199 540 199 540 319 540 c 0,22,23
 395 540 395 540 439.5 504.5 c 128,-1,24
 484 469 484 469 484 410 c 0,0,1
142 287 m 1,25,26
 249 287 249 287 319 319 c 128,-1,27
 389 351 389 351 389 400 c 0,28,29
 389 465 389 465 314 465 c 0,30,31
 259 465 259 465 210 415 c 128,-1,32
 161 365 161 365 142 287 c 1,25,26
429 770 m 1,33,-1
 488 775 l 1,34,35
 478 709 478 709 430.5 667 c 128,-1,36
 383 625 383 625 329 625 c 128,-1,37
 275 625 275 625 243.5 659.5 c 128,-1,38
 212 694 212 694 212 744 c 1,39,-1
 214 770 l 1,40,-1
 273 775 l 1,41,42
 273 743 273 743 291 721.5 c 128,-1,43
 309 700 309 700 340.5 700 c 128,-1,44
 372 700 372 700 394.5 717.5 c 128,-1,45
 417 735 417 735 423 752 c 2,46,-1
 429 770 l 1,33,-1
EndSplineSet
EndChar

StartChar: Edotaccent
Encoding: 278 278 211
Width: 578
GlyphClass: 2
Flags: W
LayerCount: 2
Fore
SplineSet
103 80 m 1,0,-1
 189 620 l 1,1,-1
 107 640 l 1,2,-1
 116 695 l 1,3,-1
 302 700 l 1,4,-1
 603 700 l 1,5,-1
 576 530 l 1,6,-1
 520 530 l 1,7,-1
 510 620 l 1,8,-1
 289 620 l 1,9,-1
 254 405 l 1,10,-1
 482 405 l 1,11,-1
 470 325 l 1,12,-1
 242 325 l 1,13,-1
 203 80 l 1,14,-1
 430 80 l 1,15,-1
 467 182 l 1,16,-1
 533 182 l 1,17,-1
 502 0 l 1,18,-1
 5 0 l 1,19,-1
 15 60 l 1,20,-1
 103 80 l 1,0,-1
469.5 791 m 128,-1,22
 451 765 451 765 422 765 c 128,-1,23
 393 765 393 765 378 778.5 c 128,-1,24
 363 792 363 792 363 822.5 c 128,-1,25
 363 853 363 853 381.5 879 c 128,-1,26
 400 905 400 905 429 905 c 128,-1,27
 458 905 458 905 473 891.5 c 128,-1,28
 488 878 488 878 488 847.5 c 128,-1,21
 488 817 488 817 469.5 791 c 128,-1,22
EndSplineSet
EndChar

StartChar: edotaccent
Encoding: 279 279 212
Width: 504
GlyphClass: 2
Flags: W
LayerCount: 2
Fore
SplineSet
484 410 m 0,0,1
 484 324 484 324 386.5 270.5 c 128,-1,2
 289 217 289 217 133 217 c 1,3,4
 130 195 130 195 130 174 c 0,5,6
 130 70 130 70 240 70 c 0,7,8
 272 70 272 70 313 81 c 128,-1,9
 354 92 354 92 379 104 c 2,10,-1
 404 115 l 1,11,-1
 434 64 l 1,12,13
 422 56 422 56 401 43.5 c 128,-1,14
 380 31 380 31 321 10.5 c 128,-1,15
 262 -10 262 -10 210 -10 c 0,16,17
 128 -10 128 -10 79 38 c 128,-1,18
 30 86 30 86 30 165 c 0,19,20
 30 323 30 323 114.5 431.5 c 128,-1,21
 199 540 199 540 319 540 c 0,22,23
 395 540 395 540 439.5 504.5 c 128,-1,24
 484 469 484 469 484 410 c 0,0,1
142 287 m 1,25,26
 249 287 249 287 319 319 c 128,-1,27
 389 351 389 351 389 400 c 0,28,29
 389 465 389 465 314 465 c 0,30,31
 259 465 259 465 210 415 c 128,-1,32
 161 365 161 365 142 287 c 1,25,26
356.5 651 m 128,-1,34
 338 625 338 625 309 625 c 128,-1,35
 280 625 280 625 265 638.5 c 128,-1,36
 250 652 250 652 250 682.5 c 128,-1,37
 250 713 250 713 268.5 739 c 128,-1,38
 287 765 287 765 316 765 c 128,-1,39
 345 765 345 765 360 751.5 c 128,-1,40
 375 738 375 738 375 707.5 c 128,-1,33
 375 677 375 677 356.5 651 c 128,-1,34
EndSplineSet
EndChar

StartChar: Eogonek
Encoding: 280 280 213
Width: 578
GlyphClass: 2
Flags: W
LayerCount: 2
Fore
SplineSet
103 80 m 1,0,-1
 189 620 l 1,1,-1
 107 640 l 1,2,-1
 116 695 l 1,3,-1
 302 700 l 1,4,-1
 603 700 l 1,5,-1
 576 530 l 1,6,-1
 520 530 l 1,7,-1
 510 620 l 1,8,-1
 289 620 l 1,9,-1
 254 405 l 1,10,-1
 482 405 l 1,11,-1
 470 325 l 1,12,-1
 242 325 l 1,13,-1
 203 80 l 1,14,-1
 430 80 l 1,15,-1
 467 182 l 1,16,-1
 533 182 l 1,17,-1
 502 0 l 1,18,-1
 5 0 l 1,19,-1
 15 60 l 1,20,-1
 103 80 l 1,0,-1
365 0 m 1,21,-1
 443 0 l 1,22,23
 438 -3 438 -3 430 -7.5 c 128,-1,24
 422 -12 422 -12 402 -27 c 128,-1,25
 382 -42 382 -42 366 -56 c 0,26,27
 325 -93 325 -93 325 -124 c 0,28,29
 325 -141 325 -141 335.5 -150.5 c 128,-1,30
 346 -160 346 -160 363 -160 c 1,31,-1
 409 -153 l 1,32,-1
 411 -200 l 1,33,34
 369 -220 369 -220 331 -220 c 128,-1,35
 293 -220 293 -220 269 -200 c 128,-1,36
 245 -180 245 -180 245 -142.5 c 128,-1,37
 245 -105 245 -105 275 -69 c 128,-1,38
 305 -33 305 -33 335 -16 c 2,39,-1
 365 0 l 1,21,-1
EndSplineSet
EndChar

StartChar: eogonek
Encoding: 281 281 214
Width: 504
GlyphClass: 2
Flags: W
LayerCount: 2
Fore
SplineSet
399 108 m 1,0,-1
 429 62 l 1,1,2
 413 53 413 53 374.5 25 c 128,-1,3
 336 -3 336 -3 312.5 -25 c 128,-1,4
 289 -47 289 -47 269.5 -75 c 128,-1,5
 250 -103 250 -103 250 -125 c 0,6,7
 250 -160 250 -160 288 -160 c 1,8,-1
 333 -153 l 1,9,-1
 335 -200 l 1,10,11
 293 -220 293 -220 254.5 -220 c 128,-1,12
 216 -220 216 -220 192.5 -199.5 c 128,-1,13
 169 -179 169 -179 169 -142 c 0,14,15
 169 -77 169 -77 256 -7 c 2,16,-1
 399 108 l 1,0,-1
484 410 m 0,17,18
 484 324 484 324 386.5 270.5 c 128,-1,19
 289 217 289 217 133 217 c 1,20,21
 130 195 130 195 130 174 c 0,22,23
 130 70 130 70 240 70 c 0,24,25
 272 70 272 70 313 81 c 128,-1,26
 354 92 354 92 379 104 c 2,27,-1
 404 115 l 1,28,-1
 434 64 l 1,29,30
 422 56 422 56 401 43.5 c 128,-1,31
 380 31 380 31 321 10.5 c 128,-1,32
 262 -10 262 -10 210 -10 c 0,33,34
 128 -10 128 -10 79 38 c 128,-1,35
 30 86 30 86 30 165 c 0,36,37
 30 323 30 323 114.5 431.5 c 128,-1,38
 199 540 199 540 319 540 c 0,39,40
 395 540 395 540 439.5 504.5 c 128,-1,41
 484 469 484 469 484 410 c 0,17,18
142 287 m 1,42,43
 249 287 249 287 319 319 c 128,-1,44
 389 351 389 351 389 400 c 0,45,46
 389 465 389 465 314 465 c 0,47,48
 259 465 259 465 210 415 c 128,-1,49
 161 365 161 365 142 287 c 1,42,43
EndSplineSet
EndChar

StartChar: Ecaron
Encoding: 282 282 215
Width: 583
GlyphClass: 2
Flags: W
LayerCount: 2
Fore
SplineSet
103 80 m 1,0,-1
 189 620 l 1,1,-1
 107 640 l 1,2,-1
 116 695 l 1,3,-1
 302 700 l 1,4,-1
 603 700 l 1,5,-1
 576 530 l 1,6,-1
 520 530 l 1,7,-1
 510 620 l 1,8,-1
 289 620 l 1,9,-1
 254 405 l 1,10,-1
 482 405 l 1,11,-1
 470 325 l 1,12,-1
 242 325 l 1,13,-1
 203 80 l 1,14,-1
 430 80 l 1,15,-1
 467 182 l 1,16,-1
 533 182 l 1,17,-1
 502 0 l 1,18,-1
 5 0 l 1,19,-1
 15 60 l 1,20,-1
 103 80 l 1,0,-1
432 826 m 1,21,-1
 581 912 l 1,22,-1
 608 867 l 1,23,-1
 449 751 l 1,24,-1
 391 751 l 1,25,-1
 269 867 l 1,26,-1
 317 912 l 1,27,-1
 432 826 l 1,21,-1
EndSplineSet
EndChar

StartChar: ecaron
Encoding: 283 283 216
Width: 524
GlyphClass: 2
Flags: W
LayerCount: 2
Fore
SplineSet
484 410 m 0,0,1
 484 324 484 324 386.5 270.5 c 128,-1,2
 289 217 289 217 133 217 c 1,3,4
 130 195 130 195 130 174 c 0,5,6
 130 70 130 70 240 70 c 0,7,8
 272 70 272 70 313 81 c 128,-1,9
 354 92 354 92 379 104 c 2,10,-1
 404 115 l 1,11,-1
 434 64 l 1,12,13
 422 56 422 56 401 43.5 c 128,-1,14
 380 31 380 31 321 10.5 c 128,-1,15
 262 -10 262 -10 210 -10 c 0,16,17
 128 -10 128 -10 79 38 c 128,-1,18
 30 86 30 86 30 165 c 0,19,20
 30 323 30 323 114.5 431.5 c 128,-1,21
 199 540 199 540 319 540 c 0,22,23
 395 540 395 540 439.5 504.5 c 128,-1,24
 484 469 484 469 484 410 c 0,0,1
142 287 m 1,25,26
 249 287 249 287 319 319 c 128,-1,27
 389 351 389 351 389 400 c 0,28,29
 389 465 389 465 314 465 c 0,30,31
 259 465 259 465 210 415 c 128,-1,32
 161 365 161 365 142 287 c 1,25,26
328 691 m 1,33,-1
 477 796 l 1,34,-1
 504 751 l 1,35,-1
 345 616 l 1,36,-1
 287 616 l 1,37,-1
 165 751 l 1,38,-1
 213 796 l 1,39,-1
 328 691 l 1,33,-1
EndSplineSet
EndChar

StartChar: Gcircumflex
Encoding: 284 284 217
Width: 724
GlyphClass: 2
Flags: W
LayerCount: 2
Fore
SplineSet
130.5 59.5 m 128,-1,1
 60 129 60 129 60 244 c 0,2,3
 60 449 60 449 171 579.5 c 128,-1,4
 282 710 282 710 452 710 c 0,5,6
 501 710 501 710 566.5 693.5 c 128,-1,7
 632 677 632 677 663 660 c 1,8,-1
 636 499 l 1,9,-1
 578 499 l 1,10,-1
 566 603 l 1,11,12
 511 625 511 625 434.5 625 c 128,-1,13
 358 625 358 625 296 573 c 128,-1,14
 234 521 234 521 202 438.5 c 128,-1,15
 170 356 170 356 170 265.5 c 128,-1,16
 170 175 170 175 214.5 125.5 c 128,-1,17
 259 76 259 76 345 76 c 128,-1,18
 431 76 431 76 503 103 c 1,19,-1
 530 270 l 1,20,-1
 445 285 l 1,21,-1
 454 340 l 1,22,-1
 714 345 l 1,23,-1
 704 285 l 1,24,-1
 627 270 l 1,25,-1
 592 50 l 1,26,27
 463 -10 463 -10 332 -10 c 128,-1,0
 201 -10 201 -10 130.5 59.5 c 128,-1,1
604 750 m 1,28,-1
 489 833 l 1,29,-1
 340 750 l 1,30,-1
 308 795 l 1,31,-1
 469 905 l 1,32,-1
 528 910 l 1,33,-1
 651 795 l 1,34,-1
 604 750 l 1,28,-1
EndSplineSet
EndChar

StartChar: Gbreve
Encoding: 286 286 219
Width: 724
GlyphClass: 2
Flags: W
LayerCount: 2
Fore
SplineSet
130.5 59.5 m 128,-1,1
 60 129 60 129 60 244 c 0,2,3
 60 449 60 449 171 579.5 c 128,-1,4
 282 710 282 710 452 710 c 0,5,6
 501 710 501 710 566.5 693.5 c 128,-1,7
 632 677 632 677 663 660 c 1,8,-1
 636 499 l 1,9,-1
 578 499 l 1,10,-1
 566 603 l 1,11,12
 511 625 511 625 434.5 625 c 128,-1,13
 358 625 358 625 296 573 c 128,-1,14
 234 521 234 521 202 438.5 c 128,-1,15
 170 356 170 356 170 265.5 c 128,-1,16
 170 175 170 175 214.5 125.5 c 128,-1,17
 259 76 259 76 345 76 c 128,-1,18
 431 76 431 76 503 103 c 1,19,-1
 530 270 l 1,20,-1
 445 285 l 1,21,-1
 454 340 l 1,22,-1
 714 345 l 1,23,-1
 704 285 l 1,24,-1
 627 270 l 1,25,-1
 592 50 l 1,26,27
 463 -10 463 -10 332 -10 c 128,-1,0
 201 -10 201 -10 130.5 59.5 c 128,-1,1
562 900 m 1,28,-1
 621 905 l 1,29,30
 611 839 611 839 563.5 797 c 128,-1,31
 516 755 516 755 462 755 c 128,-1,32
 408 755 408 755 376.5 789.5 c 128,-1,33
 345 824 345 824 345 874 c 1,34,-1
 347 900 l 1,35,-1
 406 905 l 1,36,37
 406 873 406 873 424 851.5 c 128,-1,38
 442 830 442 830 473.5 830 c 128,-1,39
 505 830 505 830 527.5 847.5 c 128,-1,40
 550 865 550 865 556 882 c 2,41,-1
 562 900 l 1,28,-1
EndSplineSet
EndChar

StartChar: gbreve
Encoding: 287 287 220
Width: 559
GlyphClass: 2
Flags: W
LayerCount: 2
Fore
SplineSet
529 530 m 1,0,-1
 440 -24 l 2,1,2
 423 -131 423 -131 362 -188 c 128,-1,3
 301 -245 301 -245 204 -245 c 0,4,5
 165 -245 165 -245 119 -234.5 c 128,-1,6
 73 -224 73 -224 46 -214 c 2,7,-1
 20 -204 l 1,8,-1
 44 -132 l 1,9,10
 131 -163 131 -163 194 -163 c 0,11,12
 317 -163 317 -163 345 -30 c 2,13,-1
 390 184 l 1,14,15
 349 103 349 103 299 54 c 0,16,17
 275 30 275 30 238 10 c 128,-1,18
 201 -10 201 -10 164 -10 c 0,19,20
 108 -10 108 -10 71.5 39.5 c 128,-1,21
 35 89 35 89 35 165 c 0,22,23
 35 339 35 339 123 439.5 c 128,-1,24
 211 540 211 540 331 540 c 0,25,26
 361 540 361 540 389.5 532.5 c 128,-1,27
 418 525 418 525 431 518 c 2,28,-1
 444 510 l 1,29,-1
 474 530 l 1,30,-1
 529 530 l 1,0,-1
402 345 m 1,31,-1
 421 450 l 1,32,33
 385 465 385 465 331 465 c 0,34,35
 252 465 252 465 193.5 392.5 c 128,-1,36
 135 320 135 320 135 182 c 0,37,38
 135 129 135 129 151.5 102 c 128,-1,39
 168 75 168 75 199 75 c 128,-1,40
 230 75 230 75 263.5 103 c 128,-1,41
 297 131 297 131 321 170 c 0,42,43
 370 252 370 252 392 317 c 1,44,-1
 402 345 l 1,31,-1
430 770 m 1,45,-1
 489 775 l 1,46,47
 479 709 479 709 431.5 667 c 128,-1,48
 384 625 384 625 330 625 c 128,-1,49
 276 625 276 625 244.5 659.5 c 128,-1,50
 213 694 213 694 213 744 c 1,51,-1
 215 770 l 1,52,-1
 274 775 l 1,53,54
 274 743 274 743 292 721.5 c 128,-1,55
 310 700 310 700 341.5 700 c 128,-1,56
 373 700 373 700 395.5 717.5 c 128,-1,57
 418 735 418 735 424 752 c 2,58,-1
 430 770 l 1,45,-1
EndSplineSet
EndChar

StartChar: Gcommaaccent
Encoding: 290 290 223
Width: 724
GlyphClass: 2
Flags: W
LayerCount: 2
Fore
SplineSet
592 50 m 1,0,1
 463 -10 463 -10 332 -10 c 128,-1,2
 201 -10 201 -10 130.5 59.5 c 128,-1,3
 60 129 60 129 60 244 c 0,4,5
 60 449 60 449 171 579.5 c 128,-1,6
 282 710 282 710 452 710 c 0,7,8
 501 710 501 710 553.5 697.5 c 128,-1,9
 606 685 606 685 634 672 c 1,10,-1
 663 660 l 1,11,-1
 636 499 l 1,12,-1
 578 499 l 1,13,-1
 566 603 l 1,14,15
 511 625 511 625 434.5 625 c 128,-1,16
 358 625 358 625 296 573 c 128,-1,17
 234 521 234 521 202 438.5 c 128,-1,18
 170 356 170 356 170 265.5 c 128,-1,19
 170 175 170 175 214.5 125.5 c 128,-1,20
 259 76 259 76 345 76 c 128,-1,21
 431 76 431 76 503 103 c 1,22,-1
 530 270 l 1,23,-1
 445 285 l 1,24,-1
 454 340 l 1,25,-1
 714 345 l 1,26,-1
 704 285 l 1,27,-1
 627 270 l 1,28,-1
 592 50 l 1,0,1
309 -150 m 1,29,-1
 307 -106 l 1,30,31
 307 -76 307 -76 319.5 -56.5 c 128,-1,32
 332 -37 332 -37 358 -37 c 0,33,34
 405 -37 405 -37 405 -85 c 0,35,36
 405 -122 405 -122 377.5 -168 c 128,-1,37
 350 -214 350 -214 323 -242 c 2,38,-1
 296 -270 l 1,39,-1
 268 -245 l 1,40,41
 292 -215 292 -215 300.5 -197.5 c 128,-1,42
 309 -180 309 -180 309 -150 c 1,29,-1
EndSplineSet
EndChar

StartChar: Hcircumflex
Encoding: 292 292 224
Width: 795
GlyphClass: 2
Flags: W
LayerCount: 2
Fore
SplineSet
427 0 m 1,0,-1
 437 60 l 1,1,-1
 531 79 l 1,2,-1
 570 320 l 1,3,-1
 244 320 l 1,4,-1
 206 80 l 1,5,-1
 293 60 l 1,6,-1
 283 0 l 1,7,-1
 10 0 l 1,8,-1
 20 60 l 1,9,-1
 106 79 l 1,10,-1
 193 620 l 1,11,-1
 111 640 l 1,12,-1
 120 695 l 1,13,-1
 395 700 l 1,14,-1
 385 640 l 1,15,-1
 293 620 l 1,16,-1
 257 400 l 1,17,-1
 583 400 l 1,18,-1
 618 620 l 1,19,-1
 527 640 l 1,20,-1
 536 695 l 1,21,-1
 815 700 l 1,22,-1
 805 640 l 1,23,-1
 718 620 l 1,24,-1
 631 80 l 1,25,-1
 715 60 l 1,26,-1
 705 0 l 1,27,-1
 427 0 l 1,0,-1
606 750 m 1,28,-1
 491 833 l 1,29,-1
 342 750 l 1,30,-1
 310 795 l 1,31,-1
 471 905 l 1,32,-1
 530 910 l 1,33,-1
 653 795 l 1,34,-1
 606 750 l 1,28,-1
EndSplineSet
EndChar

StartChar: Itilde
Encoding: 296 296 225
Width: 437
GlyphClass: 2
Flags: W
LayerCount: 2
Fore
SplineSet
110 80 m 1,0,-1
 196 620 l 1,1,-1
 112 640 l 1,2,-1
 121 695 l 1,3,-1
 394 700 l 1,4,-1
 384 640 l 1,5,-1
 296 620 l 1,6,-1
 209 80 l 1,7,-1
 293 60 l 1,8,-1
 283 0 l 1,9,-1
 10 0 l 1,10,-1
 20 60 l 1,11,-1
 110 80 l 1,0,-1
99 766 m 1,12,-1
 70 796 l 1,13,14
 75 805 75 805 90.5 825 c 128,-1,15
 106 845 106 845 120 858 c 0,16,17
 156 890 156 890 192 890 c 128,-1,18
 228 890 228 890 278.5 867 c 128,-1,19
 329 844 329 844 352 844 c 128,-1,20
 375 844 375 844 392.5 854.5 c 128,-1,21
 410 865 410 865 418 876 c 1,22,-1
 427 886 l 1,23,-1
 457 856 l 1,24,25
 442 827 442 827 420 806 c 0,26,27
 376 766 376 766 340 766 c 128,-1,28
 304 766 304 766 253.5 788 c 128,-1,29
 203 810 203 810 180 810 c 0,30,31
 141 810 141 810 110 777 c 1,32,-1
 99 766 l 1,12,-1
EndSplineSet
EndChar

StartChar: itilde
Encoding: 297 297 226
Width: 336
GlyphClass: 2
Flags: W
LayerCount: 2
Fore
SplineSet
141 450 m 1,0,-1
 56 470 l 1,1,-1
 66 525 l 1,2,-1
 249 530 l 1,3,-1
 177 80 l 1,4,-1
 262 65 l 1,5,-1
 253 10 l 1,6,-1
 69 0 l 1,7,-1
 141 450 l 1,0,-1
38 635 m 1,8,-1
 10 670 l 1,9,10
 28 704 28 704 63.5 734 c 128,-1,11
 99 764 99 764 129 764 c 128,-1,12
 159 764 159 764 203.5 741 c 128,-1,13
 248 718 248 718 269 718 c 0,14,15
 304 718 304 718 332 750 c 1,16,-1
 342 760 l 1,17,-1
 371 725 l 1,18,19
 367 716 367 716 352 697 c 128,-1,20
 337 678 337 678 325 666 c 0,21,22
 294 635 294 635 260.5 635 c 128,-1,23
 227 635 227 635 181.5 657 c 128,-1,24
 136 679 136 679 116 679 c 0,25,26
 80 679 80 679 48 646 c 1,27,-1
 38 635 l 1,8,-1
EndSplineSet
EndChar

StartChar: Imacron
Encoding: 298 298 227
Width: 389
GlyphClass: 2
Flags: W
LayerCount: 2
Fore
SplineSet
110 80 m 1,0,-1
 196 620 l 1,1,-1
 112 640 l 1,2,-1
 121 695 l 1,3,-1
 394 700 l 1,4,-1
 384 640 l 1,5,-1
 296 620 l 1,6,-1
 209 80 l 1,7,-1
 293 60 l 1,8,-1
 283 0 l 1,9,-1
 10 0 l 1,10,-1
 20 60 l 1,11,-1
 110 80 l 1,0,-1
134 780 m 1,12,-1
 145 855 l 1,13,-1
 409 855 l 1,14,-1
 398 780 l 1,15,-1
 134 780 l 1,12,-1
EndSplineSet
EndChar

StartChar: imacron
Encoding: 299 299 228
Width: 335
GlyphClass: 2
Flags: W
LayerCount: 2
Fore
SplineSet
140 450 m 1,0,-1
 55 470 l 1,1,-1
 65 525 l 1,2,-1
 248 530 l 1,3,-1
 176 80 l 1,4,-1
 261 65 l 1,5,-1
 252 10 l 1,6,-1
 68 0 l 1,7,-1
 140 450 l 1,0,-1
60 660 m 1,8,-1
 71 735 l 1,9,-1
 335 735 l 1,10,-1
 324 660 l 1,11,-1
 60 660 l 1,8,-1
EndSplineSet
EndChar

StartChar: Ibreve
Encoding: 300 300 229
Width: 396
GlyphClass: 2
Flags: W
LayerCount: 2
Fore
SplineSet
110 80 m 1,0,-1
 196 620 l 1,1,-1
 112 640 l 1,2,-1
 121 695 l 1,3,-1
 394 700 l 1,4,-1
 384 640 l 1,5,-1
 296 620 l 1,6,-1
 209 80 l 1,7,-1
 293 60 l 1,8,-1
 283 0 l 1,9,-1
 10 0 l 1,10,-1
 20 60 l 1,11,-1
 110 80 l 1,0,-1
357 900 m 1,12,-1
 416 905 l 1,13,14
 406 839 406 839 358.5 797 c 128,-1,15
 311 755 311 755 257 755 c 128,-1,16
 203 755 203 755 171.5 789.5 c 128,-1,17
 140 824 140 824 140 874 c 1,18,-1
 142 900 l 1,19,-1
 201 905 l 1,20,21
 201 873 201 873 219 851.5 c 128,-1,22
 237 830 237 830 268.5 830 c 128,-1,23
 300 830 300 830 322.5 847.5 c 128,-1,24
 345 865 345 865 351 882 c 2,25,-1
 357 900 l 1,12,-1
EndSplineSet
EndChar

StartChar: ibreve
Encoding: 301 301 230
Width: 337
GlyphClass: 2
Flags: W
LayerCount: 2
Fore
SplineSet
140 450 m 1,0,-1
 55 470 l 1,1,-1
 65 525 l 1,2,-1
 248 530 l 1,3,-1
 176 80 l 1,4,-1
 261 65 l 1,5,-1
 252 10 l 1,6,-1
 68 0 l 1,7,-1
 140 450 l 1,0,-1
283 770 m 1,8,-1
 342 775 l 1,9,10
 332 709 332 709 286.5 667 c 128,-1,11
 241 625 241 625 189.5 625 c 128,-1,12
 138 625 138 625 107 660 c 128,-1,13
 76 695 76 695 76 744 c 1,14,-1
 78 770 l 1,15,-1
 137 775 l 1,16,17
 137 742 137 742 154 721 c 128,-1,18
 171 700 171 700 200.5 700 c 128,-1,19
 230 700 230 700 251 717.5 c 128,-1,20
 272 735 272 735 278 752 c 1,21,-1
 283 770 l 1,8,-1
EndSplineSet
EndChar

StartChar: Iogonek
Encoding: 302 302 231
Width: 383
GlyphClass: 2
Flags: W
LayerCount: 2
Fore
SplineSet
119 80 m 1,0,-1
 205 620 l 1,1,-1
 121 640 l 1,2,-1
 130 695 l 1,3,-1
 403 700 l 1,4,-1
 393 640 l 1,5,-1
 305 620 l 1,6,-1
 218 80 l 1,7,-1
 302 60 l 1,8,-1
 292 0 l 1,9,-1
 19 0 l 1,10,-1
 29 60 l 1,11,-1
 119 80 l 1,0,-1
125 0 m 1,12,-1
 203 0 l 1,13,14
 198 -3 198 -3 190 -7.5 c 128,-1,15
 182 -12 182 -12 162 -27 c 128,-1,16
 142 -42 142 -42 126 -56 c 0,17,18
 85 -93 85 -93 85 -124 c 0,19,20
 85 -141 85 -141 95.5 -150.5 c 128,-1,21
 106 -160 106 -160 123 -160 c 1,22,-1
 169 -153 l 1,23,-1
 171 -200 l 1,24,25
 129 -220 129 -220 91 -220 c 128,-1,26
 53 -220 53 -220 29 -200 c 128,-1,27
 5 -180 5 -180 5 -142.5 c 128,-1,28
 5 -105 5 -105 35 -69 c 128,-1,29
 65 -33 65 -33 95 -16 c 2,30,-1
 125 0 l 1,12,-1
EndSplineSet
EndChar

StartChar: iogonek
Encoding: 303 303 232
Width: 329
GlyphClass: 2
Flags: W
LayerCount: 2
Fore
SplineSet
67 -68 m 128,-1,1
 40 -94 40 -94 40 -118 c 0,2,3
 40 -160 40 -160 79 -160 c 1,4,-1
 125 -153 l 1,5,-1
 125 -200 l 1,6,7
 83 -220 83 -220 45.5 -220 c 128,-1,8
 8 -220 8 -220 -16 -198.5 c 128,-1,9
 -40 -177 -40 -177 -40 -142 c 0,10,11
 -40 -70 -40 -70 69 0 c 1,12,-1
 252 10 l 1,13,14
 213 4 213 4 134 -26 c 0,15,0
 94 -42 94 -42 67 -68 c 128,-1,1
69 0 m 1,16,-1
 141 450 l 1,17,-1
 56 470 l 1,18,-1
 66 525 l 1,19,-1
 249 530 l 1,20,-1
 177 80 l 1,21,-1
 262 65 l 1,22,-1
 253 10 l 1,23,-1
 69 0 l 1,16,-1
260.5 651 m 128,-1,25
 242 625 242 625 213 625 c 128,-1,26
 184 625 184 625 169 638.5 c 128,-1,27
 154 652 154 652 154 682.5 c 128,-1,28
 154 713 154 713 172.5 739 c 128,-1,29
 191 765 191 765 220 765 c 128,-1,30
 249 765 249 765 264 751.5 c 128,-1,31
 279 738 279 738 279 707.5 c 128,-1,24
 279 677 279 677 260.5 651 c 128,-1,25
EndSplineSet
EndChar

StartChar: Idotaccent
Encoding: 304 304 233
Width: 374
GlyphClass: 2
Flags: W
LayerCount: 2
Fore
SplineSet
110 80 m 1,0,-1
 196 620 l 1,1,-1
 112 640 l 1,2,-1
 121 695 l 1,3,-1
 394 700 l 1,4,-1
 384 640 l 1,5,-1
 296 620 l 1,6,-1
 209 80 l 1,7,-1
 293 60 l 1,8,-1
 283 0 l 1,9,-1
 10 0 l 1,10,-1
 20 60 l 1,11,-1
 110 80 l 1,0,-1
318.5 791 m 128,-1,13
 300 765 300 765 271 765 c 128,-1,14
 242 765 242 765 227 778.5 c 128,-1,15
 212 792 212 792 212 822.5 c 128,-1,16
 212 853 212 853 230.5 879 c 128,-1,17
 249 905 249 905 278 905 c 128,-1,18
 307 905 307 905 322 891.5 c 128,-1,19
 337 878 337 878 337 847.5 c 128,-1,12
 337 817 337 817 318.5 791 c 128,-1,13
EndSplineSet
EndChar

StartChar: dotlessi
Encoding: 305 305 234
Width: 286
GlyphClass: 2
Flags: W
LayerCount: 2
Fore
SplineSet
68 0 m 1,0,-1
 140 450 l 1,1,-1
 55 470 l 1,2,-1
 65 525 l 1,3,-1
 248 530 l 1,4,-1
 176 80 l 1,5,-1
 261 65 l 1,6,-1
 252 10 l 1,7,-1
 68 0 l 1,0,-1
EndSplineSet
EndChar

StartChar: IJ
Encoding: 306 306 235
Width: 686
GlyphClass: 2
Flags: W
LayerCount: 2
Fore
SplineSet
414 25 m 1,0,-1
 509 620 l 1,1,-1
 404 640 l 1,2,-1
 296 620 l 1,3,-1
 209 80 l 1,4,-1
 293 60 l 1,5,-1
 283 0 l 1,6,-1
 10 0 l 1,7,-1
 20 60 l 1,8,-1
 110 80 l 1,9,-1
 196 620 l 1,10,-1
 112 640 l 1,11,-1
 121 695 l 1,12,-1
 706 700 l 1,13,-1
 696 640 l 1,14,-1
 609 620 l 1,15,-1
 517 45 l 2,16,17
 503 -46 503 -46 446 -98 c 128,-1,18
 389 -150 389 -150 302 -150 c 1,19,-1
 240 -145 l 1,20,-1
 261 -70 l 1,21,-1
 310 -70 l 2,22,23
 400 -70 400 -70 414 25 c 1,0,-1
EndSplineSet
EndChar

StartChar: ij
Encoding: 307 307 236
Width: 637
GlyphClass: 2
Flags: W
LayerCount: 2
Fore
SplineSet
452 348 m 1,0,-1
 469 450 l 1,1,-1
 383 470 l 1,2,-1
 393 525 l 1,3,-1
 578 530 l 1,4,-1
 484 -45 l 2,5,6
 469 -137 469 -137 417 -188.5 c 128,-1,7
 365 -240 365 -240 279 -240 c 0,8,9
 246 -240 246 -240 210 -228 c 1,10,-1
 199 -225 l 1,11,-1
 219 -160 l 1,12,13
 244 -165 244 -165 287.5 -165 c 128,-1,14
 331 -165 331 -165 355 -135 c 128,-1,15
 379 -105 379 -105 391 -35 c 2,16,-1
 422 159 l 1,17,18
 328 -10 328 -10 200 -10 c 0,19,20
 89 -10 89 -10 89 112 c 0,21,22
 89 135 89 135 94 170 c 2,23,-1
 140 450 l 1,24,-1
 55 470 l 1,25,-1
 64 525 l 1,26,-1
 247 530 l 1,27,-1
 192 185 l 1,28,29
 188 153 188 153 188 141 c 0,30,31
 188 75 188 75 240 75 c 0,32,33
 284 75 284 75 325.5 113.5 c 128,-1,34
 367 152 367 152 393 204 c 0,35,36
 447 310 447 310 452 348 c 1,0,-1
588.5 651 m 128,-1,38
 570 625 570 625 541 625 c 128,-1,39
 512 625 512 625 497 638.5 c 128,-1,40
 482 652 482 652 482 682.5 c 128,-1,41
 482 713 482 713 500.5 739 c 128,-1,42
 519 765 519 765 548 765 c 128,-1,43
 577 765 577 765 592 751.5 c 128,-1,44
 607 738 607 738 607 707.5 c 128,-1,37
 607 677 607 677 588.5 651 c 128,-1,38
258.5 651 m 128,-1,46
 240 625 240 625 211 625 c 128,-1,47
 182 625 182 625 167 638.5 c 128,-1,48
 152 652 152 652 152 682.5 c 128,-1,49
 152 713 152 713 170.5 739 c 128,-1,50
 189 765 189 765 218 765 c 128,-1,51
 247 765 247 765 262 751.5 c 128,-1,52
 277 738 277 738 277 707.5 c 128,-1,45
 277 677 277 677 258.5 651 c 128,-1,46
EndSplineSet
EndChar

StartChar: Jcircumflex
Encoding: 308 308 237
Width: 398
GlyphClass: 2
Flags: W
LayerCount: 2
Fore
SplineSet
89 25 m 2,0,-1
 184 620 l 1,1,-1
 99 640 l 1,2,-1
 108 695 l 1,3,-1
 381 700 l 1,4,-1
 371 640 l 1,5,-1
 284 620 l 1,6,-1
 192 45 l 2,7,8
 178 -46 178 -46 121 -98 c 128,-1,9
 64 -150 64 -150 -23 -150 c 1,10,-1
 -85 -145 l 1,11,-1
 -64 -70 l 1,12,-1
 -15 -70 l 2,13,14
 73 -70 73 -70 89 25 c 2,0,-1
386 750 m 1,15,-1
 276 833 l 1,16,-1
 132 750 l 1,17,-1
 100 795 l 1,18,-1
 256 905 l 1,19,-1
 315 910 l 1,20,-1
 433 795 l 1,21,-1
 386 750 l 1,15,-1
EndSplineSet
EndChar

StartChar: jcircumflex
Encoding: 309 309 238
Width: 271
GlyphClass: 2
Flags: W
LayerCount: 2
Fore
SplineSet
129 450 m 1,0,-1
 43 470 l 1,1,-1
 53 525 l 1,2,-1
 239 530 l 1,3,-1
 143 -45 l 2,4,5
 128 -138 128 -138 77 -189 c 128,-1,6
 26 -240 26 -240 -60 -240 c 0,7,8
 -100 -240 -100 -240 -140 -225 c 1,9,-1
 -120 -160 l 1,10,-1
 -60 -165 l 1,11,12
 -11 -165 -11 -165 12.5 -135 c 128,-1,13
 36 -105 36 -105 48 -35 c 2,14,-1
 129 450 l 1,0,-1
297 617 m 1,15,-1
 190 715 l 1,16,-1
 48 617 l 1,17,-1
 13 662 l 1,18,-1
 170 792 l 1,19,-1
 229 797 l 1,20,-1
 346 662 l 1,21,-1
 297 617 l 1,15,-1
EndSplineSet
EndChar

StartChar: Kcommaaccent
Encoding: 310 310 239
Width: 645
GlyphClass: 2
Flags: W
LayerCount: 2
Fore
SplineSet
384 0 m 1,0,-1
 394 60 l 1,1,-1
 470 79 l 1,2,-1
 340 320 l 1,3,-1
 241 320 l 1,4,-1
 203 80 l 1,5,-1
 288 60 l 1,6,-1
 278 0 l 1,7,-1
 5 0 l 1,8,-1
 15 60 l 1,9,-1
 103 80 l 1,10,-1
 190 620 l 1,11,-1
 106 640 l 1,12,-1
 115 695 l 1,13,-1
 389 700 l 1,14,-1
 379 640 l 1,15,-1
 290 620 l 1,16,-1
 254 400 l 1,17,-1
 346 400 l 1,18,-1
 562 695 l 1,19,-1
 710 700 l 1,20,-1
 700 640 l 1,21,-1
 615 620 l 1,22,-1
 426 367 l 1,23,-1
 583 80 l 1,24,-1
 654 60 l 1,25,-1
 644 0 l 1,26,-1
 384 0 l 1,0,-1
276 -106 m 1,27,28
 276 -76 276 -76 288.5 -56.5 c 128,-1,29
 301 -37 301 -37 327 -37 c 0,30,31
 374 -37 374 -37 374 -85 c 0,32,33
 374 -108 374 -108 362 -136 c 0,34,35
 334 -201 334 -201 276 -258 c 1,36,-1
 265 -270 l 1,37,-1
 237 -245 l 1,38,39
 261 -215 261 -215 269.5 -197.5 c 128,-1,40
 278 -180 278 -180 278 -150 c 1,41,-1
 276 -106 l 1,27,28
EndSplineSet
EndChar

StartChar: kcommaaccent
Encoding: 311 311 240
Width: 528
GlyphClass: 2
Flags: W
LayerCount: 2
Fore
SplineSet
273 770 m 1,0,-1
 201 325 l 1,1,-1
 275 326 l 1,2,-1
 383 459 l 1,3,-1
 340 470 l 1,4,-1
 348 525 l 1,5,-1
 563 530 l 1,6,-1
 553 470 l 1,7,-1
 478 457 l 1,8,-1
 340 295 l 1,9,10
 360 278 360 278 393 203 c 2,11,-1
 446 80 l 1,12,-1
 533 55 l 1,13,-1
 523 0 l 1,14,-1
 376 0 l 1,15,-1
 308 166 l 2,16,17
 286 219 286 219 272 237 c 128,-1,18
 258 255 258 255 229 255 c 2,19,-1
 190 255 l 1,20,-1
 150 0 l 1,21,-1
 55 0 l 1,22,-1
 166 690 l 1,23,-1
 81 710 l 1,24,-1
 90 765 l 1,25,-1
 273 770 l 1,0,-1
204 -106 m 1,26,27
 204 -76 204 -76 216.5 -56.5 c 128,-1,28
 229 -37 229 -37 255 -37 c 0,29,30
 302 -37 302 -37 302 -85 c 0,31,32
 302 -108 302 -108 290 -136 c 0,33,34
 262 -201 262 -201 204 -258 c 1,35,-1
 193 -270 l 1,36,-1
 165 -245 l 1,37,38
 189 -215 189 -215 197.5 -197.5 c 128,-1,39
 206 -180 206 -180 206 -150 c 1,40,-1
 204 -106 l 1,26,27
EndSplineSet
EndChar

StartChar: Lacute
Encoding: 313 313 241
Width: 537
GlyphClass: 2
Flags: W
LayerCount: 2
Fore
SplineSet
489 0 m 1,0,-1
 10 0 l 1,1,-1
 20 60 l 1,2,-1
 109 80 l 1,3,-1
 195 620 l 1,4,-1
 112 640 l 1,5,-1
 120 695 l 1,6,-1
 399 700 l 1,7,-1
 389 640 l 1,8,-1
 295 620 l 1,9,-1
 209 80 l 1,10,-1
 415 80 l 1,11,-1
 454 195 l 1,12,-1
 522 195 l 1,13,-1
 489 0 l 1,0,-1
422 841 m 1,14,-1
 194 746 l 1,15,-1
 167 801 l 1,16,-1
 385 920 l 1,17,-1
 422 841 l 1,14,-1
EndSplineSet
EndChar

StartChar: lacute
Encoding: 314 314 242
Width: 371
GlyphClass: 2
Flags: W
LayerCount: 2
Fore
SplineSet
165 690 m 1,0,-1
 81 710 l 1,1,-1
 90 765 l 1,2,-1
 275 770 l 1,3,-1
 165 80 l 1,4,-1
 251 65 l 1,5,-1
 242 10 l 1,6,-1
 55 0 l 1,7,-1
 165 690 l 1,0,-1
326 881 m 1,8,-1
 98 786 l 1,9,-1
 71 841 l 1,10,-1
 289 960 l 1,11,-1
 326 881 l 1,8,-1
EndSplineSet
EndChar

StartChar: Lcommaaccent
Encoding: 315 315 243
Width: 537
GlyphClass: 2
Flags: W
LayerCount: 2
Fore
SplineSet
489 0 m 1,0,-1
 10 0 l 1,1,-1
 20 60 l 1,2,-1
 109 80 l 1,3,-1
 195 620 l 1,4,-1
 112 640 l 1,5,-1
 120 695 l 1,6,-1
 399 700 l 1,7,-1
 389 640 l 1,8,-1
 295 620 l 1,9,-1
 209 80 l 1,10,-1
 415 80 l 1,11,-1
 454 195 l 1,12,-1
 522 195 l 1,13,-1
 489 0 l 1,0,-1
226 -106 m 1,14,15
 226 -76 226 -76 238.5 -56.5 c 128,-1,16
 251 -37 251 -37 277 -37 c 0,17,18
 324 -37 324 -37 324 -85 c 0,19,20
 324 -108 324 -108 312 -136 c 0,21,22
 284 -201 284 -201 226 -258 c 1,23,-1
 215 -270 l 1,24,-1
 187 -245 l 1,25,26
 211 -215 211 -215 219.5 -197.5 c 128,-1,27
 228 -180 228 -180 228 -150 c 1,28,-1
 226 -106 l 1,14,15
EndSplineSet
EndChar

StartChar: lcommaaccent
Encoding: 316 316 244
Width: 321
GlyphClass: 2
Flags: W
LayerCount: 2
Fore
SplineSet
56 0 m 1,0,-1
 166 690 l 1,1,-1
 82 710 l 1,2,-1
 91 765 l 1,3,-1
 276 770 l 1,4,-1
 166 80 l 1,5,-1
 252 65 l 1,6,-1
 243 10 l 1,7,-1
 56 0 l 1,0,-1
101 -150 m 1,8,-1
 99 -106 l 1,9,10
 99 -76 99 -76 111.5 -56.5 c 128,-1,11
 124 -37 124 -37 150 -37 c 0,12,13
 197 -37 197 -37 197 -85 c 0,14,15
 197 -122 197 -122 169.5 -168 c 128,-1,16
 142 -214 142 -214 115 -242 c 2,17,-1
 88 -270 l 1,18,-1
 60 -245 l 1,19,20
 84 -215 84 -215 92.5 -197.5 c 128,-1,21
 101 -180 101 -180 101 -150 c 1,8,-1
EndSplineSet
EndChar

StartChar: ldot
Encoding: 320 320 246
Width: 513
GlyphClass: 2
Flags: W
LayerCount: 2
Fore
SplineSet
55 0 m 1,0,-1
 165 690 l 1,1,-1
 81 710 l 1,2,-1
 90 765 l 1,3,-1
 275 770 l 1,4,-1
 165 80 l 1,5,-1
 251 65 l 1,6,-1
 242 10 l 1,7,-1
 55 0 l 1,0,-1
429.5 301 m 128,-1,9
 411 275 411 275 382 275 c 128,-1,10
 353 275 353 275 338 288.5 c 128,-1,11
 323 302 323 302 323 332.5 c 128,-1,12
 323 363 323 363 341.5 389 c 128,-1,13
 360 415 360 415 389 415 c 128,-1,14
 418 415 418 415 433 401.5 c 128,-1,15
 448 388 448 388 448 357.5 c 128,-1,8
 448 327 448 327 429.5 301 c 128,-1,9
EndSplineSet
EndChar

StartChar: Lslash
Encoding: 321 321 247
Width: 540
GlyphClass: 2
Flags: W
LayerCount: 2
Fore
SplineSet
23 308 m 1,0,-1
 437 472 l 1,1,-1
 446 397 l 1,2,-1
 32 233 l 1,3,-1
 23 308 l 1,0,-1
489 0 m 1,4,-1
 10 0 l 1,5,-1
 20 60 l 1,6,-1
 109 80 l 1,7,-1
 195 620 l 1,8,-1
 112 640 l 1,9,-1
 120 695 l 1,10,-1
 399 700 l 1,11,-1
 389 640 l 1,12,-1
 295 620 l 1,13,-1
 209 80 l 1,14,-1
 415 80 l 1,15,-1
 454 195 l 1,16,-1
 522 195 l 1,17,-1
 489 0 l 1,4,-1
EndSplineSet
EndChar

StartChar: lslash
Encoding: 322 322 248
Width: 361
GlyphClass: 2
Flags: W
LayerCount: 2
Fore
SplineSet
29 336 m 1,0,-1
 362 480 l 1,1,-1
 370 405 l 1,2,-1
 38 262 l 1,3,-1
 29 336 l 1,0,-1
55 0 m 1,4,-1
 165 690 l 1,5,-1
 81 710 l 1,6,-1
 90 765 l 1,7,-1
 275 770 l 1,8,-1
 165 80 l 1,9,-1
 251 65 l 1,10,-1
 242 10 l 1,11,-1
 55 0 l 1,4,-1
EndSplineSet
EndChar

StartChar: Nacute
Encoding: 323 323 249
Width: 786
GlyphClass: 2
Flags: W
LayerCount: 2
Fore
SplineSet
327 700 m 1,0,-1
 561 141 l 1,1,-1
 637 620 l 1,2,-1
 557 640 l 1,3,-1
 566 695 l 1,4,-1
 821 700 l 1,5,-1
 811 640 l 1,6,-1
 726 620 l 1,7,-1
 628 0 l 1,8,-1
 515 0 l 1,9,-1
 271 563 l 1,10,-1
 194 80 l 1,11,-1
 276 60 l 1,12,-1
 265 0 l 1,13,-1
 5 0 l 1,14,-1
 16 60 l 1,15,-1
 105 80 l 1,16,-1
 191 620 l 1,17,-1
 108 640 l 1,18,-1
 117 695 l 1,19,-1
 327 700 l 1,0,-1
656 841 m 1,20,-1
 428 746 l 1,21,-1
 401 801 l 1,22,-1
 619 920 l 1,23,-1
 656 841 l 1,20,-1
EndSplineSet
EndChar

StartChar: Ncommaaccent
Encoding: 325 325 251
Width: 786
GlyphClass: 2
Flags: W
LayerCount: 2
Fore
SplineSet
117 695 m 1,0,-1
 327 700 l 1,1,-1
 561 141 l 1,2,-1
 637 620 l 1,3,-1
 557 640 l 1,4,-1
 566 695 l 1,5,-1
 821 700 l 1,6,-1
 811 640 l 1,7,-1
 726 620 l 1,8,-1
 628 0 l 1,9,-1
 515 0 l 1,10,-1
 271 563 l 1,11,-1
 194 80 l 1,12,-1
 276 60 l 1,13,-1
 265 0 l 1,14,-1
 5 0 l 1,15,-1
 16 60 l 1,16,-1
 105 80 l 1,17,-1
 191 620 l 1,18,-1
 108 640 l 1,19,-1
 117 695 l 1,0,-1
307 -150 m 1,20,-1
 305 -106 l 1,21,22
 305 -76 305 -76 317.5 -56.5 c 128,-1,23
 330 -37 330 -37 356 -37 c 0,24,25
 403 -37 403 -37 403 -85 c 0,26,27
 403 -122 403 -122 375.5 -168 c 128,-1,28
 348 -214 348 -214 321 -242 c 2,29,-1
 294 -270 l 1,30,-1
 266 -245 l 1,31,32
 290 -215 290 -215 298.5 -197.5 c 128,-1,33
 307 -180 307 -180 307 -150 c 1,20,-1
EndSplineSet
EndChar

StartChar: ncommaaccent
Encoding: 326 326 252
Width: 640
GlyphClass: 2
Flags: W
LayerCount: 2
Fore
SplineSet
397 0 m 1,0,-1
 453 345 l 2,1,2
 457 375 457 375 457 389 c 0,3,4
 457 455 457 455 405 455 c 0,5,6
 369 455 369 455 333.5 426.5 c 128,-1,7
 298 398 298 398 274 358 c 0,8,9
 223 275 223 275 200 208 c 1,10,-1
 191 180 l 1,11,-1
 162 0 l 1,12,-1
 67 0 l 1,13,-1
 139 450 l 1,14,-1
 55 470 l 1,15,-1
 64 525 l 1,16,-1
 247 530 l 1,17,-1
 202 336 l 1,18,19
 217 369 217 369 243.5 408 c 128,-1,20
 270 447 270 447 295.5 472.5 c 128,-1,21
 321 498 321 498 361.5 519 c 128,-1,22
 402 540 402 540 445 540 c 0,23,24
 556 540 556 540 556 417 c 0,25,26
 556 393 556 393 551 360 c 2,27,-1
 505 80 l 1,28,-1
 590 65 l 1,29,-1
 581 10 l 1,30,-1
 397 0 l 1,0,-1
230 -106 m 1,31,32
 230 -76 230 -76 242.5 -56.5 c 128,-1,33
 255 -37 255 -37 281 -37 c 0,34,35
 328 -37 328 -37 328 -85 c 0,36,37
 328 -108 328 -108 316 -136 c 0,38,39
 288 -201 288 -201 230 -258 c 1,40,-1
 219 -270 l 1,41,-1
 191 -245 l 1,42,43
 215 -215 215 -215 223.5 -197.5 c 128,-1,44
 232 -180 232 -180 232 -150 c 1,45,-1
 230 -106 l 1,31,32
EndSplineSet
EndChar

StartChar: Ncaron
Encoding: 327 327 253
Width: 786
GlyphClass: 2
Flags: W
LayerCount: 2
Fore
SplineSet
327 700 m 1,0,-1
 561 141 l 1,1,-1
 637 620 l 1,2,-1
 557 640 l 1,3,-1
 566 695 l 1,4,-1
 821 700 l 1,5,-1
 811 640 l 1,6,-1
 726 620 l 1,7,-1
 628 0 l 1,8,-1
 515 0 l 1,9,-1
 271 563 l 1,10,-1
 194 80 l 1,11,-1
 276 60 l 1,12,-1
 265 0 l 1,13,-1
 5 0 l 1,14,-1
 16 60 l 1,15,-1
 105 80 l 1,16,-1
 191 620 l 1,17,-1
 108 640 l 1,18,-1
 117 695 l 1,19,-1
 327 700 l 1,0,-1
445 826 m 1,20,-1
 594 912 l 1,21,-1
 621 867 l 1,22,-1
 462 751 l 1,23,-1
 404 751 l 1,24,-1
 282 867 l 1,25,-1
 330 912 l 1,26,-1
 445 826 l 1,20,-1
EndSplineSet
EndChar

StartChar: omacron
Encoding: 333 333 256
Width: 570
GlyphClass: 2
Flags: W
LayerCount: 2
Fore
SplineSet
220 -10 m 0,0,1
 138 -10 138 -10 89 42 c 128,-1,2
 40 94 40 94 40 180 c 0,3,4
 40 340 40 340 124 440 c 128,-1,5
 208 540 208 540 340 540 c 0,6,7
 426 540 426 540 475.5 488 c 128,-1,8
 525 436 525 436 525 353 c 0,9,10
 525 188 525 188 439.5 89 c 128,-1,11
 354 -10 354 -10 220 -10 c 0,0,1
320 460 m 0,12,13
 237 460 237 460 188.5 379.5 c 128,-1,14
 140 299 140 299 140 185 c 0,15,16
 140 127 140 127 166.5 98.5 c 128,-1,17
 193 70 193 70 240 70 c 0,18,19
 324 70 324 70 374.5 146.5 c 128,-1,20
 425 223 425 223 425 341.5 c 128,-1,21
 425 460 425 460 320 460 c 0,12,13
216 660 m 1,22,-1
 227 735 l 1,23,-1
 491 735 l 1,24,-1
 480 660 l 1,25,-1
 216 660 l 1,22,-1
EndSplineSet
EndChar

StartChar: Obreve
Encoding: 334 334 257
Width: 740
GlyphClass: 2
Flags: W
LayerCount: 2
Fore
SplineSet
301 -10 m 0,0,1
 189 -10 189 -10 124.5 55.5 c 128,-1,2
 60 121 60 121 60 234 c 0,3,4
 60 444 60 444 171.5 577 c 128,-1,5
 283 710 283 710 452 710 c 0,6,7
 571 710 571 710 638 642.5 c 128,-1,8
 705 575 705 575 705 465 c 0,9,10
 705 250 705 250 590.5 120 c 128,-1,11
 476 -10 476 -10 301 -10 c 0,0,1
595 452 m 0,12,13
 595 540 595 540 552.5 582.5 c 128,-1,14
 510 625 510 625 435 625 c 0,15,16
 318 625 318 625 244 513.5 c 128,-1,17
 170 402 170 402 170 244 c 0,18,19
 170 161 170 161 210.5 118 c 128,-1,20
 251 75 251 75 323 75 c 0,21,22
 442 75 442 75 518.5 182.5 c 128,-1,23
 595 290 595 290 595 452 c 0,12,13
562 900 m 1,24,-1
 621 905 l 1,25,26
 611 839 611 839 563.5 797 c 128,-1,27
 516 755 516 755 462 755 c 128,-1,28
 408 755 408 755 376.5 789.5 c 128,-1,29
 345 824 345 824 345 874 c 1,30,-1
 347 900 l 1,31,-1
 406 905 l 1,32,33
 406 873 406 873 424 851.5 c 128,-1,34
 442 830 442 830 473.5 830 c 128,-1,35
 505 830 505 830 527.5 847.5 c 128,-1,36
 550 865 550 865 556 882 c 2,37,-1
 562 900 l 1,24,-1
EndSplineSet
EndChar

StartChar: ohungarumlaut
Encoding: 337 337 259
Width: 567
GlyphClass: 2
Flags: W
LayerCount: 2
Fore
SplineSet
220 -10 m 0,0,1
 138 -10 138 -10 89 42 c 128,-1,2
 40 94 40 94 40 180 c 0,3,4
 40 340 40 340 124 440 c 128,-1,5
 208 540 208 540 340 540 c 0,6,7
 426 540 426 540 475.5 488 c 128,-1,8
 525 436 525 436 525 353 c 0,9,10
 525 188 525 188 439.5 89 c 128,-1,11
 354 -10 354 -10 220 -10 c 0,0,1
320 460 m 0,12,13
 237 460 237 460 188.5 379.5 c 128,-1,14
 140 299 140 299 140 185 c 0,15,16
 140 127 140 127 166.5 98.5 c 128,-1,17
 193 70 193 70 240 70 c 0,18,19
 324 70 324 70 374.5 146.5 c 128,-1,20
 425 223 425 223 425 341.5 c 128,-1,21
 425 460 425 460 320 460 c 0,12,13
622 755 m 1,22,-1
 421 605 l 1,23,-1
 385 655 l 1,24,-1
 574 820 l 1,25,-1
 622 755 l 1,22,-1
426 755 m 1,26,-1
 225 605 l 1,27,-1
 189 655 l 1,28,-1
 378 820 l 1,29,-1
 426 755 l 1,26,-1
EndSplineSet
EndChar

StartChar: OE
Encoding: 338 338 260
Width: 940
GlyphClass: 2
Flags: W
LayerCount: 2
Fore
SplineSet
456 0 m 1,0,-1
 296 -10 l 1,1,2
 189 -10 189 -10 124.5 60 c 128,-1,3
 60 130 60 130 60 244 c 0,4,5
 60 452 60 452 170.5 581 c 128,-1,6
 281 710 281 710 447 710 c 0,7,8
 476 710 476 710 520.5 705 c 128,-1,9
 565 700 565 700 580 700 c 2,10,-1
 913 700 l 1,11,-1
 886 530 l 1,12,-1
 830 530 l 1,13,-1
 820 620 l 1,14,-1
 599 620 l 1,15,-1
 564 405 l 1,16,-1
 792 405 l 1,17,-1
 780 325 l 1,18,-1
 552 325 l 1,19,-1
 513 80 l 1,20,-1
 740 80 l 1,21,-1
 777 182 l 1,22,-1
 843 182 l 1,23,-1
 812 0 l 1,24,-1
 456 0 l 1,0,-1
413 80 m 1,25,-1
 499 620 l 1,26,27
 470 625 470 625 430 625 c 0,28,29
 313 625 313 625 239 513.5 c 128,-1,30
 165 402 165 402 165 244 c 0,31,32
 165 161 165 161 205.5 118 c 128,-1,33
 246 75 246 75 318 75 c 1,34,-1
 413 80 l 1,25,-1
EndSplineSet
EndChar

StartChar: oe
Encoding: 339 339 261
Width: 874
GlyphClass: 2
Flags: W
LayerCount: 2
Fore
SplineSet
220 -10 m 0,0,1
 138 -10 138 -10 89 42 c 128,-1,2
 40 94 40 94 40 180 c 0,3,4
 40 340 40 340 123 440 c 128,-1,5
 206 540 206 540 332 540 c 128,-1,6
 458 540 458 540 502 442 c 1,7,8
 578 540 578 540 689 540 c 0,9,10
 765 540 765 540 809.5 504.5 c 128,-1,11
 854 469 854 469 854 410 c 0,12,13
 854 322 854 322 759.5 272.5 c 128,-1,14
 665 223 665 223 507 223 c 1,15,16
 504 199 504 199 504 178 c 0,17,18
 504 123 504 123 531 96.5 c 128,-1,19
 558 70 558 70 614 70 c 0,20,21
 646 70 646 70 686 81 c 128,-1,22
 726 92 726 92 750 104 c 2,23,-1
 774 115 l 1,24,-1
 804 64 l 1,25,26
 793 56 793 56 772.5 43.5 c 128,-1,27
 752 31 752 31 694 10.5 c 128,-1,28
 636 -10 636 -10 584 -10 c 0,29,30
 466 -10 466 -10 429 86 c 1,31,32
 347 -10 347 -10 220 -10 c 0,0,1
374.5 146.5 m 128,-1,34
 425 223 425 223 425 341.5 c 128,-1,35
 425 460 425 460 320 460 c 0,36,37
 237 460 237 460 188.5 379.5 c 128,-1,38
 140 299 140 299 140 185 c 0,39,40
 140 127 140 127 166.5 98.5 c 128,-1,41
 193 70 193 70 240 70 c 0,42,33
 324 70 324 70 374.5 146.5 c 128,-1,34
516 293 m 1,43,44
 626 293 626 293 692.5 320.5 c 128,-1,45
 759 348 759 348 759 400 c 0,46,47
 759 465 759 465 684 465 c 0,48,49
 630 465 630 465 583 416.5 c 128,-1,50
 536 368 536 368 516 293 c 1,43,44
EndSplineSet
EndChar

StartChar: Racute
Encoding: 340 340 262
Width: 635
GlyphClass: 2
Flags: W
LayerCount: 2
Fore
SplineSet
451 0 m 1,0,-1
 395 185 l 2,1,2
 373 258 373 258 346.5 281.5 c 128,-1,3
 320 305 320 305 268 305 c 2,4,-1
 239 305 l 1,5,-1
 204 80 l 1,6,-1
 290 60 l 1,7,-1
 280 0 l 1,8,-1
 5 0 l 1,9,-1
 15 60 l 1,10,-1
 103 80 l 1,11,-1
 189 620 l 1,12,-1
 108 640 l 1,13,-1
 116 695 l 1,14,-1
 302 700 l 1,15,-1
 410 700 l 2,16,17
 492 700 492 700 548.5 661 c 128,-1,18
 605 622 605 622 605 542 c 128,-1,19
 605 462 605 462 557 404.5 c 128,-1,20
 509 347 509 347 430 322 c 1,21,22
 460 297 460 297 489 210 c 2,23,-1
 533 80 l 1,24,-1
 605 60 l 1,25,-1
 595 0 l 1,26,-1
 451 0 l 1,0,-1
392 620 m 2,27,-1
 289 620 l 1,28,-1
 251 380 l 1,29,-1
 325 380 l 2,30,31
 403 380 403 380 451.5 419.5 c 128,-1,32
 500 459 500 459 500 530 c 0,33,34
 500 620 500 620 392 620 c 2,27,-1
556 841 m 1,35,-1
 328 746 l 1,36,-1
 301 801 l 1,37,-1
 519 920 l 1,38,-1
 556 841 l 1,35,-1
EndSplineSet
EndChar

StartChar: racute
Encoding: 341 341 263
Width: 442
GlyphClass: 2
Flags: W
LayerCount: 2
Fore
SplineSet
474 530 m 1,0,-1
 444 380 l 1,1,-1
 379 380 l 1,2,-1
 379 450 l 1,3,4
 348 450 348 450 317.5 423 c 128,-1,5
 287 396 287 396 266 358 c 0,6,7
 222 278 222 278 202 217 c 1,8,-1
 194 190 l 1,9,-1
 162 0 l 1,10,-1
 67 0 l 1,11,-1
 140 450 l 1,12,-1
 55 470 l 1,13,-1
 64 525 l 1,14,-1
 248 530 l 1,15,-1
 209 356 l 1,16,17
 241 432 241 432 288 480 c 0,18,19
 310 503 310 503 346.5 521.5 c 128,-1,20
 383 540 383 540 424 540 c 0,21,22
 446 540 446 540 474 530 c 1,0,-1
482 728 m 1,23,-1
 264 603 l 1,24,-1
 233 656 l 1,25,-1
 439 803 l 1,26,-1
 482 728 l 1,23,-1
EndSplineSet
EndChar

StartChar: Rcommaaccent
Encoding: 342 342 264
Width: 635
GlyphClass: 2
Flags: W
LayerCount: 2
Fore
SplineSet
451 0 m 1,0,-1
 395 185 l 2,1,2
 373 258 373 258 346.5 281.5 c 128,-1,3
 320 305 320 305 268 305 c 2,4,-1
 239 305 l 1,5,-1
 204 80 l 1,6,-1
 290 60 l 1,7,-1
 280 0 l 1,8,-1
 5 0 l 1,9,-1
 15 60 l 1,10,-1
 103 80 l 1,11,-1
 189 620 l 1,12,-1
 108 640 l 1,13,-1
 116 695 l 1,14,-1
 302 700 l 1,15,-1
 410 700 l 2,16,17
 492 700 492 700 548.5 661 c 128,-1,18
 605 622 605 622 605 542 c 128,-1,19
 605 462 605 462 557 404.5 c 128,-1,20
 509 347 509 347 430 322 c 1,21,22
 460 297 460 297 489 210 c 2,23,-1
 533 80 l 1,24,-1
 605 60 l 1,25,-1
 595 0 l 1,26,-1
 451 0 l 1,0,-1
392 620 m 2,27,-1
 289 620 l 1,28,-1
 251 380 l 1,29,-1
 325 380 l 2,30,31
 403 380 403 380 451.5 419.5 c 128,-1,32
 500 459 500 459 500 530 c 0,33,34
 500 620 500 620 392 620 c 2,27,-1
318 -106 m 1,35,36
 318 -76 318 -76 330.5 -56.5 c 128,-1,37
 343 -37 343 -37 369 -37 c 0,38,39
 416 -37 416 -37 416 -85 c 0,40,41
 416 -108 416 -108 404 -136 c 0,42,43
 376 -201 376 -201 318 -258 c 1,44,-1
 307 -270 l 1,45,-1
 279 -245 l 1,46,47
 303 -215 303 -215 311.5 -197.5 c 128,-1,48
 320 -180 320 -180 320 -150 c 1,49,-1
 318 -106 l 1,35,36
EndSplineSet
EndChar

StartChar: rcommaaccent
Encoding: 343 343 265
Width: 436
GlyphClass: 2
Flags: W
LayerCount: 2
Fore
SplineSet
476 530 m 1,0,-1
 446 380 l 1,1,-1
 381 380 l 1,2,-1
 381 450 l 1,3,4
 350 450 350 450 319.5 423 c 128,-1,5
 289 396 289 396 268 358 c 0,6,7
 224 278 224 278 204 217 c 1,8,-1
 196 190 l 1,9,-1
 164 0 l 1,10,-1
 69 0 l 1,11,-1
 142 450 l 1,12,-1
 57 470 l 1,13,-1
 66 525 l 1,14,-1
 250 530 l 1,15,-1
 211 356 l 1,16,17
 243 432 243 432 290 480 c 0,18,19
 312 503 312 503 348.5 521.5 c 128,-1,20
 385 540 385 540 426 540 c 0,21,22
 448 540 448 540 476 530 c 1,0,-1
81 -106 m 1,23,24
 81 -76 81 -76 93.5 -56.5 c 128,-1,25
 106 -37 106 -37 132 -37 c 0,26,27
 179 -37 179 -37 179 -85 c 0,28,29
 179 -108 179 -108 167 -136 c 0,30,31
 139 -201 139 -201 82 -258 c 2,32,-1
 70 -270 l 1,33,-1
 42 -245 l 1,34,35
 66 -215 66 -215 74.5 -197.5 c 128,-1,36
 83 -180 83 -180 83 -150 c 1,37,-1
 81 -106 l 1,23,24
EndSplineSet
EndChar

StartChar: Rcaron
Encoding: 344 344 266
Width: 635
GlyphClass: 2
Flags: W
LayerCount: 2
Fore
SplineSet
451 0 m 1,0,-1
 395 185 l 2,1,2
 373 258 373 258 346.5 281.5 c 128,-1,3
 320 305 320 305 268 305 c 2,4,-1
 239 305 l 1,5,-1
 204 80 l 1,6,-1
 290 60 l 1,7,-1
 280 0 l 1,8,-1
 5 0 l 1,9,-1
 15 60 l 1,10,-1
 103 80 l 1,11,-1
 189 620 l 1,12,-1
 108 640 l 1,13,-1
 116 695 l 1,14,-1
 302 700 l 1,15,-1
 410 700 l 2,16,17
 492 700 492 700 548.5 661 c 128,-1,18
 605 622 605 622 605 542 c 128,-1,19
 605 462 605 462 557 404.5 c 128,-1,20
 509 347 509 347 430 322 c 1,21,22
 460 297 460 297 489 210 c 2,23,-1
 533 80 l 1,24,-1
 605 60 l 1,25,-1
 595 0 l 1,26,-1
 451 0 l 1,0,-1
392 620 m 2,27,-1
 289 620 l 1,28,-1
 251 380 l 1,29,-1
 325 380 l 2,30,31
 403 380 403 380 451.5 419.5 c 128,-1,32
 500 459 500 459 500 530 c 0,33,34
 500 620 500 620 392 620 c 2,27,-1
384 826 m 1,35,-1
 533 912 l 1,36,-1
 560 867 l 1,37,-1
 401 751 l 1,38,-1
 343 751 l 1,39,-1
 221 867 l 1,40,-1
 269 912 l 1,41,-1
 384 826 l 1,35,-1
EndSplineSet
EndChar

StartChar: rcaron
Encoding: 345 345 267
Width: 473
GlyphClass: 2
Flags: W
LayerCount: 2
Fore
SplineSet
474 530 m 1,0,-1
 444 380 l 1,1,-1
 379 380 l 1,2,-1
 379 450 l 1,3,4
 348 450 348 450 317.5 423 c 128,-1,5
 287 396 287 396 266 358 c 0,6,7
 222 278 222 278 202 217 c 1,8,-1
 194 190 l 1,9,-1
 162 0 l 1,10,-1
 67 0 l 1,11,-1
 140 450 l 1,12,-1
 55 470 l 1,13,-1
 64 525 l 1,14,-1
 248 530 l 1,15,-1
 209 356 l 1,16,17
 241 432 241 432 288 480 c 0,18,19
 310 503 310 503 346.5 521.5 c 128,-1,20
 383 540 383 540 424 540 c 0,21,22
 446 540 446 540 474 530 c 1,0,-1
337 691 m 1,23,-1
 486 796 l 1,24,-1
 513 751 l 1,25,-1
 354 616 l 1,26,-1
 296 616 l 1,27,-1
 174 751 l 1,28,-1
 222 796 l 1,29,-1
 337 691 l 1,23,-1
EndSplineSet
EndChar

StartChar: Sacute
Encoding: 346 346 268
Width: 592
GlyphClass: 2
Flags: W
LayerCount: 2
Fore
SplineSet
137 96 m 1,0,-1
 150 91 l 2,1,2
 192 75 192 75 242 75 c 0,3,4
 302 75 302 75 351 108 c 128,-1,5
 400 141 400 141 400 193.5 c 128,-1,6
 400 246 400 246 344 276 c 0,7,8
 319 290 319 290 267.5 310.5 c 128,-1,9
 216 331 216 331 174 363 c 0,10,11
 118 406 118 406 118 485 c 0,12,13
 118 595 118 595 195 652.5 c 128,-1,14
 272 710 272 710 368 710 c 128,-1,15
 464 710 464 710 562 670 c 1,16,-1
 530 500 l 1,17,-1
 474 500 l 1,18,-1
 460 607 l 1,19,-1
 446 612 l 1,20,21
 404 625 404 625 362 625 c 0,22,23
 300 625 300 625 262.5 594.5 c 128,-1,24
 225 564 225 564 225 520 c 0,25,26
 225 457 225 457 324 418 c 0,27,28
 366 401 366 401 407.5 382 c 128,-1,29
 449 363 449 363 478 327 c 128,-1,30
 507 291 507 291 507 239 c 0,31,32
 507 160 507 160 465.5 101.5 c 128,-1,33
 424 43 424 43 362 16.5 c 128,-1,34
 300 -10 300 -10 214 -10 c 128,-1,35
 128 -10 128 -10 40 30 c 1,36,-1
 68 205 l 1,37,-1
 134 205 l 1,38,-1
 137 96 l 1,0,-1
546 841 m 1,39,-1
 318 746 l 1,40,-1
 291 801 l 1,41,-1
 509 920 l 1,42,-1
 546 841 l 1,39,-1
EndSplineSet
EndChar

StartChar: sacute
Encoding: 347 347 269
Width: 459
GlyphClass: 2
Flags: W
LayerCount: 2
Fore
SplineSet
265 84 m 128,-1,1
 295 105 295 105 295 147.5 c 128,-1,2
 295 190 295 190 218 226 c 0,3,4
 185 241 185 241 152.5 259 c 128,-1,5
 120 277 120 277 97.5 307.5 c 128,-1,6
 75 338 75 338 75 380 c 0,7,8
 75 459 75 459 132 499.5 c 128,-1,9
 189 540 189 540 269.5 540 c 128,-1,10
 350 540 350 540 425 515 c 1,11,-1
 401 380 l 1,12,-1
 336 380 l 1,13,-1
 330 458 l 1,14,15
 301 467 301 467 253 467 c 0,16,17
 222 467 222 467 196 449 c 128,-1,18
 170 431 170 431 170 395 c 0,19,20
 170 347 170 347 249 309 c 0,21,22
 282 293 282 293 315.5 275 c 128,-1,23
 349 257 349 257 372 228 c 128,-1,24
 395 199 395 199 395 160 c 0,25,26
 395 82 395 82 333.5 36 c 128,-1,27
 272 -10 272 -10 181 -10 c 128,-1,28
 90 -10 90 -10 20 15 c 1,29,-1
 44 160 l 1,30,-1
 109 160 l 1,31,-1
 110 75 l 1,32,33
 144 63 144 63 189.5 63 c 128,-1,0
 235 63 235 63 265 84 c 128,-1,1
444 728 m 1,34,-1
 226 603 l 1,35,-1
 195 656 l 1,36,-1
 401 803 l 1,37,-1
 444 728 l 1,34,-1
EndSplineSet
EndChar

StartChar: Scircumflex
Encoding: 348 348 270
Width: 592
GlyphClass: 2
Flags: W
LayerCount: 2
Fore
SplineSet
137 96 m 1,0,-1
 150 91 l 2,1,2
 192 75 192 75 242 75 c 0,3,4
 302 75 302 75 351 108 c 128,-1,5
 400 141 400 141 400 193.5 c 128,-1,6
 400 246 400 246 344 276 c 0,7,8
 319 290 319 290 267.5 310.5 c 128,-1,9
 216 331 216 331 174 363 c 0,10,11
 118 406 118 406 118 485 c 0,12,13
 118 595 118 595 195 652.5 c 128,-1,14
 272 710 272 710 368 710 c 128,-1,15
 464 710 464 710 562 670 c 1,16,-1
 530 500 l 1,17,-1
 474 500 l 1,18,-1
 460 607 l 1,19,-1
 446 612 l 1,20,21
 404 625 404 625 362 625 c 0,22,23
 300 625 300 625 262.5 594.5 c 128,-1,24
 225 564 225 564 225 520 c 0,25,26
 225 457 225 457 324 418 c 0,27,28
 366 401 366 401 407.5 382 c 128,-1,29
 449 363 449 363 478 327 c 128,-1,30
 507 291 507 291 507 239 c 0,31,32
 507 160 507 160 465.5 101.5 c 128,-1,33
 424 43 424 43 362 16.5 c 128,-1,34
 300 -10 300 -10 214 -10 c 128,-1,35
 128 -10 128 -10 40 30 c 1,36,-1
 68 205 l 1,37,-1
 134 205 l 1,38,-1
 137 96 l 1,0,-1
501 750 m 1,39,-1
 386 833 l 1,40,-1
 237 750 l 1,41,-1
 205 795 l 1,42,-1
 366 905 l 1,43,-1
 425 910 l 1,44,-1
 548 795 l 1,45,-1
 501 750 l 1,39,-1
EndSplineSet
EndChar

StartChar: scircumflex
Encoding: 349 349 271
Width: 463
GlyphClass: 2
Flags: W
LayerCount: 2
Fore
SplineSet
265 84 m 128,-1,1
 295 105 295 105 295 147.5 c 128,-1,2
 295 190 295 190 218 226 c 0,3,4
 185 241 185 241 152.5 259 c 128,-1,5
 120 277 120 277 97.5 307.5 c 128,-1,6
 75 338 75 338 75 380 c 0,7,8
 75 459 75 459 132 499.5 c 128,-1,9
 189 540 189 540 269.5 540 c 128,-1,10
 350 540 350 540 425 515 c 1,11,-1
 401 380 l 1,12,-1
 336 380 l 1,13,-1
 330 458 l 1,14,15
 301 467 301 467 253 467 c 0,16,17
 222 467 222 467 196 449 c 128,-1,18
 170 431 170 431 170 395 c 0,19,20
 170 347 170 347 249 309 c 0,21,22
 282 293 282 293 315.5 275 c 128,-1,23
 349 257 349 257 372 228 c 128,-1,24
 395 199 395 199 395 160 c 0,25,26
 395 82 395 82 333.5 36 c 128,-1,27
 272 -10 272 -10 181 -10 c 128,-1,28
 90 -10 90 -10 20 15 c 1,29,-1
 44 160 l 1,30,-1
 109 160 l 1,31,-1
 110 75 l 1,32,33
 144 63 144 63 189.5 63 c 128,-1,0
 235 63 235 63 265 84 c 128,-1,1
412 617 m 1,34,-1
 297 715 l 1,35,-1
 148 617 l 1,36,-1
 115 662 l 1,37,-1
 277 792 l 1,38,-1
 336 797 l 1,39,-1
 458 662 l 1,40,-1
 412 617 l 1,34,-1
EndSplineSet
EndChar

StartChar: Scaron
Encoding: 352 352 274
Width: 626
GlyphClass: 2
Flags: W
LayerCount: 2
Fore
SplineSet
137 96 m 1,0,-1
 150 91 l 2,1,2
 192 75 192 75 242 75 c 0,3,4
 302 75 302 75 351 108 c 128,-1,5
 400 141 400 141 400 193.5 c 128,-1,6
 400 246 400 246 344 276 c 0,7,8
 319 290 319 290 267.5 310.5 c 128,-1,9
 216 331 216 331 174 363 c 0,10,11
 118 406 118 406 118 485 c 0,12,13
 118 595 118 595 195 652.5 c 128,-1,14
 272 710 272 710 368 710 c 128,-1,15
 464 710 464 710 562 670 c 1,16,-1
 530 500 l 1,17,-1
 474 500 l 1,18,-1
 460 607 l 1,19,-1
 446 612 l 1,20,21
 404 625 404 625 362 625 c 0,22,23
 300 625 300 625 262.5 594.5 c 128,-1,24
 225 564 225 564 225 520 c 0,25,26
 225 457 225 457 324 418 c 0,27,28
 366 401 366 401 407.5 382 c 128,-1,29
 449 363 449 363 478 327 c 128,-1,30
 507 291 507 291 507 239 c 0,31,32
 507 160 507 160 465.5 101.5 c 128,-1,33
 424 43 424 43 362 16.5 c 128,-1,34
 300 -10 300 -10 214 -10 c 128,-1,35
 128 -10 128 -10 40 30 c 1,36,-1
 68 205 l 1,37,-1
 134 205 l 1,38,-1
 137 96 l 1,0,-1
420 826 m 1,39,-1
 569 912 l 1,40,-1
 596 867 l 1,41,-1
 437 751 l 1,42,-1
 379 751 l 1,43,-1
 257 867 l 1,44,-1
 305 912 l 1,45,-1
 420 826 l 1,39,-1
EndSplineSet
EndChar

StartChar: scaron
Encoding: 353 353 275
Width: 460
GlyphClass: 2
Flags: W
LayerCount: 2
Fore
SplineSet
265 84 m 128,-1,1
 295 105 295 105 295 147.5 c 128,-1,2
 295 190 295 190 218 226 c 0,3,4
 185 241 185 241 152.5 259 c 128,-1,5
 120 277 120 277 97.5 307.5 c 128,-1,6
 75 338 75 338 75 380 c 0,7,8
 75 459 75 459 132 499.5 c 128,-1,9
 189 540 189 540 269.5 540 c 128,-1,10
 350 540 350 540 425 515 c 1,11,-1
 401 380 l 1,12,-1
 336 380 l 1,13,-1
 330 458 l 1,14,15
 301 467 301 467 253 467 c 0,16,17
 222 467 222 467 196 449 c 128,-1,18
 170 431 170 431 170 395 c 0,19,20
 170 347 170 347 249 309 c 0,21,22
 282 293 282 293 315.5 275 c 128,-1,23
 349 257 349 257 372 228 c 128,-1,24
 395 199 395 199 395 160 c 0,25,26
 395 82 395 82 333.5 36 c 128,-1,27
 272 -10 272 -10 181 -10 c 128,-1,28
 90 -10 90 -10 20 15 c 1,29,-1
 44 160 l 1,30,-1
 109 160 l 1,31,-1
 110 75 l 1,32,33
 144 63 144 63 189.5 63 c 128,-1,0
 235 63 235 63 265 84 c 128,-1,1
294 691 m 1,34,-1
 443 796 l 1,35,-1
 470 751 l 1,36,-1
 311 616 l 1,37,-1
 253 616 l 1,38,-1
 131 751 l 1,39,-1
 179 796 l 1,40,-1
 294 691 l 1,34,-1
EndSplineSet
EndChar

StartChar: Tcommaaccent
Encoding: 354 354 276
Width: 538
GlyphClass: 2
Flags: W
LayerCount: 2
Fore
SplineSet
65 700 m 1,0,-1
 603 700 l 1,1,-1
 574 520 l 1,2,-1
 510 520 l 1,3,-1
 500 620 l 1,4,-1
 371 620 l 1,5,-1
 285 80 l 1,6,-1
 381 60 l 1,7,-1
 371 0 l 1,8,-1
 72 0 l 1,9,-1
 82 60 l 1,10,-1
 185 80 l 1,11,-1
 271 620 l 1,12,-1
 141 620 l 1,13,-1
 100 520 l 1,14,-1
 35 520 l 1,15,-1
 65 700 l 1,0,-1
124 -106 m 1,16,17
 124 -76 124 -76 136.5 -56.5 c 128,-1,18
 149 -37 149 -37 175 -37 c 0,19,20
 222 -37 222 -37 222 -85 c 0,21,22
 222 -108 222 -108 210 -136 c 0,23,24
 182 -201 182 -201 124 -258 c 1,25,-1
 113 -270 l 1,26,-1
 85 -245 l 1,27,28
 109 -215 109 -215 117.5 -197.5 c 128,-1,29
 126 -180 126 -180 126 -150 c 1,30,-1
 124 -106 l 1,16,17
EndSplineSet
EndChar

StartChar: tcommaaccent
Encoding: 355 355 277
Width: 379
GlyphClass: 2
Flags: W
LayerCount: 2
Fore
SplineSet
320 90 m 1,0,-1
 336 36 l 1,1,2
 261 -10 261 -10 205 -10 c 0,3,4
 104 -10 104 -10 104 109 c 0,5,6
 104 138 104 138 110 173 c 2,7,-1
 154 450 l 1,8,-1
 55 450 l 1,9,-1
 66 515 l 1,10,-1
 166 525 l 1,11,-1
 186 651 l 1,12,-1
 285 671 l 1,13,-1
 261 525 l 1,14,-1
 399 525 l 1,15,-1
 387 450 l 1,16,-1
 249 450 l 1,17,-1
 206 183 l 2,18,19
 200 144 200 144 200 118.5 c 128,-1,20
 200 93 200 93 209 81.5 c 128,-1,21
 218 70 218 70 234 70 c 0,22,23
 264 70 264 70 306 85 c 2,24,-1
 320 90 l 1,0,-1
116 -106 m 1,25,26
 116 -76 116 -76 128.5 -56.5 c 128,-1,27
 141 -37 141 -37 167 -37 c 0,28,29
 214 -37 214 -37 214 -85 c 0,30,31
 214 -108 214 -108 202 -136 c 0,32,33
 174 -201 174 -201 116 -258 c 1,34,-1
 105 -270 l 1,35,-1
 77 -245 l 1,36,37
 101 -215 101 -215 109.5 -197.5 c 128,-1,38
 118 -180 118 -180 118 -150 c 1,39,-1
 116 -106 l 1,25,26
EndSplineSet
EndChar

StartChar: Tcaron
Encoding: 356 356 278
Width: 538
GlyphClass: 2
Flags: W
LayerCount: 2
Fore
SplineSet
65 700 m 1,0,-1
 603 700 l 1,1,-1
 574 520 l 1,2,-1
 510 520 l 1,3,-1
 500 620 l 1,4,-1
 371 620 l 1,5,-1
 285 80 l 1,6,-1
 381 60 l 1,7,-1
 371 0 l 1,8,-1
 72 0 l 1,9,-1
 82 60 l 1,10,-1
 185 80 l 1,11,-1
 271 620 l 1,12,-1
 141 620 l 1,13,-1
 100 520 l 1,14,-1
 35 520 l 1,15,-1
 65 700 l 1,0,-1
303 826 m 1,16,-1
 452 912 l 1,17,-1
 479 867 l 1,18,-1
 320 751 l 1,19,-1
 262 751 l 1,20,-1
 140 867 l 1,21,-1
 188 912 l 1,22,-1
 303 826 l 1,16,-1
EndSplineSet
EndChar

StartChar: Utilde
Encoding: 360 360 279
Width: 735
GlyphClass: 2
Flags: W
LayerCount: 2
Fore
SplineSet
686 620 m 1,0,-1
 634 295 l 2,1,2
 611 146 611 146 537.5 68 c 128,-1,3
 464 -10 464 -10 317 -10 c 0,4,5
 199 -10 199 -10 148 42.5 c 128,-1,6
 97 95 97 95 97 190 c 0,7,8
 97 221 97 221 104 270 c 2,9,-1
 160 620 l 1,10,-1
 75 640 l 1,11,-1
 84 695 l 1,12,-1
 358 700 l 1,13,-1
 348 640 l 1,14,-1
 261 620 l 1,15,-1
 205 270 l 2,16,17
 199 234 199 234 199 201 c 0,18,19
 199 140 199 140 229.5 107.5 c 128,-1,20
 260 75 260 75 342.5 75 c 128,-1,21
 425 75 425 75 469 123 c 128,-1,22
 513 171 513 171 531 285 c 2,23,-1
 585 620 l 1,24,-1
 495 640 l 1,25,-1
 504 695 l 1,26,-1
 780 700 l 1,27,-1
 770 640 l 1,28,-1
 686 620 l 1,0,-1
289 766 m 1,29,-1
 260 796 l 1,30,31
 265 805 265 805 280.5 825 c 128,-1,32
 296 845 296 845 310 858 c 0,33,34
 346 890 346 890 382 890 c 128,-1,35
 418 890 418 890 468.5 867 c 128,-1,36
 519 844 519 844 542 844 c 128,-1,37
 565 844 565 844 582.5 854.5 c 128,-1,38
 600 865 600 865 608 876 c 1,39,-1
 617 886 l 1,40,-1
 647 856 l 1,41,42
 632 827 632 827 610 806 c 0,43,44
 566 766 566 766 530 766 c 128,-1,45
 494 766 494 766 443.5 788 c 128,-1,46
 393 810 393 810 370 810 c 0,47,48
 331 810 331 810 300 777 c 1,49,-1
 289 766 l 1,29,-1
EndSplineSet
EndChar

StartChar: Umacron
Encoding: 362 362 281
Width: 735
GlyphClass: 2
Flags: W
LayerCount: 2
Fore
SplineSet
686 620 m 1,0,-1
 634 295 l 2,1,2
 611 146 611 146 537.5 68 c 128,-1,3
 464 -10 464 -10 317 -10 c 0,4,5
 199 -10 199 -10 148 42.5 c 128,-1,6
 97 95 97 95 97 190 c 0,7,8
 97 221 97 221 104 270 c 2,9,-1
 160 620 l 1,10,-1
 75 640 l 1,11,-1
 84 695 l 1,12,-1
 358 700 l 1,13,-1
 348 640 l 1,14,-1
 261 620 l 1,15,-1
 205 270 l 2,16,17
 199 234 199 234 199 201 c 0,18,19
 199 140 199 140 229.5 107.5 c 128,-1,20
 260 75 260 75 342.5 75 c 128,-1,21
 425 75 425 75 469 123 c 128,-1,22
 513 171 513 171 531 285 c 2,23,-1
 585 620 l 1,24,-1
 495 640 l 1,25,-1
 504 695 l 1,26,-1
 780 700 l 1,27,-1
 770 640 l 1,28,-1
 686 620 l 1,0,-1
311 780 m 1,29,-1
 322 855 l 1,30,-1
 586 855 l 1,31,-1
 575 780 l 1,32,-1
 311 780 l 1,29,-1
EndSplineSet
EndChar

StartChar: ubreve
Encoding: 365 365 284
Width: 632
GlyphClass: 2
Flags: W
LayerCount: 2
Fore
SplineSet
389 0 m 1,0,-1
 430 194 l 1,1,2
 417 161 417 161 390.5 122.5 c 128,-1,3
 364 84 364 84 338.5 57.5 c 128,-1,4
 313 31 313 31 272.5 10.5 c 128,-1,5
 232 -10 232 -10 190 -10 c 0,6,7
 79 -10 79 -10 79 112 c 0,8,9
 79 135 79 135 84 170 c 2,10,-1
 130 450 l 1,11,-1
 45 470 l 1,12,-1
 54 525 l 1,13,-1
 237 530 l 1,14,-1
 182 185 l 1,15,16
 178 153 178 153 178 141 c 0,17,18
 178 75 178 75 230 75 c 0,19,20
 267 75 267 75 303 103.5 c 128,-1,21
 339 132 339 132 363 172 c 0,22,23
 414 259 414 259 434 322 c 2,24,-1
 443 350 l 1,25,-1
 473 530 l 1,26,-1
 568 530 l 1,27,-1
 496 80 l 1,28,-1
 582 65 l 1,29,-1
 573 10 l 1,30,-1
 389 0 l 1,0,-1
453 770 m 1,31,-1
 512 775 l 1,32,33
 502 709 502 709 454.5 667 c 128,-1,34
 407 625 407 625 353 625 c 128,-1,35
 299 625 299 625 267.5 659.5 c 128,-1,36
 236 694 236 694 236 744 c 1,37,-1
 238 770 l 1,38,-1
 297 775 l 1,39,40
 297 743 297 743 315 721.5 c 128,-1,41
 333 700 333 700 364.5 700 c 128,-1,42
 396 700 396 700 418.5 717.5 c 128,-1,43
 441 735 441 735 447 752 c 2,44,-1
 453 770 l 1,31,-1
EndSplineSet
EndChar

StartChar: uring
Encoding: 367 367 286
Width: 632
GlyphClass: 2
Flags: W
LayerCount: 2
Fore
SplineSet
389 0 m 1,0,-1
 430 194 l 1,1,2
 417 161 417 161 390.5 122.5 c 128,-1,3
 364 84 364 84 338.5 57.5 c 128,-1,4
 313 31 313 31 272.5 10.5 c 128,-1,5
 232 -10 232 -10 190 -10 c 0,6,7
 79 -10 79 -10 79 112 c 0,8,9
 79 135 79 135 84 170 c 2,10,-1
 130 450 l 1,11,-1
 45 470 l 1,12,-1
 54 525 l 1,13,-1
 237 530 l 1,14,-1
 182 185 l 1,15,16
 178 153 178 153 178 141 c 0,17,18
 178 75 178 75 230 75 c 0,19,20
 267 75 267 75 303 103.5 c 128,-1,21
 339 132 339 132 363 172 c 0,22,23
 414 259 414 259 434 322 c 2,24,-1
 443 350 l 1,25,-1
 473 530 l 1,26,-1
 568 530 l 1,27,-1
 496 80 l 1,28,-1
 582 65 l 1,29,-1
 573 10 l 1,30,-1
 389 0 l 1,0,-1
270.5 620 m 128,-1,32
 243 645 243 645 243 692 c 128,-1,33
 243 739 243 739 283 779.5 c 128,-1,34
 323 820 323 820 369 820 c 128,-1,35
 415 820 415 820 443.5 795.5 c 128,-1,36
 472 771 472 771 472 723.5 c 128,-1,37
 472 676 472 676 432 635.5 c 128,-1,38
 392 595 392 595 345 595 c 128,-1,31
 298 595 298 595 270.5 620 c 128,-1,32
368 770 m 0,39,40
 339 770 339 770 320.5 746.5 c 128,-1,41
 302 723 302 723 302 692 c 0,42,43
 302 645 302 645 348 645 c 0,44,45
 377 645 377 645 395 668.5 c 128,-1,46
 413 692 413 692 413 723 c 0,47,48
 413 770 413 770 368 770 c 0,39,40
EndSplineSet
EndChar

StartChar: uhungarumlaut
Encoding: 369 369 287
Width: 691
GlyphClass: 2
Flags: W
LayerCount: 2
Fore
SplineSet
389 0 m 1,0,-1
 430 194 l 1,1,2
 417 161 417 161 390.5 122.5 c 128,-1,3
 364 84 364 84 338.5 57.5 c 128,-1,4
 313 31 313 31 272.5 10.5 c 128,-1,5
 232 -10 232 -10 190 -10 c 0,6,7
 79 -10 79 -10 79 112 c 0,8,9
 79 135 79 135 84 170 c 2,10,-1
 130 450 l 1,11,-1
 45 470 l 1,12,-1
 54 525 l 1,13,-1
 237 530 l 1,14,-1
 182 185 l 1,15,16
 178 153 178 153 178 141 c 0,17,18
 178 75 178 75 230 75 c 0,19,20
 267 75 267 75 303 103.5 c 128,-1,21
 339 132 339 132 363 172 c 0,22,23
 414 259 414 259 434 322 c 2,24,-1
 443 350 l 1,25,-1
 473 530 l 1,26,-1
 568 530 l 1,27,-1
 496 80 l 1,28,-1
 582 65 l 1,29,-1
 573 10 l 1,30,-1
 389 0 l 1,0,-1
641 755 m 1,31,-1
 440 605 l 1,32,-1
 404 655 l 1,33,-1
 593 820 l 1,34,-1
 641 755 l 1,31,-1
445 755 m 1,35,-1
 244 605 l 1,36,-1
 208 655 l 1,37,-1
 397 820 l 1,38,-1
 445 755 l 1,35,-1
EndSplineSet
EndChar

StartChar: uogonek
Encoding: 371 371 289
Width: 632
GlyphClass: 2
Flags: W
LayerCount: 2
Fore
SplineSet
389 0 m 1,0,-1
 572 10 l 1,1,2
 529 0 529 0 470 -22 c 0,3,4
 349 -67 349 -67 349 -124 c 0,5,6
 349 -141 349 -141 360 -150.5 c 128,-1,7
 371 -160 371 -160 388 -160 c 1,8,-1
 434 -153 l 1,9,-1
 434 -200 l 1,10,11
 392 -220 392 -220 354.5 -220 c 128,-1,12
 317 -220 317 -220 293 -198.5 c 128,-1,13
 269 -177 269 -177 269 -135.5 c 128,-1,14
 269 -94 269 -94 303 -61 c 128,-1,15
 337 -28 337 -28 389 0 c 1,0,-1
389 0 m 1,16,-1
 430 194 l 1,17,18
 417 161 417 161 390.5 122.5 c 128,-1,19
 364 84 364 84 338.5 57.5 c 128,-1,20
 313 31 313 31 272.5 10.5 c 128,-1,21
 232 -10 232 -10 190 -10 c 0,22,23
 79 -10 79 -10 79 112 c 0,24,25
 79 135 79 135 84 170 c 2,26,-1
 130 450 l 1,27,-1
 45 470 l 1,28,-1
 54 525 l 1,29,-1
 237 530 l 1,30,-1
 182 185 l 1,31,32
 178 153 178 153 178 141 c 0,33,34
 178 75 178 75 230 75 c 0,35,36
 267 75 267 75 303 103.5 c 128,-1,37
 339 132 339 132 363 172 c 0,38,39
 414 259 414 259 434 322 c 2,40,-1
 443 350 l 1,41,-1
 473 530 l 1,42,-1
 568 530 l 1,43,-1
 496 80 l 1,44,-1
 582 65 l 1,45,-1
 573 10 l 1,46,-1
 389 0 l 1,16,-1
EndSplineSet
EndChar

StartChar: Wcircumflex
Encoding: 372 372 290
Width: 982
GlyphClass: 2
Flags: W
LayerCount: 2
Fore
SplineSet
239 0 m 1,0,-1
 129 620 l 1,1,-1
 45 640 l 1,2,-1
 54 695 l 1,3,-1
 231 700 l 1,4,-1
 231 699 l 1,5,-1
 232 700 l 1,6,-1
 307 185 l 1,7,-1
 529 695 l 1,8,-1
 592 700 l 1,9,-1
 672 178 l 1,10,-1
 860 620 l 1,11,-1
 774 640 l 1,12,-1
 784 695 l 1,13,-1
 1052 700 l 1,14,-1
 1042 640 l 1,15,-1
 965 621 l 1,16,-1
 678 0 l 1,17,-1
 615 0 l 1,18,-1
 528 485 l 1,19,-1
 486 383 l 1,20,-1
 304 0 l 1,21,-1
 239 0 l 1,0,-1
684 750 m 1,22,-1
 569 833 l 1,23,-1
 420 750 l 1,24,-1
 388 795 l 1,25,-1
 549 905 l 1,26,-1
 608 910 l 1,27,-1
 731 795 l 1,28,-1
 684 750 l 1,22,-1
EndSplineSet
EndChar

StartChar: wcircumflex
Encoding: 373 373 291
Width: 790
GlyphClass: 2
Flags: W
LayerCount: 2
Fore
SplineSet
815 470 m 1,0,-1
 766 458 l 1,1,-1
 565 0 l 1,2,-1
 450 0 l 1,3,-1
 404 340 l 1,4,-1
 391 290 l 1,5,-1
 279 0 l 1,6,-1
 166 0 l 1,7,-1
 94 455 l 1,8,-1
 20 470 l 1,9,-1
 29 525 l 1,10,-1
 190 530 l 1,11,-1
 240 95 l 1,12,-1
 403 525 l 1,13,-1
 474 530 l 1,14,-1
 525 95 l 1,15,-1
 672 451 l 1,16,-1
 585 470 l 1,17,-1
 594 525 l 1,18,-1
 825 530 l 1,19,-1
 815 470 l 1,0,-1
610 617 m 1,20,-1
 495 715 l 1,21,-1
 346 617 l 1,22,-1
 313 662 l 1,23,-1
 475 792 l 1,24,-1
 534 797 l 1,25,-1
 656 662 l 1,26,-1
 610 617 l 1,20,-1
EndSplineSet
EndChar

StartChar: Ycircumflex
Encoding: 374 374 292
Width: 609
GlyphClass: 2
Flags: W
LayerCount: 2
Fore
SplineSet
210 80 m 1,0,-1
 238 262 l 1,1,-1
 134 620 l 1,2,-1
 40 640 l 1,3,-1
 49 695 l 1,4,-1
 214 700 l 1,5,-1
 314 334 l 1,6,-1
 482 621 l 1,7,-1
 407 640 l 1,8,-1
 417 695 l 1,9,-1
 674 700 l 1,10,-1
 664 640 l 1,11,-1
 581 620 l 1,12,-1
 334 231 l 1,13,-1
 310 80 l 1,14,-1
 393 60 l 1,15,-1
 383 0 l 1,16,-1
 110 0 l 1,17,-1
 120 60 l 1,18,-1
 210 80 l 1,0,-1
461 750 m 1,19,-1
 346 833 l 1,20,-1
 197 750 l 1,21,-1
 165 795 l 1,22,-1
 326 905 l 1,23,-1
 385 910 l 1,24,-1
 508 795 l 1,25,-1
 461 750 l 1,19,-1
EndSplineSet
EndChar

StartChar: Ydieresis
Encoding: 376 376 294
Width: 609
GlyphClass: 2
Flags: W
LayerCount: 2
Fore
SplineSet
210 80 m 1,0,-1
 238 262 l 1,1,-1
 134 620 l 1,2,-1
 40 640 l 1,3,-1
 49 695 l 1,4,-1
 214 700 l 1,5,-1
 314 334 l 1,6,-1
 482 621 l 1,7,-1
 407 640 l 1,8,-1
 417 695 l 1,9,-1
 674 700 l 1,10,-1
 664 640 l 1,11,-1
 581 620 l 1,12,-1
 334 231 l 1,13,-1
 310 80 l 1,14,-1
 393 60 l 1,15,-1
 383 0 l 1,16,-1
 110 0 l 1,17,-1
 120 60 l 1,18,-1
 210 80 l 1,0,-1
456 765 m 0,19,20
 411 765 411 765 411 815 c 0,21,22
 411 841 411 841 429 863 c 128,-1,23
 447 885 447 885 475 885 c 0,24,25
 521 885 521 885 521 839 c 0,26,27
 521 809 521 809 502 787 c 128,-1,28
 483 765 483 765 456 765 c 0,19,20
255 765 m 0,29,30
 210 765 210 765 210 815 c 0,31,32
 210 841 210 841 228 863 c 128,-1,33
 246 885 246 885 274 885 c 0,34,35
 320 885 320 885 320 839 c 0,36,37
 320 809 320 809 301 787 c 128,-1,38
 282 765 282 765 255 765 c 0,29,30
EndSplineSet
EndChar

StartChar: Zacute
Encoding: 377 377 295
Width: 619
GlyphClass: 2
Flags: W
LayerCount: 2
Fore
SplineSet
130 700 m 1,0,-1
 599 700 l 1,1,-1
 594 634 l 1,2,-1
 175 80 l 1,3,-1
 443 80 l 1,4,-1
 479 182 l 1,5,-1
 545 182 l 1,6,-1
 516 0 l 1,7,-1
 45 0 l 1,8,-1
 50 70 l 1,9,-1
 466 619 l 1,10,-1
 202 619 l 1,11,-1
 162 530 l 1,12,-1
 106 530 l 1,13,-1
 130 700 l 1,0,-1
512 841 m 1,14,-1
 284 746 l 1,15,-1
 257 801 l 1,16,-1
 475 920 l 1,17,-1
 512 841 l 1,14,-1
EndSplineSet
EndChar

StartChar: zdotaccent
Encoding: 380 380 298
Width: 475
GlyphClass: 2
Flags: W
LayerCount: 2
Fore
SplineSet
87 530 m 1,0,-1
 460 530 l 1,1,-1
 455 465 l 1,2,-1
 136 78 l 1,3,-1
 324 78 l 1,4,-1
 356 160 l 1,5,-1
 416 160 l 1,6,-1
 395 0 l 1,7,-1
 10 0 l 1,8,-1
 15 70 l 1,9,-1
 335 455 l 1,10,-1
 161 455 l 1,11,-1
 129 380 l 1,12,-1
 64 380 l 1,13,-1
 87 530 l 1,0,-1
303.5 651 m 128,-1,15
 285 625 285 625 256 625 c 128,-1,16
 227 625 227 625 212 638.5 c 128,-1,17
 197 652 197 652 197 682.5 c 128,-1,18
 197 713 197 713 215.5 739 c 128,-1,19
 234 765 234 765 263 765 c 128,-1,20
 292 765 292 765 307 751.5 c 128,-1,21
 322 738 322 738 322 707.5 c 128,-1,14
 322 677 322 677 303.5 651 c 128,-1,15
EndSplineSet
EndChar

